<svg id="id8-icon" xmlns="http://www.w3.org/2000/svg" width="inherit" height="inherit" viewBox="0 0 403.81 155.1">
  <defs>
    <style>
      .cls-1 {
        fill: #f16324;
      }

      .cls-2 {
        fill: #808184;
        fill-opacity: 0.4;
      }

      .cls-3 {
        fill: #505762;
      }

      .cls-4 {
        fill: #ee4023;
      }

      .cls-5 {
        fill: #f4b627;
      }

      .cls-6 {
        fill: #f0d78b;
      }
    </style>
  </defs>
  <g id="notes">
    <g id="orange-note">
      <path class="cls-1" d="M385.52,538.14a11.1,11.1,0,0,0,11.1,11.1h64.6a11.1,11.1,0,0,0,11.09-11.1V473.55a11.1,11.1,0,0,0-11.09-11.1h-64.6a11.1,11.1,0,0,0-11.1,11.1Z" transform="translate(-338.1 -462.45)"/>
      <path class="cls-2" d="M471.86,521.4H434.25v-1.73a20.49,20.49,0,0,0-20.46-20.46H385.52v38.93a11.1,11.1,0,0,0,11.1,11.1h64.6a11.1,11.1,0,0,0,11.09-11.1V521.41Z" transform="translate(-338.1 -462.45)"/>
      <path class="cls-3" d="M430.34,529.49a11.61,11.61,0,0,1-1.17-.06c-4.13-.42-14.71-3.95-23.6-27.39a2.27,2.27,0,1,1,4.25-1.61c8.21,21.67,17.25,24.22,19.82,24.48a5.07,5.07,0,0,0,5.09-2.26c1.55-2.43,1.21-6.13-.89-9.65-5.52-9.25-2.8-15.71,1.21-18.44a11.51,11.51,0,0,1,9.35-1.36,17.7,17.7,0,0,1,9.47,6.65,2.27,2.27,0,0,1-3.6,2.77c-4.23-5.51-9.68-6.32-12.67-4.3s-3.07,7,.14,12.35c3,5.09,3.34,10.48.83,14.43a9.56,9.56,0,0,1-8.23,4.39Z" transform="translate(-338.1 -462.45)"/>
      <path class="cls-3" d="M443.14,485.05H406.25c-2.5,0-4.52-1-4.52-2.27s2-2.27,4.52-2.27h36.89c2.5,0,4.52,1,4.52,2.27S445.64,485.05,443.14,485.05Z" transform="translate(-338.1 -462.45)"/>
    </g>
    <g id="red-note">
      <path class="cls-4" d="M338.1,584.27a11.1,11.1,0,0,0,11.1,11.09h64.59a11.1,11.1,0,0,0,11.1-11.09v-64.6a11.1,11.1,0,0,0-11.1-11.1H349.2a11.1,11.1,0,0,0-11.1,11.1Z" transform="translate(-338.1 -462.45)"/>
      <path class="cls-2" d="M407.26,521.4a20.48,20.48,0,0,0-20.46,20.46v53.5h27a11.1,11.1,0,0,0,11.1-11.09V521.4Z" transform="translate(-338.1 -462.45)"/>
      <path class="cls-3" d="M378.34,579.6a9.56,9.56,0,0,1-8.23-4.39c-2.52-4-2.21-9.34.82-14.43,3.21-5.38,3.27-10.22.15-12.35s-8.44-1.21-12.67,4.3a2.27,2.27,0,0,1-3.6-2.77,17.67,17.67,0,0,1,9.46-6.65,11.5,11.5,0,0,1,9.36,1.37c4,2.72,6.73,9.18,1.21,18.43-2.1,3.52-2.45,7.23-.9,9.66A5.11,5.11,0,0,0,379,575c2.57-.26,11.61-2.81,19.82-24.48a2.27,2.27,0,0,1,4.25,1.61c-8.89,23.44-19.47,27-23.61,27.39a11.41,11.41,0,0,1-1.16.06Z" transform="translate(-338.1 -462.45)"/>
      <path class="cls-3" d="M373.63,531.8H355.08a2.27,2.27,0,1,1,0-4.54h18.55a2.27,2.27,0,0,1,0,4.54Z" transform="translate(-338.1 -462.45)"/>
    </g>
    <g id="yellow-note">
      <path class="cls-5" d="M407.26,617.55h44.68a31,31,0,0,0,31-31V541.86a11.09,11.09,0,0,0-11.09-11.1h-64.6a11.1,11.1,0,0,0-11.1,11.1v64.59a11.1,11.1,0,0,0,11.1,11.1Z" transform="translate(-338.1 -462.45)"/>
      <path class="cls-6" d="M451.94,617.55a31,31,0,0,0,31-31V574.15c0,12.66-7,17.15-15.15,17.15a11.11,11.11,0,0,0-11.1,11.1c0,8.14-4.49,15.15-17.14,15.15Z" transform="translate(-338.1 -462.45)"/>
      <g>
        <path class="cls-3" d="M463.57,558.18h-48a2.28,2.28,0,0,1,0-4.55h48a2.28,2.28,0,0,1,0,4.55Z" transform="translate(-338.1 -462.45)"/>
        <path class="cls-3" d="M463.57,578.46h-48a2.27,2.27,0,0,1,0-4.54h48a2.27,2.27,0,0,1,0,4.54Z" transform="translate(-338.1 -462.45)"/>
      </g>
    </g>
  </g>
  <g id="id8">
    <path class="cls-3" d="M520.33,484.89A13.06,13.06,0,1,1,533.39,498,13.06,13.06,0,0,1,520.33,484.89Zm2.89,84.9V516.48c0-3.65,2.12-5.77,5.77-5.77h8.8c3.65,0,5.62,2.12,5.62,5.77v52.24c0,1.67.46,2.89,2.13,2.89a8.94,8.94,0,0,0,3.19-.76c2.43-.91,4.1.15,5.16,3.34l1.82,5.92c1.22,3.5.31,5-2,6.23a22.42,22.42,0,0,1-11.69,3C530.05,589.38,523.22,582.69,523.22,569.79Z" transform="translate(-338.1 -462.45)"/>
    <path class="cls-3" d="M654,586.49a23.48,23.48,0,0,1-11.54,2.89c-7.59,0-13.36-4.26-15.19-11.85a34.26,34.26,0,0,1-26.12,11.85c-22.32,0-38.12-17.62-38.12-40s15.8-39.94,38.12-39.94a38.15,38.15,0,0,1,22.63,7.44V486.56c0-3.49,2-5,5.62-5.92l8.51-1.52c4.09-.76,6.07,1.67,6.07,5.62v84.59c0,1.67.3,2.88,2,2.88,1.22,0,2.28-.6,3.65-.75,2.28-.61,3.8.6,4.71,3.34l1.67,5.31C657.31,583.76,656.1,585.28,654,586.49Zm-29-37.06C625,535,615.55,527,604.16,527c-12.76,0-21.11,10-21.11,22.47s8.35,22.33,21.11,22.33C615.55,571.76,625,563.56,625,549.43Z" transform="translate(-338.1 -462.45)"/>
    <path class="cls-3" d="M741.9,558.24c0,18.23-16.4,31.14-39.18,31.14s-39.18-12.91-39.18-31.14c0-11.54,7-21.11,18.53-25.66-7.29-4.1-11.7-11.09-11.7-19.44,0-15.49,13.52-26.28,32.35-26.28s32.35,10.79,32.35,26.28a20.8,20.8,0,0,1-11.69,19.28C734.92,537,741.9,546.7,741.9,558.24ZM721.55,557c0-9.87-8-17.16-18.83-17.16s-18.83,7.29-18.83,17.16,8.05,16.7,18.83,16.7S721.55,566.75,721.55,557ZM689.36,513.9c0,7.13,5.77,12.45,13.36,12.45s13.36-5.32,13.36-12.45c0-6.84-5.77-12-13.36-12S689.36,507.06,689.36,513.9Z" transform="translate(-338.1 -462.45)"/>
  </g>
</svg>
