<svg id="id8-icon" class="logo-mark" [ngClass]="{'shrink': yPosition > 70}" 
      xmlns="http://www.w3.org/2000/svg" width="inherit" height="inherit" viewBox="0 0 880.28 160.88">
{{yPosition}}
    <g id="word-mark">
      <path id="i" class="icon word cls-1" d="M203.6,134q-9,0-13.92-5t-4.88-14.68V60.87a5.8,5.8,0,0,1,1.51-4.28,5.68,5.68,0,0,1,4.26-1.52h8.81a5.4,5.4,0,0,1,4.18,1.52A6,6,0,0,1,205,60.87v52.34c0,1.93.69,2.9,2.07,2.9a8.14,8.14,0,0,0,3.18-.75q3.63-1.33,5.18,3.35l1.78,6a6.67,6.67,0,0,1,.33,4,4.5,4.5,0,0,1-2.26,2.27A22.17,22.17,0,0,1,203.6,134Z" transform="translate(0 0)"/>
      <path id="d" class="icon word cls-1" d="M317.3,124.66c1.09,2.92.42,5-2,6.39a22.49,22.49,0,0,1-11.48,2.9,14.87,14.87,0,0,1-15.17-11.9Q278.08,134,262.6,134q-16.52,0-27.28-11.56T224.55,93.88a42.89,42.89,0,0,1,4.81-20.3,36.27,36.27,0,0,1,13.55-14.46A36.92,36.92,0,0,1,262.6,53.8a37.45,37.45,0,0,1,22.58,7.51V30.83a5.22,5.22,0,0,1,1.37-3.9,8.63,8.63,0,0,1,4.25-2l8.44-1.49c2-.34,3.48,0,4.52,1a6.3,6.3,0,0,1,1.55,4.61v84.76c0,1.93.67,2.9,2,2.9a7.73,7.73,0,0,0,1.85-.33,10.93,10.93,0,0,1,1.78-.41c2.27-.6,3.85.52,4.74,3.34Zm-51.67-8.4a19.91,19.91,0,0,0,14.81-6.06q5.93-6.06,5.92-16.32,0-10.5-5.92-16.51a19.89,19.89,0,0,0-14.81-6,19.6,19.6,0,0,0-15.25,6.47,24.85,24.85,0,0,0,0,32Q256.23,116.26,265.63,116.26Z" transform="translate(0 0)"/>
      <path id="_8" data-name=" 8" class="icon word cls-1" d="M384.6,76.85a29.55,29.55,0,0,1,13.58,10.3,26.09,26.09,0,0,1,4.92,15.57q0,13.68-11,22.46T363.94,134q-17,0-28.05-8.77t-11-22.46a25.79,25.79,0,0,1,4.92-15.5A29.71,29.71,0,0,1,343.36,77a23.62,23.62,0,0,1-8.58-8.18,21.16,21.16,0,0,1-3.11-11.3,23.45,23.45,0,0,1,9.06-19q9.07-7.39,23.21-7.39t23.21,7.39a23.42,23.42,0,0,1,9.07,19Q396.22,70.75,384.6,76.85ZM350.51,113.5a21.33,21.33,0,0,0,26.87,0,15.36,15.36,0,0,0,5.37-12,15.91,15.91,0,0,0-5.37-12.31,21,21,0,0,0-26.87,0,15.91,15.91,0,0,0-5.37,12.31A15.36,15.36,0,0,0,350.51,113.5Zm22.94-63.82a14.78,14.78,0,0,0-19,0,11.11,11.11,0,0,0-3.81,8.58,11.72,11.72,0,0,0,3.81,8.92,14.47,14.47,0,0,0,19,0,11.68,11.68,0,0,0,3.82-8.92,11.08,11.08,0,0,0-3.82-8.58Z" transform="translate(0 0)"/>
      <path id="dot-yellow" class="word cls-2" d="M428.05,133.8a12.53,12.53,0,0,1-9.18-3.9,12.71,12.71,0,0,1-3.85-9.26,13,13,0,1,1,26.06,0h0a12.8,12.8,0,0,1-3.81,9.26A12.47,12.47,0,0,1,428.05,133.8Z" transform="translate(0 0)"/>
      <path id="s" class="word cls-1" d="M483.75,134a46.85,46.85,0,0,1-17-3.2,34.43,34.43,0,0,1-13-8.4q-4.44-4.23-.29-8.55l2.59-2.9q3.92-4.32,8.44-.44,8.88,7.8,19.1,7.8a13.6,13.6,0,0,0,7.84-2,6.38,6.38,0,0,0,2.26-8.29,9.37,9.37,0,0,0-1.55-2.23,11.44,11.44,0,0,0-2.74-1.94c-1.26-.69-2.27-1.21-3-1.56s-2-.84-3.66-1.48c-.64-.25-1.14-.45-1.48-.6l-5.51-2c-1.33-.47-3-1.16-5.07-2a32.68,32.68,0,0,1-4.88-2.53,48.48,48.48,0,0,1-4-3,15.57,15.57,0,0,1-3.4-3.75,20.05,20.05,0,0,1-2-4.61,19.19,19.19,0,0,1-.82-5.73A20,20,0,0,1,463.36,60q7.84-6.21,20.95-6.21a43.58,43.58,0,0,1,14.4,2.42,30.53,30.53,0,0,1,11.36,6.58,6,6,0,0,1,2.37,3.83c.1,1.26-.59,2.89-2.07,4.87l-2.15,2.75q-3.71,4.23-8.29.74a24.42,24.42,0,0,0-15.62-6,12.32,12.32,0,0,0-7,1.75,5.44,5.44,0,0,0-2.37,6.17,4.21,4.21,0,0,0,.78,1.38c.37.44.72.84,1,1.19a6.55,6.55,0,0,0,1.55,1.11l1.82,1c.72.37,1.46.7,2.22,1l2.37,1c.59.24,1.51.6,2.77,1.07l2.85,1.08q4.45,1.83,7.45,3.27A48.64,48.64,0,0,1,504,92.65a22.61,22.61,0,0,1,5.15,4.61,20.64,20.64,0,0,1,3.14,5.8,21.49,21.49,0,0,1,1.26,7.5q0,10.77-8.18,17.07T483.75,134Z" transform="translate(0 0)"/>
      <path id="p" class="word cls-1" d="M576.55,53.8a36.76,36.76,0,0,1,33.2,19.82,44.82,44.82,0,0,1,0,40.48A36.93,36.93,0,0,1,576.55,134,34.8,34.8,0,0,1,554,126.16v28.91a5.26,5.26,0,0,1-4.71,5.78h0a8.34,8.34,0,0,1-1,0h-8.81a5.41,5.41,0,0,1-4.11-1.52,6,6,0,0,1-1.44-4.27v-81c0-1.64-.67-2.45-2-2.45a8,8,0,0,0-2.26.48,15.24,15.24,0,0,1-2.11.56c-2,.69-3.5-.42-4.44-3.35L521.75,63q-1.49-4.69,2.14-6.55a20.52,20.52,0,0,1,10.59-2.6,18.18,18.18,0,0,1,10,2.72,13.94,13.94,0,0,1,5.88,8.29A35.17,35.17,0,0,1,576.55,53.8Zm-3,62.46q9.41,0,15.25-6.44a22.8,22.8,0,0,0,5.85-15.94,23,23,0,0,0-5.9-16.06q-5.84-6.48-15.25-6.47a20.13,20.13,0,0,0-15,6q-5.93,6-5.92,16.55t5.92,16.39a20.16,20.16,0,0,0,15,6Z" transform="translate(0 0)"/>
      <path id="a" class="word cls-1" d="M700.18,54.62a5.78,5.78,0,0,1,4.25,1.49A5.66,5.66,0,0,1,706,60.35V126a6,6,0,0,1-1.52,4.35,5.59,5.59,0,0,1-4.25,1.6h-5.56a5.6,5.6,0,0,1-4.25-1.6,6,6,0,0,1-1.52-4.35v-3.49A33.37,33.37,0,0,1,663.24,134q-16.51,0-27.28-11.56T625.19,93.9A42.89,42.89,0,0,1,630,73.6a36.38,36.38,0,0,1,13.54-14.46A38.14,38.14,0,0,1,688.85,64v-3.6a5.66,5.66,0,0,1,1.52-4.24,5.78,5.78,0,0,1,4.25-1.49Zm-33.91,61.64a19.91,19.91,0,0,0,14.81-6.06Q687,104.14,687,93.88q0-10.5-5.92-16.51a19.94,19.94,0,0,0-14.81-6A19.56,19.56,0,0,0,651,77.84a24.81,24.81,0,0,0,0,32q5.85,6.42,15.25,6.42Z" transform="translate(0 0)"/>
      <path id="c" class="word cls-1" d="M762.21,134a42.56,42.56,0,0,1-21-5.24,37.82,37.82,0,0,1-14.66-14.39,40.23,40.23,0,0,1-5.26-20.44q0-17.25,11.63-28.67t29.31-11.41q17.76,0,29.69,11.75,3.54,3.57,0,7.14l-5.33,5.35c-2.28,2.13-4.69,2.08-7.26-.15a23.39,23.39,0,0,0-16.51-6.54,20.4,20.4,0,0,0-15.47,6.39q-6.08,6.39-6.07,16.14t6,16.13q6,6.39,15.58,6.39a24,24,0,0,0,16.51-6.54c2.57-2.38,5-2.43,7.26-.15l5.33,5.36q3.46,3.5,0,7Q780.05,134,762.21,134Z" transform="translate(0 0)"/>
      <path id="e" class="word cls-1" d="M821.58,98.41q.88,9.38,7.48,14.76a24.06,24.06,0,0,0,15.69,5.39A30.54,30.54,0,0,0,864,111.72a7,7,0,0,1,3.75-1.75,5.09,5.09,0,0,1,3.56,1.79l3.62,3.64q3.35,3.34,0,7A35.94,35.94,0,0,1,860.56,131,55.06,55.06,0,0,1,843,134a44.2,44.2,0,0,1-20.73-4.87A37.57,37.57,0,0,1,807.33,115a39.81,39.81,0,0,1-5.58-21.09q0-17.25,11.29-28.67T841.43,53.8A41.48,41.48,0,0,1,857,56.63a35.12,35.12,0,0,1,12.18,7.88A35.65,35.65,0,0,1,877.4,77a40.82,40.82,0,0,1,2.88,15.21q0,3.27-1.44,4.75c-1,1-2.55,1.49-4.77,1.49Zm19.54-29.66a18.81,18.81,0,0,0-13,4.68A19.84,19.84,0,0,0,821.75,86h38.79q-1.18-7.35-5.4-11.59Q849.94,68.76,841.12,68.75Z" transform="translate(0 0)"/>
      <path id="i-dot-yellow" [ngClass]="{'icon word': yPosition < 60}" class="word cls-2" d="M195.82,43.57a12.91,12.91,0,0,1-13-12.82h0v-.27a13,13,0,0,1,21.87-9.58l.33.33a12.67,12.67,0,0,1,3.85,9.25,13.12,13.12,0,0,1-13,13.09Z" transform="translate(0 0)"/>
    </g>
    <g id="notes">
    <g id="orange-note">
      <path class="cls-3" d="M47.42,75.69a11.1,11.1,0,0,0,11.1,11.1h64.6a11.1,11.1,0,0,0,11.09-11.1V11.1A11.1,11.1,0,0,0,123.12,0H58.52a11.1,11.1,0,0,0-11.1,11.1h0Z" transform="translate(0 0)"/>
      <path class="cls-4" d="M133.76,59H96.15V57.22A20.5,20.5,0,0,0,75.69,36.76H47.42V75.69a11.1,11.1,0,0,0,11.1,11.1h64.6a11.1,11.1,0,0,0,11.09-11.1V59Z" transform="translate(0 0)"/>
      <path class="cls-1" d="M92.24,67A11.46,11.46,0,0,1,91.07,67c-4.13-.42-14.71-4-23.6-27.39A2.27,2.27,0,1,1,71.72,38C79.93,59.65,89,62.2,91.54,62.46a5.06,5.06,0,0,0,5.09-2.26c1.55-2.43,1.21-6.13-.89-9.65C90.22,41.3,92.94,34.84,97,32.11a11.5,11.5,0,0,1,9.35-1.36,17.66,17.66,0,0,1,9.47,6.65,2.27,2.27,0,0,1-3.6,2.77c-4.23-5.51-9.68-6.32-12.67-4.3s-3.07,7,.14,12.35c3,5.09,3.34,10.48.83,14.43A9.55,9.55,0,0,1,92.24,67Z" transform="translate(0 0)"/>
      <path class="cls-1" d="M105,22.6H68.15c-2.5,0-4.52-1-4.52-2.27s2-2.27,4.52-2.27H105c2.5,0,4.52,1,4.52,2.27S107.54,22.6,105,22.6Z" transform="translate(0 0)"/>
    </g>
    <g id="red-note">
      <path class="cls-5" d="M0,121.82a11.1,11.1,0,0,0,11.1,11.09H75.69a11.1,11.1,0,0,0,11.1-11.09V57.22a11.1,11.1,0,0,0-11.1-11.1H11.1A11.1,11.1,0,0,0,0,57.22H0Z" transform="translate(0 0)"/>
      <path class="cls-4" d="M69.16,59A20.47,20.47,0,0,0,48.7,79.41v53.5h27a11.1,11.1,0,0,0,11.1-11.09V59Z" transform="translate(0 0)"/>
      <path class="cls-1" d="M40.24,117.15A9.55,9.55,0,0,1,32,112.76c-2.52-4-2.21-9.34.82-14.43C36,93,36.1,88.11,33,86s-8.44-1.21-12.67,4.3a2.27,2.27,0,0,1-3.6-2.77h0a17.69,17.69,0,0,1,9.46-6.65,11.48,11.48,0,0,1,9.36,1.37c4,2.72,6.73,9.18,1.21,18.43-2.1,3.52-2.45,7.23-.9,9.66a5.11,5.11,0,0,0,5.06,2.23c2.57-.26,11.61-2.81,19.82-24.48A2.27,2.27,0,1,1,65,89.68c-8.89,23.44-19.47,27-23.61,27.39a11.27,11.27,0,0,1-1.16.06Z" transform="translate(0 0)"/>
      <path class="cls-1" d="M35.53,69.35H17a2.27,2.27,0,1,1,0-4.54H35.53a2.27,2.27,0,0,1,0,4.54Z" transform="translate(0 0)"/>
    </g>
    <g id="yellow-note">
      <path class="cls-2" d="M69.16,155.1h44.68a31,31,0,0,0,31-31h0V79.41a11.1,11.1,0,0,0-11.08-11.1H69.15a11.1,11.1,0,0,0-11.1,11.1V144a11.1,11.1,0,0,0,11.1,11.1Z" transform="translate(0 0)"/>
      <path class="cls-6" d="M113.84,155.1a31,31,0,0,0,31-31h0V111.7c0,12.66-7,17.15-15.15,17.15a11.11,11.11,0,0,0-11.1,11.1c0,8.14-4.49,15.15-17.14,15.15Z" transform="translate(0 0)"/>
      <g>
        <path class="cls-1" d="M125.47,95.73h-48a2.28,2.28,0,0,1,0-4.55h48a2.28,2.28,0,0,1,0,4.55Z" transform="translate(0 0)"/>
        <path class="cls-1" d="M125.47,116h-48a2.27,2.27,0,0,1,0-4.54h48a2.27,2.27,0,0,1,0,4.54Z" transform="translate(0 0)"/>
      </g>
    </g>
  </g>
</svg>
