<svg id="id8-word" xmlns="http://www.w3.org/2000/svg" width="697.46" height="143.56" viewBox="0 0 697.46 143.56">
  <defs>
    <style>
      .cls-1 {
        fill: #505762;
      }

      .cls-2 {
        fill: #f4b627;
      }
    </style>
  </defs>
  <path id="i" class="cls-1" d="M215.85,595q-9,0-13.92-5t-4.88-14.68V521.9a5.81,5.81,0,0,1,1.51-4.28,5.72,5.72,0,0,1,4.26-1.52h8.81a5.45,5.45,0,0,1,4.18,1.52,6,6,0,0,1,1.45,4.28v52.34c0,1.93.69,2.9,2.07,2.9a8,8,0,0,0,3.18-.75q3.63-1.33,5.18,3.35l1.78,6a6.68,6.68,0,0,1,.33,4,4.47,4.47,0,0,1-2.26,2.27A22.08,22.08,0,0,1,215.85,595Z" transform="translate(-195.07 -478.35)"/>
  <path id="d" class="cls-1" d="M329.55,585.69c1.09,2.92.42,5-2,6.39a22.39,22.39,0,0,1-11.48,2.9,14.87,14.87,0,0,1-15.17-11.9Q290.33,595,274.85,595q-16.52,0-27.28-11.56T236.8,554.91a42.91,42.91,0,0,1,4.81-20.3,36.4,36.4,0,0,1,13.55-14.46,37,37,0,0,1,19.69-5.32,37.52,37.52,0,0,1,22.58,7.51V491.86a5.24,5.24,0,0,1,1.37-3.9,8.63,8.63,0,0,1,4.25-2l8.44-1.49c2-.34,3.48,0,4.52,1a6.32,6.32,0,0,1,1.55,4.61v84.76c0,1.93.67,2.9,2,2.9a7.26,7.26,0,0,0,1.85-.33,12.08,12.08,0,0,1,1.78-.41c2.27-.6,3.85.52,4.74,3.34Zm-51.67-8.4a19.84,19.84,0,0,0,14.81-6.06q5.93-6.06,5.92-16.32,0-10.49-5.92-16.51a19.93,19.93,0,0,0-14.81-6,19.63,19.63,0,0,0-15.25,6.47,24.84,24.84,0,0,0,0,32Q268.48,577.29,277.88,577.29Z" transform="translate(-195.07 -478.35)"/>
  <path id="_8" data-name=" 8" class="cls-1" d="M396.85,537.88a29.62,29.62,0,0,1,13.58,10.3,26.11,26.11,0,0,1,4.92,15.57q0,13.68-11,22.46T376.19,595q-17,0-28.05-8.77t-11-22.46a25.81,25.81,0,0,1,4.92-15.5A29.78,29.78,0,0,1,355.61,538a23.54,23.54,0,0,1-8.58-8.18,21.16,21.16,0,0,1-3.11-11.3,23.47,23.47,0,0,1,9.06-19q9.07-7.39,23.21-7.39t23.21,7.39a23.43,23.43,0,0,1,9.07,19Q408.47,531.78,396.85,537.88Zm-34.09,36.65a21.33,21.33,0,0,0,26.87,0,15.35,15.35,0,0,0,5.37-12,15.93,15.93,0,0,0-5.37-12.31,21,21,0,0,0-26.87,0,15.93,15.93,0,0,0-5.37,12.31A15.35,15.35,0,0,0,362.76,574.53Zm22.94-63.82a14.8,14.8,0,0,0-19,0,11.1,11.1,0,0,0-3.81,8.58,11.71,11.71,0,0,0,3.81,8.92,14.45,14.45,0,0,0,19,0,11.67,11.67,0,0,0,3.82-8.92,11.1,11.1,0,0,0-3.82-8.58Z" transform="translate(-195.07 -478.35)"/>
  <path id="dot-yellow" class="cls-2" d="M440.3,594.83a12.48,12.48,0,0,1-9.18-3.9,12.71,12.71,0,0,1-3.85-9.26,13,13,0,1,1,26.06,0h0a12.81,12.81,0,0,1-3.81,9.26A12.45,12.45,0,0,1,440.3,594.83Z" transform="translate(-195.07 -478.35)"/>
  <path id="s" class="cls-1" d="M496,595a46.64,46.64,0,0,1-17-3.2,34.31,34.31,0,0,1-13-8.4q-4.44-4.23-.29-8.55l2.59-2.9q3.92-4.31,8.44-.44,8.88,7.8,19.1,7.8a13.52,13.52,0,0,0,7.84-2,6.38,6.38,0,0,0,2.26-8.29,9.79,9.79,0,0,0-1.55-2.23,11.64,11.64,0,0,0-2.74-1.94c-1.26-.69-2.27-1.21-3-1.56s-2-.84-3.66-1.48c-.64-.25-1.14-.45-1.48-.6l-5.51-2c-1.33-.47-3-1.16-5.07-2a31.77,31.77,0,0,1-4.88-2.53,46.85,46.85,0,0,1-4-3,15.19,15.19,0,0,1-3.4-3.75,19.86,19.86,0,0,1-2-4.61,19.19,19.19,0,0,1-.82-5.73A20,20,0,0,1,475.61,521q7.84-6.21,20.95-6.21a43.84,43.84,0,0,1,14.4,2.42,30.67,30.67,0,0,1,11.36,6.58,6,6,0,0,1,2.37,3.83c.1,1.26-.59,2.89-2.07,4.87l-2.15,2.75q-3.71,4.23-8.29.74a24.45,24.45,0,0,0-15.62-6,12.3,12.3,0,0,0-7,1.75,5.45,5.45,0,0,0-2.37,6.17,4.11,4.11,0,0,0,.78,1.38c.37.44.72.84,1,1.19a6.28,6.28,0,0,0,1.55,1.11l1.82,1a22.13,22.13,0,0,0,2.22,1l2.37,1c.59.24,1.51.6,2.77,1.07l2.85,1.08Q507,548.57,510,550a48.64,48.64,0,0,1,6.22,3.68,23.07,23.07,0,0,1,5.15,4.61,20.64,20.64,0,0,1,3.14,5.8,21.53,21.53,0,0,1,1.26,7.5q0,10.78-8.18,17.07T496,595Z" transform="translate(-195.07 -478.35)"/>
  <path id="p" class="cls-1" d="M588.8,514.83A36.78,36.78,0,0,1,622,534.65a44.82,44.82,0,0,1,0,40.48A36.91,36.91,0,0,1,588.8,595a34.75,34.75,0,0,1-22.58-7.81V616.1a5.28,5.28,0,0,1-4.72,5.79,6.14,6.14,0,0,1-1,0h-8.81a5.37,5.37,0,0,1-4.11-1.52,6,6,0,0,1-1.44-4.27v-81c0-1.64-.67-2.45-2-2.45a8.37,8.37,0,0,0-2.26.48,14,14,0,0,1-2.11.56c-2,.69-3.5-.42-4.44-3.35L534,524q-1.49-4.69,2.14-6.55a20.62,20.62,0,0,1,10.59-2.6,18.26,18.26,0,0,1,10,2.72,14,14,0,0,1,5.88,8.29A35.2,35.2,0,0,1,588.8,514.83Zm-3,62.46q9.41,0,15.25-6.44a22.77,22.77,0,0,0,5.85-15.94,23,23,0,0,0-5.9-16.06q-5.84-6.48-15.25-6.47a20.16,20.16,0,0,0-15,6q-5.93,6-5.92,16.55t5.92,16.39a20.13,20.13,0,0,0,15,6Z" transform="translate(-195.07 -478.35)"/>
  <path id="a" class="cls-1" d="M712.43,515.65a5.82,5.82,0,0,1,4.25,1.49,5.67,5.67,0,0,1,1.52,4.24V587a6,6,0,0,1-1.52,4.35,5.55,5.55,0,0,1-4.25,1.6h-5.56a5.55,5.55,0,0,1-4.25-1.6A6,6,0,0,1,701.1,587v-3.49A33.33,33.33,0,0,1,675.49,595q-16.51,0-27.28-11.56t-10.77-28.51a42.91,42.91,0,0,1,4.81-20.3,36.45,36.45,0,0,1,13.54-14.46A38.16,38.16,0,0,1,701.1,525V521.4a5.63,5.63,0,0,1,1.52-4.24,5.82,5.82,0,0,1,4.25-1.49Zm-33.91,61.64a19.87,19.87,0,0,0,14.81-6.06q5.91-6.06,5.92-16.32,0-10.49-5.92-16.51a20,20,0,0,0-14.81-6,19.6,19.6,0,0,0-15.25,6.47,24.81,24.81,0,0,0,0,32q5.85,6.42,15.25,6.42Z" transform="translate(-195.07 -478.35)"/>
  <path id="c" class="cls-1" d="M774.46,595a42.43,42.43,0,0,1-21-5.24,37.75,37.75,0,0,1-14.66-14.39,40.2,40.2,0,0,1-5.26-20.44q0-17.25,11.63-28.67t29.31-11.41q17.76,0,29.69,11.75,3.54,3.57,0,7.14l-5.33,5.35c-2.28,2.13-4.69,2.08-7.26-.15a23.44,23.44,0,0,0-16.51-6.54,20.43,20.43,0,0,0-15.47,6.39q-6.08,6.4-6.07,16.14t6,16.13q6,6.39,15.58,6.39a24,24,0,0,0,16.51-6.54c2.57-2.38,5-2.43,7.26-.15l5.33,5.36q3.46,3.5,0,7Q792.3,595,774.46,595Z" transform="translate(-195.07 -478.35)"/>
  <path id="e" class="cls-1" d="M833.83,559.44q.88,9.38,7.48,14.76A24,24,0,0,0,857,579.59a30.48,30.48,0,0,0,19.25-6.84A7.13,7.13,0,0,1,880,571a5.13,5.13,0,0,1,3.56,1.79l3.62,3.64q3.35,3.35,0,7A35.83,35.83,0,0,1,872.81,592a54.83,54.83,0,0,1-17.58,3,44,44,0,0,1-20.73-4.87A37.5,37.5,0,0,1,819.58,576,39.79,39.79,0,0,1,814,554.91q0-17.25,11.29-28.67t28.39-11.41a41.71,41.71,0,0,1,15.58,2.83,35.26,35.26,0,0,1,12.18,7.88A35.74,35.74,0,0,1,889.65,538a40.82,40.82,0,0,1,2.88,15.21q0,3.27-1.44,4.75c-1,1-2.55,1.49-4.77,1.49Zm19.54-29.66a18.84,18.84,0,0,0-13,4.68A19.84,19.84,0,0,0,834,547h38.79q-1.18-7.35-5.4-11.59Q862.19,529.79,853.37,529.78Z" transform="translate(-195.07 -478.35)"/>
  <path id="i-dot-yellow" class="cls-2" d="M208.07,504.6a12.91,12.91,0,0,1-13-12.82v-.27a13,13,0,0,1,21.87-9.58l.33.33a12.73,12.73,0,0,1,3.85,9.25,13.11,13.11,0,0,1-13,13.09Z" transform="translate(-195.07 -478.35)"/>
</svg>
