<svg xmlns="http://www.w3.org/2000/svg" xmlns:xlink="http://www.w3.org/1999/xlink" width="32" height="32" viewBox="0 0 32 32">
  <defs>
    <clipPath id="clip-path">
      <rect width="32" height="32" fill="none"/>
    </clipPath>
  </defs>
  <g id="Icon_-_Search" data-name="Icon - Search" clip-path="url(#clip-path)">
    <rect id="Square" width="32" height="32" fill="none"/>
    <path id="Icon_-_Search-2" [ngClass]="{'white-ico': yPosition < 60}" data-name="Icon - Search" d="M2547.284-1922.511c-2.289-2.54-4.492-5.23-6.919-7.646l.026-.026a13.459,13.459,0,0,0,1.305-15.619,14.026,14.026,0,0,0-15.285-6.526c-6.487,1.4-9.2,6.9-9.253,13.11-.02,5.552,2.749,10.785,8.182,12.73a14.705,14.705,0,0,0,13.462-2.224c2.451,2.432,4.671,5.145,6.979,7.705C2546.7-1919.99,2548.2-1921.5,2547.284-1922.511Zm-19.469-5.526c-5.559-.95-8.55-5.843-8.531-11.182.041-4.352,1.363-8.742,5.746-10.475a12.074,12.074,0,0,1,13.614,3.212c3.119,3.729,3.875,9.333,1.207,13.518C2537.377-1929.081,2532.271-1927.276,2527.815-1928.038Z" transform="translate(-2516.159 1952.669)" fill="inherit"/>
  </g>
</svg>
