<svg id="id8-icon" class="logo-mark" 
      xmlns="http://www.w3.org/2000/svg" width="inherit" height="auto" viewBox="0 0 404.28 160.88">

      <style>

        .cls-1 {
            fill: #505762;
        }

        .cls-2 {
            fill: #f4b627;
        }

        .cls-3 {
            fill: #f16324;
        }

        .cls-4 {
            fill: #808184;
            fill-opacity: 0.4;
        }

        .cls-5 {
            fill: #ee4023;
        }

        .cls-6 {
            fill: #f0d78b;
        }
      </style>

    <g id="word-mark">
      <path id="i" class="icon word cls-1" d="M203.6,134q-9,0-13.92-5t-4.88-14.68V60.87a5.8,5.8,0,0,1,1.51-4.28,5.68,5.68,0,0,1,4.26-1.52h8.81a5.4,5.4,0,0,1,4.18,1.52A6,6,0,0,1,205,60.87v52.34c0,1.93.69,2.9,2.07,2.9a8.14,8.14,0,0,0,3.18-.75q3.63-1.33,5.18,3.35l1.78,6a6.67,6.67,0,0,1,.33,4,4.5,4.5,0,0,1-2.26,2.27A22.17,22.17,0,0,1,203.6,134Z" transform="translate(0 0)"/>
      <path id="d" class="icon word cls-1" d="M317.3,124.66c1.09,2.92.42,5-2,6.39a22.49,22.49,0,0,1-11.48,2.9,14.87,14.87,0,0,1-15.17-11.9Q278.08,134,262.6,134q-16.52,0-27.28-11.56T224.55,93.88a42.89,42.89,0,0,1,4.81-20.3,36.27,36.27,0,0,1,13.55-14.46A36.92,36.92,0,0,1,262.6,53.8a37.45,37.45,0,0,1,22.58,7.51V30.83a5.22,5.22,0,0,1,1.37-3.9,8.63,8.63,0,0,1,4.25-2l8.44-1.49c2-.34,3.48,0,4.52,1a6.3,6.3,0,0,1,1.55,4.61v84.76c0,1.93.67,2.9,2,2.9a7.73,7.73,0,0,0,1.85-.33,10.93,10.93,0,0,1,1.78-.41c2.27-.6,3.85.52,4.74,3.34Zm-51.67-8.4a19.91,19.91,0,0,0,14.81-6.06q5.93-6.06,5.92-16.32,0-10.5-5.92-16.51a19.89,19.89,0,0,0-14.81-6,19.6,19.6,0,0,0-15.25,6.47,24.85,24.85,0,0,0,0,32Q256.23,116.26,265.63,116.26Z" transform="translate(0 0)"/>
      <path id="_8" data-name=" 8" class="icon word cls-1" d="M384.6,76.85a29.55,29.55,0,0,1,13.58,10.3,26.09,26.09,0,0,1,4.92,15.57q0,13.68-11,22.46T363.94,134q-17,0-28.05-8.77t-11-22.46a25.79,25.79,0,0,1,4.92-15.5A29.71,29.71,0,0,1,343.36,77a23.62,23.62,0,0,1-8.58-8.18,21.16,21.16,0,0,1-3.11-11.3,23.45,23.45,0,0,1,9.06-19q9.07-7.39,23.21-7.39t23.21,7.39a23.42,23.42,0,0,1,9.07,19Q396.22,70.75,384.6,76.85ZM350.51,113.5a21.33,21.33,0,0,0,26.87,0,15.36,15.36,0,0,0,5.37-12,15.91,15.91,0,0,0-5.37-12.31,21,21,0,0,0-26.87,0,15.91,15.91,0,0,0-5.37,12.31A15.36,15.36,0,0,0,350.51,113.5Zm22.94-63.82a14.78,14.78,0,0,0-19,0,11.11,11.11,0,0,0-3.81,8.58,11.72,11.72,0,0,0,3.81,8.92,14.47,14.47,0,0,0,19,0,11.68,11.68,0,0,0,3.82-8.92,11.08,11.08,0,0,0-3.82-8.58Z" transform="translate(0 0)"/>
      <path id="i-dot-yellow" class="word cls-1" d="M195.82,43.57a12.91,12.91,0,0,1-13-12.82h0v-.27a13,13,0,0,1,21.87-9.58l.33.33a12.67,12.67,0,0,1,3.85,9.25,13.12,13.12,0,0,1-13,13.09Z" transform="translate(0 0)"/>
    </g>
    <g id="notes">
    <g id="orange-note">
      <path class="cls-3" d="M47.42,75.69a11.1,11.1,0,0,0,11.1,11.1h64.6a11.1,11.1,0,0,0,11.09-11.1V11.1A11.1,11.1,0,0,0,123.12,0H58.52a11.1,11.1,0,0,0-11.1,11.1h0Z" transform="translate(0 0)"/>
      <path class="cls-4" d="M133.76,59H96.15V57.22A20.5,20.5,0,0,0,75.69,36.76H47.42V75.69a11.1,11.1,0,0,0,11.1,11.1h64.6a11.1,11.1,0,0,0,11.09-11.1V59Z" transform="translate(0 0)"/>
      <path class="cls-1" d="M92.24,67A11.46,11.46,0,0,1,91.07,67c-4.13-.42-14.71-4-23.6-27.39A2.27,2.27,0,1,1,71.72,38C79.93,59.65,89,62.2,91.54,62.46a5.06,5.06,0,0,0,5.09-2.26c1.55-2.43,1.21-6.13-.89-9.65C90.22,41.3,92.94,34.84,97,32.11a11.5,11.5,0,0,1,9.35-1.36,17.66,17.66,0,0,1,9.47,6.65,2.27,2.27,0,0,1-3.6,2.77c-4.23-5.51-9.68-6.32-12.67-4.3s-3.07,7,.14,12.35c3,5.09,3.34,10.48.83,14.43A9.55,9.55,0,0,1,92.24,67Z" transform="translate(0 0)"/>
      <path class="cls-1" d="M105,22.6H68.15c-2.5,0-4.52-1-4.52-2.27s2-2.27,4.52-2.27H105c2.5,0,4.52,1,4.52,2.27S107.54,22.6,105,22.6Z" transform="translate(0 0)"/>
    </g>
    <g id="red-note">
      <path class="cls-5" d="M0,121.82a11.1,11.1,0,0,0,11.1,11.09H75.69a11.1,11.1,0,0,0,11.1-11.09V57.22a11.1,11.1,0,0,0-11.1-11.1H11.1A11.1,11.1,0,0,0,0,57.22H0Z" transform="translate(0 0)"/>
      <path class="cls-4" d="M69.16,59A20.47,20.47,0,0,0,48.7,79.41v53.5h27a11.1,11.1,0,0,0,11.1-11.09V59Z" transform="translate(0 0)"/>
      <path class="cls-1" d="M40.24,117.15A9.55,9.55,0,0,1,32,112.76c-2.52-4-2.21-9.34.82-14.43C36,93,36.1,88.11,33,86s-8.44-1.21-12.67,4.3a2.27,2.27,0,0,1-3.6-2.77h0a17.69,17.69,0,0,1,9.46-6.65,11.48,11.48,0,0,1,9.36,1.37c4,2.72,6.73,9.18,1.21,18.43-2.1,3.52-2.45,7.23-.9,9.66a5.11,5.11,0,0,0,5.06,2.23c2.57-.26,11.61-2.81,19.82-24.48A2.27,2.27,0,1,1,65,89.68c-8.89,23.44-19.47,27-23.61,27.39a11.27,11.27,0,0,1-1.16.06Z" transform="translate(0 0)"/>
      <path class="cls-1" d="M35.53,69.35H17a2.27,2.27,0,1,1,0-4.54H35.53a2.27,2.27,0,0,1,0,4.54Z" transform="translate(0 0)"/>
    </g>
    <g id="yellow-note">
      <path class="cls-2" d="M69.16,155.1h44.68a31,31,0,0,0,31-31h0V79.41a11.1,11.1,0,0,0-11.08-11.1H69.15a11.1,11.1,0,0,0-11.1,11.1V144a11.1,11.1,0,0,0,11.1,11.1Z" transform="translate(0 0)"/>
      <path class="cls-6" d="M113.84,155.1a31,31,0,0,0,31-31h0V111.7c0,12.66-7,17.15-15.15,17.15a11.11,11.11,0,0,0-11.1,11.1c0,8.14-4.49,15.15-17.14,15.15Z" transform="translate(0 0)"/>
      <g>
        <path class="cls-1" d="M125.47,95.73h-48a2.28,2.28,0,0,1,0-4.55h48a2.28,2.28,0,0,1,0,4.55Z" transform="translate(0 0)"/>
        <path class="cls-1" d="M125.47,116h-48a2.27,2.27,0,0,1,0-4.54h48a2.27,2.27,0,0,1,0,4.54Z" transform="translate(0 0)"/>
      </g>
    </g>
  </g>
</svg>
