<?xml version="1.0" standalone="no"?>
<!DOCTYPE svg PUBLIC "-//W3C//DTD SVG 1.1//EN" "http://www.w3.org/Graphics/SVG/1.1/DTD/svg11.dtd" >
<svg xmlns="http://www.w3.org/2000/svg" xmlns:xlink="http://www.w3.org/1999/xlink" version="1.1">
<metadata>
Created by FontForge 20170731 at Wed Aug  4 11:20:09 2021
 By Aleksey,,,
copyright missing
</metadata>
<defs>
<font id="AlmaSans-Bold" horiz-adv-x="1433" >
  <font-face 
    font-family="Alma Sans Bold"
    font-weight="700"
    font-stretch="normal"
    units-per-em="2048"
    panose-1="0 0 8 0 0 0 0 0 0 0"
    ascent="1638"
    descent="-410"
    x-height="1023"
    cap-height="1435"
    bbox="-1405.67 -1057 2167 2095.76"
    underline-thickness="102"
    underline-position="-307"
    unicode-range="U+0020-25CA"
  />
<missing-glyph 
d="M1196 -152h-985q-76 0 -127 51t-51 128v1413q0 76 49.5 126t126.5 50l987 2q76 0 127 -51t51 -127v-1413q0 -77 -51 -128t-127 -51zM246 -10h913q31 0 52.5 21t21.5 52v1340q0 31 -21.5 52.5t-52.5 21.5l-913 -2q-31 0 -52.5 -21.5t-21.5 -52.5v-1338q0 -31 21.5 -52
t52.5 -21zM588 537q-13 111 39 172t170 106q63 25 94.5 70.5t13.5 107.5q-13 50 -71.5 74t-141.5 16q-59 -4 -116.5 -26t-81.5 -64q-16 -28 -40 -40t-46 -7t-41.5 19t-26 37t1.5 47q30 83 126.5 133.5t207.5 60.5q157 13 261 -51t128 -184q10 -54 -2 -104.5t-39.5 -88
t-61 -65.5t-69.5 -43q-40 -17 -64 -29t-48.5 -31t-34.5 -43t-7 -55q3 -28 -11 -46.5t-36 -22.5t-44.5 -0.5t-40 19.5t-19.5 38zM682 205q-45 0 -74.5 27t-29.5 69q0 43 29.5 68.5t74.5 25.5q44 0 75 -25.5t31 -68.5q0 -42 -31 -69t-75 -27z" />
    <glyph glyph-name=".notdef" 
d="M1196 -152h-985q-76 0 -127 51t-51 128v1413q0 76 49.5 126t126.5 50l987 2q76 0 127 -51t51 -127v-1413q0 -77 -51 -128t-127 -51zM246 -10h913q31 0 52.5 21t21.5 52v1340q0 31 -21.5 52.5t-52.5 21.5l-913 -2q-31 0 -52.5 -21.5t-21.5 -52.5v-1338q0 -31 21.5 -52
t52.5 -21zM588 537q-13 111 39 172t170 106q63 25 94.5 70.5t13.5 107.5q-13 50 -71.5 74t-141.5 16q-59 -4 -116.5 -26t-81.5 -64q-16 -28 -40 -40t-46 -7t-41.5 19t-26 37t1.5 47q30 83 126.5 133.5t207.5 60.5q157 13 261 -51t128 -184q10 -54 -2 -104.5t-39.5 -88
t-61 -65.5t-69.5 -43q-40 -17 -64 -29t-48.5 -31t-34.5 -43t-7 -55q3 -28 -11 -46.5t-36 -22.5t-44.5 -0.5t-40 19.5t-19.5 38zM682 205q-45 0 -74.5 27t-29.5 69q0 43 29.5 68.5t74.5 25.5q44 0 75 -25.5t31 -68.5q0 -42 -31 -69t-75 -27z" />
    <glyph glyph-name=".null" horiz-adv-x="0" 
 />
    <glyph glyph-name="nonmarkingreturn" horiz-adv-x="682" 
 />
    <glyph glyph-name="space" unicode=" " horiz-adv-x="612" 
 />
    <glyph glyph-name="exclam" unicode="!" horiz-adv-x="696" 
d="M295 487l-74 830q-8 94 58 133.5t133 0t59 -133.5l-68 -830q-3 -35 -28.5 -49.5t-51 0t-28.5 49.5zM352 -12q-61 0 -101 35.5t-40 93.5q0 59 39.5 93t101.5 34q59 0 100.5 -34.5t41.5 -92.5q0 -57 -41.5 -93t-100.5 -36z" />
    <glyph glyph-name="quotedbl" unicode="&#x22;" horiz-adv-x="688" 
d="M80 1118l-19 297q-3 51 51 72.5t107.5 0t50.5 -72.5l-18 -295q-2 -35 -28.5 -54.5t-57.5 -20t-57.5 19t-28.5 53.5zM436 1118l-18 297q-3 51 50.5 72.5t107.5 0t51 -72.5l-19 -295q-2 -35 -28.5 -54.5t-57.5 -20t-57.5 19t-28.5 53.5z" />
    <glyph glyph-name="numbersign" unicode="#" 
d="M985 348l-55 -260q-9 -41 -37 -64t-61 -22.5t-63.5 14t-47 46.5t-8.5 73l43 213h-207l-55 -258q-9 -41 -37 -64t-61.5 -23t-64 13.5t-47 46.5t-8.5 74l43 211h-88q-42 0 -70.5 23t-35 56t0.5 65.5t35.5 55.5t69.5 23h138l61 289h-121q-42 0 -70.5 23t-35 56t0.5 65.5
t35.5 55.5t69.5 23h168l58 263q9 41 37.5 64t62 22t64.5 -14.5t47.5 -46t7.5 -73.5l-47 -215h206l58 260q9 41 37.5 64t62 22.5t64.5 -14t47.5 -46t7.5 -73.5l-47 -213h90q41 0 69.5 -23t35.5 -55.5t0.5 -65.5t-35 -56t-70.5 -23h-139l-62 -289h123q52 0 82 -35t30.5 -76.5
t-29.5 -76.5t-83 -35h-170zM657 860l-61 -289h209l61 289h-209z" />
    <glyph glyph-name="dollar" unicode="$" horiz-adv-x="1243" 
d="M1120 414q0 -165 -114 -271.5t-295 -140.5v-152q0 -52 -36 -82t-79 -30.5t-79 29.5t-36 83v144q-96 11 -175.5 43t-144.5 98.5t-87 159.5q-9 35 5.5 67t42.5 48.5t59.5 20.5t59.5 -17t40 -64q32 -113 200 -133v459q-69 15 -121 34t-99.5 49.5t-78 71t-48 99t-17.5 133.5
q0 150 96.5 249t267.5 124v141q0 54 36 84.5t79 30.5t79 -30.5t36 -84.5v-143q113 -20 199.5 -75.5t127.5 -146.5q10 -23 10 -46.5t-11.5 -43t-27.5 -35.5t-39 -22.5t-45.5 -5t-46 16.5t-42.5 42q-43 63 -125 86v-348q101 -24 171.5 -55t126.5 -81.5t83.5 -126t27.5 -179.5z
M340 1063q0 -64 33.5 -100t107.5 -58v305q-141 -29 -141 -147zM711 629v-398q83 22 134.5 68t51.5 115q0 95 -38.5 140.5t-147.5 74.5z" />
    <glyph glyph-name="percent" unicode="%" 
d="M1225 1280l-863 -1241q-17 -24 -40.5 -34t-46.5 -6t-43 17.5t-31.5 33.5t-11 46t17.5 51l862 1242q21 29 51.5 37.5t56 -3t46 -32.5t21 -51.5t-18.5 -59.5zM344 909q-119 0 -190.5 74.5t-71.5 187.5q0 116 73.5 189.5t188.5 73.5q117 0 188.5 -73t71.5 -190
q0 -116 -72.5 -189t-187.5 -73zM344 1077q92 0 92 94q0 51 -23 72t-69 21q-48 0 -71 -22t-23 -71q0 -94 94 -94zM1092 0q-119 0 -191 74.5t-72 187.5q0 115 73.5 188.5t189.5 73.5q117 0 188.5 -72.5t71.5 -189.5q0 -116 -72.5 -189t-187.5 -73zM1092 168q92 0 92 94
q0 51 -23 71.5t-69 20.5q-48 0 -71.5 -21.5t-23.5 -70.5q0 -94 95 -94z" />
    <glyph glyph-name="ampersand" unicode="&#x26;" 
d="M1122 29v2l-133 133q-99 -80 -209 -124.5t-214.5 -49.5t-199 38.5t-157.5 133.5q-56 81 -69 164t15 161t86 151t146 140q-84 105 -124 179t-40 161q0 144 100.5 235t254.5 91q160 0 258 -91t98 -239q0 -193 -242 -366q13 -15 287 -289q34 58 49.5 102.5t19 70.5t5.5 87
q2 40 23 65t50 29.5t58 -2.5t49 -32t20 -60q0 -11 -1 -27.5t-7.5 -64t-19 -93.5t-39 -108t-62.5 -115l142 -141q19 -19 26 -41.5t2 -42.5t-17 -39t-31 -30.5t-39 -16t-43 2.5t-42 26zM553 895q180 122 180 219q0 65 -41 97t-114 32q-74 0 -114 -32.5t-40 -92.5q0 -41 30 -93
t99 -130zM375 276q45 -70 130 -82t173 20t168 93l-322 324q-63 -47 -103.5 -89t-63 -86t-18 -88.5t35.5 -91.5z" />
    <glyph glyph-name="quotesingle" unicode="'" horiz-adv-x="331" 
d="M80 1116l-19 297q-3 51 51 72.5t107.5 0t50.5 -72.5l-18 -295q-2 -35 -28.5 -54.5t-57.5 -20t-57.5 19t-28.5 53.5z" />
    <glyph glyph-name="parenleft" unicode="(" horiz-adv-x="751" 
d="M330 -281q-91 182 -149 437t-58 473q0 497 203 903q19 38 53.5 54t67 7.5t60.5 -30t34.5 -57t-11.5 -74.5q-3 -8 -24 -56.5t-37 -88.5t-39.5 -116.5t-39 -150.5t-27 -178.5t-11.5 -212.5q0 -123 19.5 -252.5t43.5 -219t55.5 -176t44 -115.5t20.5 -44q17 -35 12.5 -63.5
t-21 -52.5t-43.5 -36t-54.5 -13.5t-55 14.5t-43.5 48z" />
    <glyph glyph-name="parenright" unicode=")" horiz-adv-x="751" 
d="M422 -281q-16 -32 -43.5 -48t-55 -14.5t-54.5 13.5t-43.5 36t-21 52.5t12.5 63.5q7 15 20 44t44 115t55 176t43.5 219.5t19.5 252.5q0 108 -11.5 212.5t-27 178.5t-39 150.5t-39.5 116.5t-37 88.5t-24 56.5q-13 28 -13.5 54.5t12.5 47t32 36.5t43.5 21.5t48 3t46 -18.5
t36.5 -44q203 -406 203 -903q0 -218 -58 -473t-149 -437z" />
    <glyph glyph-name="asterisk" unicode="*" 
d="M543 713q-34 0 -58 16q-36 25 -44 66.5t16 78.5l94 140l-164 45q-41 10 -63 48t-11 79q12 41 50 63t79 11l170 -48v179q0 43 31 73.5t74 30.5t73.5 -30.5t30.5 -73.5v-177l170 48q41 12 79 -9.5t50 -62.5q11 -42 -9.5 -79.5t-61.5 -49.5l-162 -45l96 -137
q25 -35 16.5 -77t-43.5 -67q-26 -20 -59 -20q-48 0 -84 45q-52 68 -94 201q-40 -126 -88 -203q-26 -45 -88 -45z" />
    <glyph glyph-name="plus" unicode="+" 
d="M612 365v210h-211q-49 0 -76.5 32.5t-27.5 72t27.5 72t76.5 32.5h211v211q0 49 32.5 76.5t72 27.5t72 -27.5t32.5 -76.5v-211h211q49 0 76.5 -32.5t27.5 -72t-27.5 -72t-76.5 -32.5h-211v-210q0 -49 -32.5 -76.5t-72 -27.5t-72 27.5t-32.5 76.5z" />
    <glyph glyph-name="comma" unicode="," horiz-adv-x="837" 
d="M414 188q27 -40 36.5 -91.5t-2 -102.5t-40.5 -94t-85 -70t-130 -27q-29 0 -44.5 28.5t-6 57.5t41.5 31q120 8 138 74q-24 -4 -41 -4q-64 0 -106 37t-42 98q0 62 41.5 97.5t106.5 35.5q43 0 79 -18.5t54 -51.5z" />
    <glyph glyph-name="hyphen" unicode="-" horiz-adv-x="890" 
d="M651 571h-411q-51 0 -79.5 34t-28.5 74.5t28.5 74.5t79.5 34h411q51 0 79.5 -34t28.5 -74.5t-28.5 -74.5t-79.5 -34z" />
    <glyph glyph-name="period" unicode="." horiz-adv-x="905" 
d="M348 -10q-64 0 -105.5 37t-41.5 98q0 62 41 97.5t106 35.5q62 0 105 -36t43 -97q0 -60 -43 -97.5t-105 -37.5z" />
    <glyph glyph-name="slash" unicode="/" 
d="M1212 1384l-987 -1534q-23 -36 -60.5 -49t-71 -2t-61.5 34.5t-32.5 59.5t16.5 74l988 1534q24 36 61.5 49t71 2t61 -34.5t31.5 -59.5t-17 -74z" />
    <glyph glyph-name="zero" unicode="0" horiz-adv-x="1394" 
d="M698 -10q-120 0 -217 36.5t-163 101t-110.5 156.5t-64.5 199.5t-20 233.5q0 125 20.5 232.5t65.5 199.5t111 157t162.5 101.5t215.5 36.5q121 0 218 -37.5t162.5 -103t109.5 -158t64 -199t20 -229.5q0 -158 -34.5 -288.5t-103 -229.5t-180 -154t-256.5 -55zM410 367
l391 837q-52 10 -103 10q-85 0 -148.5 -26t-102 -69t-61.5 -109t-31.5 -135t-8.5 -158q0 -235 64 -350zM698 219q85 0 148 26t101.5 69t61.5 109t31.5 135.5t8.5 158.5q0 235 -64 350l-391 -838q52 -10 104 -10z" />
    <glyph glyph-name="one" unicode="1" horiz-adv-x="876" 
d="M408 115v1024l-111 -95q-50 -43 -107.5 -10.5t-65 91t47.5 104.5l281 186q57 34 117.5 3t60.5 -95v-1208q0 -55 -35 -85.5t-76.5 -30.5t-76.5 31t-35 85z" />
    <glyph glyph-name="two" unicode="2" horiz-adv-x="1310" 
d="M1077 2l-844 -2q-45 1 -77.5 34.5t-32.5 78.5q0 126 35 228t105.5 182.5t163 142.5t220.5 120q142 66 173 85q97 58 110 132q2 14 2 29q0 100 -75.5 144.5t-201.5 44.5q-225 0 -266 -115q-13 -37 -42.5 -57t-62 -20t-62.5 12t-47 39t-11 61q10 54 48 107t97.5 97
t147 71.5t186.5 27.5q101 0 192 -26.5t163 -76.5t114.5 -130t42.5 -179q0 -70 -22.5 -127t-51 -95t-93 -79t-110 -63.5t-139.5 -65.5q-78 -36 -131.5 -68.5t-106.5 -79t-88.5 -109t-54.5 -142.5l717 22q42 0 71 -23t36.5 -55.5t1 -65.5t-35 -56t-71.5 -23z" />
    <glyph glyph-name="three" unicode="3" horiz-adv-x="1308" 
d="M592 -10q-256 0 -420 112q-56 38 -47 102t60.5 89.5t115.5 -8.5q103 -72 291 -72q159 0 265 54t106 161q0 100 -99.5 157.5t-271.5 57.5q-42 0 -70.5 23t-35 55.5t0.5 65.5t35.5 56t69.5 23q136 0 225.5 45.5t89.5 130.5q0 59 -44 101t-104 60t-126 18q-56 0 -99.5 -8.5
t-69.5 -19t-71 -32.5q-38 -17 -74.5 -14.5t-61 25.5t-36.5 51t-1 61.5t46 58.5q145 101 367 101q132 0 243 -45t182.5 -138.5t71.5 -218.5q0 -83 -48 -161.5t-126 -116.5q106 -38 168 -134.5t62 -201.5q0 -107 -47.5 -191.5t-130 -137.5t-188.5 -81t-228 -28z" />
    <glyph glyph-name="four" unicode="4" horiz-adv-x="1294" 
d="M807 115v137q-95 0 -284.5 1t-284.5 1q-45 0 -78 30.5t-36.5 70.5t21.5 79l684 952q30 42 80 47t88.5 -27.5t38.5 -86.5v-838h25q43 0 72 -23.5t35.5 -57.5t-0.5 -67.5t-36.5 -57t-72.5 -23.5h-23v-137q0 -43 -23.5 -72.5t-57 -36.5t-67.5 0t-57.5 36.5t-23.5 72.5z
M461 481h346v484q-58 -81 -173.5 -242t-172.5 -242z" />
    <glyph glyph-name="five" unicode="5" horiz-adv-x="1306" 
d="M590 -10q-265 0 -426 131q-23 19 -34 43.5t-8 47t13.5 44.5t29.5 37t41 22.5t48.5 2t50.5 -24.5q104 -80 285 -80q173 0 272 69.5t99 192.5q0 129 -85 195.5t-245 66.5q-190 0 -285 -80q-28 -24 -63 -25t-62.5 16t-43 49t-9.5 69l106 577q8 38 39.5 64.5t71.5 26.5h578
q53 0 83 -35t29.5 -77t-30.5 -77t-82 -35h-486l-51 -274q98 25 205 25q252 0 402.5 -130t150.5 -356q0 -149 -78 -260t-211.5 -168t-304.5 -57z" />
    <glyph glyph-name="six" unicode="6" horiz-adv-x="1366" 
d="M705 -10q-143 0 -255 54.5t-183 153t-107.5 231t-36.5 292.5q0 204 69 367t203 259.5t312 96.5q342 0 471 -230q20 -39 15 -71t-30.5 -53t-56 -31.5t-61.5 -5t-46 25.5q-66 87 -137 121.5t-155 34.5q-141 0 -242.5 -117t-112.5 -274q123 131 353 131q152 0 274 -58
t193 -165t71 -244q0 -233 -148 -375.5t-390 -142.5zM705 213q149 0 233 79.5t84 215.5q0 112 -92.5 178t-224.5 66q-203 0 -353 -150q28 -193 108 -291t245 -98z" />
    <glyph glyph-name="seven" unicode="7" horiz-adv-x="1245" 
d="M1169 1266l-694 -1211q-15 -26 -37.5 -40t-46 -15t-46.5 6t-40.5 23.5t-28.5 37t-9.5 47t16.5 52.5l598 1044h-648q-41 0 -69.5 23t-35.5 56t-0.5 66t35 56t70.5 23h838q62 0 96 -56t2 -112z" />
    <glyph glyph-name="eight" unicode="8" horiz-adv-x="1325" 
d="M662 -10q-156 0 -277.5 54t-191.5 157.5t-70 242.5q0 114 51 210.5t139 150.5q-102 105 -102 256q0 174 127.5 278.5t323.5 104.5q198 0 325 -105.5t127 -277.5q0 -151 -102 -256q87 -54 138.5 -152.5t51.5 -208.5q0 -139 -71.5 -243t-193.5 -157.5t-275 -53.5zM662 872
q101 0 165 44.5t64 132.5q0 85 -64 128.5t-165 43.5q-102 0 -165 -44.5t-63 -127.5q0 -88 64 -132.5t164 -44.5zM662 213q142 0 229.5 62.5t87.5 179.5q0 114 -84 177.5t-233 63.5q-148 0 -232 -63.5t-84 -177.5q0 -63 25 -111t69.5 -76t100 -41.5t121.5 -13.5z" />
    <glyph glyph-name="nine" unicode="9" horiz-adv-x="1325" 
d="M659 -10q-163 0 -302 75.5t-207 196.5q-35 62 2 111t96 46t102 -57q44 -71 126 -110t183 -39q141 0 243 117t110 272q-76 -80 -162 -111.5t-188 -31.5q-152 0 -274.5 58t-193.5 165t-71 244q0 233 148.5 375.5t390.5 142.5q143 0 248.5 -54t168.5 -154t93 -230t30 -293
q0 -154 -34 -284.5t-100 -229t-171 -154t-238 -55.5zM662 682q96 0 190.5 44t138.5 105q0 53 -11.5 106.5t-37.5 105t-63.5 91t-93.5 63.5t-123 24q-149 0 -233.5 -79.5t-84.5 -215.5q0 -112 93 -178t225 -66z" />
    <glyph glyph-name="colon" unicode=":" horiz-adv-x="704" 
d="M356 731q-64 0 -105.5 37t-41.5 98q0 62 41 97.5t106 35.5q62 0 105 -36t43 -97q0 -60 -43 -97.5t-105 -37.5zM356 0q-64 0 -105.5 37t-41.5 98q0 62 41 97.5t106 35.5q62 0 105 -36t43 -97q0 -60 -43 -97.5t-105 -37.5z" />
    <glyph glyph-name="semicolon" unicode=";" horiz-adv-x="731" 
d="M365 723q-64 0 -106 37t-42 98q0 62 41.5 97.5t106.5 35.5q62 0 104.5 -36t42.5 -97q0 -60 -42.5 -97.5t-104.5 -37.5zM485 188q27 -40 36.5 -91.5t-2 -102.5t-40.5 -94t-85 -70t-130 -27q-29 0 -44 28.5t-5.5 57.5t41.5 31q119 8 137 74q-24 -4 -41 -4q-64 0 -105.5 37
t-41.5 98q0 62 41 97.5t106 35.5q43 0 79 -18.5t54 -51.5z" />
    <glyph glyph-name="less" unicode="&#x3c;" 
d="M983 244l-629 307q-37 18 -50 56.5t1 76.5t49 55l629 308q32 15 58 10.5t48 -19.5t32.5 -40t11.5 -50t-14 -50t-44 -40l-440 -213l440 -215q34 -17 48.5 -48t7.5 -61t-26 -56t-51.5 -32t-70.5 11z" />
    <glyph glyph-name="equal" unicode="=" 
d="M1016 641h-725q-45 0 -71 31t-26 67.5t25.5 67.5t71.5 31h725q46 0 71.5 -31t25.5 -67.5t-26 -67.5t-71 -31zM1016 246h-725q-45 0 -71 30.5t-26 67.5t25.5 67.5t71.5 30.5h725q46 0 71.5 -30.5t25.5 -67.5t-26 -67.5t-71 -30.5z" />
    <glyph glyph-name="greater" unicode="&#x3e;" 
d="M1077 551l-628 -307q-27 -12 -52 -12.5t-43.5 11.5t-32.5 29.5t-19 40t-2.5 44t17 41.5t39.5 32l441 215l-441 213q-29 15 -44 40t-13.5 50t12 50t32.5 40t48 19.5t58 -10.5l628 -308q35 -17 49 -55t1 -76.5t-50 -56.5z" />
    <glyph glyph-name="question" unicode="?" horiz-adv-x="1290" 
d="M483 459q-9 80 6 141.5t56.5 106.5t95.5 77.5t135 63.5q89 35 133 98.5t21 151.5q-20 71 -102 105.5t-199 23.5q-84 -7 -165 -38.5t-114 -88.5q-16 -29 -38.5 -46t-45 -20.5t-46 1t-41 19t-31 32.5t-15.5 42t6 48q28 80 106 141t170.5 92t192.5 41q219 20 365.5 -71.5
t179.5 -260.5q15 -75 -2 -146t-56 -124t-86.5 -92t-97.5 -60q-38 -16 -61.5 -26.5t-53 -27t-46 -32t-31.5 -36t-20.5 -45t-2.5 -54.5q4 -39 -15.5 -65t-50.5 -32t-63 -1t-56.5 27.5t-27.5 54.5zM616 -8q-64 0 -105.5 37t-41.5 98q0 62 41 97.5t106 35.5q62 0 105 -36t43 -97
q0 -60 -43 -97.5t-105 -37.5z" />
    <glyph glyph-name="at" unicode="@" horiz-adv-x="1675" 
d="M838 -252q-170 0 -305.5 69t-222 188t-132 275.5t-45.5 335.5q0 248 81.5 442.5t243 309.5t380.5 115q167 0 301.5 -67t222 -184t134 -274.5t46.5 -341.5q0 -56 -2 -104t-9 -105.5t-19 -103.5t-33 -91t-49 -75t-69.5 -48.5t-92.5 -18.5q-91 0 -154 41.5t-110 119.5
q-76 -45 -166 -45q-158 0 -250 116.5t-92 293.5q0 178 94 293t248 115q105 0 204 -89q17 23 37 37q24 20 55.5 11t53 -35t31 -58.5t-12.5 -60.5q-28 -28 -28 -125l2 -266q0 -46 23 -84.5t65 -42.5q25 37 37.5 110t13 107t0.5 108q0 97 -15.5 187t-51.5 174.5t-90.5 147
t-137.5 100t-186 37.5q-121 0 -215.5 -52t-151.5 -142t-86 -204.5t-29 -247.5q0 -108 18 -203t56 -176.5t94 -140.5t136 -92t178 -33q90 0 163 27q38 13 72.5 3.5t52.5 -38.5t23.5 -61.5t-12.5 -64.5t-58 -48q-115 -41 -241 -41zM838 410q57 0 87.5 49t30.5 137
q0 79 -28.5 131.5t-89.5 52.5q-63 0 -91 -53t-28 -131q0 -81 28 -133.5t91 -52.5z" />
    <glyph glyph-name="A" unicode="A" horiz-adv-x="1312" 
d="M377 313l-88 -237q-28 -74 -93.5 -83t-108.5 39.5t-17 114.5l481 1217q10 28 31.5 46.5t47.5 23.5t52 0t47.5 -23.5t30.5 -46.5l483 -1219q26 -66 -17.5 -112t-108 -39t-89.5 72l-94 247h-557zM655 1090l-213 -547h428z" />
    <glyph glyph-name="B" unicode="B" horiz-adv-x="1198" 
d="M768 0h-520q-47 0 -81 34t-34 81v1204q0 47 34 81t81 34h422q75 0 139.5 -21t109 -57.5t78.5 -83.5t49 -101t19 -109t-10 -107.5t-39 -96.5t-67.5 -76.5t-96.5 -46.5v-8q126 -11 201.5 -90t81 -183.5t-28 -208t-126 -174.5t-212.5 -71zM362 1204v-383h308q49 0 88 21
t60.5 55t32 74.5t2 81.5t-28.5 75t-60.5 55t-93.5 21h-308zM362 614v-385h386q100 0 142 80q38 72 8 157q-32 92 -124 129q-47 19 -104 19h-308z" />
    <glyph glyph-name="C" unicode="C" horiz-adv-x="1185" 
d="M655 -10q-186 0 -322.5 98t-204 260.5t-67.5 368.5q0 155 40.5 287.5t115.5 230.5t187.5 153.5t250.5 55.5q135 0 249.5 -55t193.5 -160q24 -36 24 -71.5t-23 -61t-53 -39t-65 -4.5t-59 41q-100 127 -267 127q-94 0 -167 -40.5t-116 -111t-65 -159.5t-22 -193
q0 -107 22 -197t66 -159.5t116 -108.5t166 -39q173 0 267 129q25 33 61 42t66 -4.5t53.5 -39t23 -61.5t-25.5 -70q-78 -105 -194.5 -162t-250.5 -57z" />
    <glyph glyph-name="D" unicode="D" horiz-adv-x="1390" 
d="M244 1434h420q148 0 262 -52t186 -147t108.5 -225.5t36.5 -292.5q0 -332 -153 -524.5t-440 -192.5h-420q-46 0 -78.5 32.5t-32.5 78.5v1212q0 46 32.5 78.5t78.5 32.5zM356 223h308q370 0 370 494q0 242 -87.5 367.5t-282.5 125.5h-308v-987z" />
    <glyph glyph-name="E" unicode="E" horiz-adv-x="1290" 
d="M1042 0h-778q-54 0 -92.5 37.5t-38.5 91.5v1176q0 54 38.5 91.5t92.5 37.5h778q47 0 81 -34t34 -81t-34 -81t-81 -34h-680v-332h482q54 0 84.5 -35t30.5 -76.5t-30.5 -76.5t-84.5 -35h-482v-420h680q47 0 81 -33.5t34 -80.5t-34 -81t-81 -34z" />
    <glyph glyph-name="F" unicode="F" horiz-adv-x="1218" 
d="M248 0q-47 0 -81 34t-34 81v1190q0 54 38.5 91.5t92.5 37.5h778q47 0 81 -34t34 -81t-34 -81t-81 -34h-680v-393h482q47 0 80.5 -34t33.5 -81t-33.5 -80.5t-80.5 -33.5h-482v-467q0 -47 -33.5 -81t-80.5 -34z" />
    <glyph glyph-name="G" unicode="G" horiz-adv-x="1355" 
d="M711 -10q-201 0 -350 95t-224.5 258.5t-75.5 373.5t77.5 374t226.5 258.5t348 94.5q301 0 481 -211q19 -22 25 -47.5t-1 -46.5t-21 -40t-35 -29.5t-43.5 -14t-46 6t-42.5 30.5q-114 135 -317 135q-208 0 -321 -140t-113 -370q0 -149 46 -262t145 -180.5t241 -67.5
q179 0 290 108v293h-358q-51 0 -80 34t-28.5 74.5t29.5 74.5t79 34h467q44 0 76.5 -32.5t32.5 -77.5v-443q0 -39 -27 -69q-179 -213 -481 -213z" />
    <glyph glyph-name="H" unicode="H" horiz-adv-x="1290" 
d="M133 115v1204q0 54 36 84.5t78.5 30.5t78.5 -30.5t36 -84.5v-488h566v488q0 54 36 84.5t78.5 30.5t78.5 -30.5t36 -84.5v-1204q0 -54 -36 -84.5t-78.5 -30.5t-78.5 30.5t-36 84.5v487h-566v-487q0 -54 -36 -84.5t-78.5 -30.5t-78.5 30.5t-36 84.5z" />
    <glyph glyph-name="I" unicode="I" horiz-adv-x="638" 
d="M205 115v1204q0 55 36 85.5t78.5 30.5t78.5 -31t36 -85v-1204q0 -55 -36 -85.5t-78.5 -30.5t-78.5 31t-36 85z" />
    <glyph glyph-name="J" unicode="J" horiz-adv-x="1263" 
d="M600 -10q-148 0 -269 69t-188 184t-67 249q0 46 21.5 76t52.5 37.5t62.5 1t54 -34t24.5 -66.5q5 -125 88.5 -210.5t220.5 -82.5q77 2 130.5 14t95.5 41.5t62.5 83t20.5 133.5l-2 838q0 41 23 69.5t55.5 35.5t64.5 0.5t55 -35t23 -70.5l2 -838q0 -249 -139.5 -372
t-390.5 -123z" />
    <glyph glyph-name="K" unicode="K" horiz-adv-x="1294" 
d="M958 45l-444 619l-152 -148v-401q0 -54 -36 -84.5t-78.5 -30.5t-78.5 30.5t-36 84.5v1204q0 54 36 84.5t78.5 30.5t78.5 -30.5t36 -84.5v-512l613 594q31 30 68 32.5t64 -17.5t44.5 -49.5t12 -67t-35.5 -66.5l-446 -428l457 -623q25 -37 24.5 -73.5t-24.5 -62.5
t-54.5 -39.5t-66.5 -4t-60 42.5z" />
    <glyph glyph-name="L" unicode="L" horiz-adv-x="1126" 
d="M942 0h-694q-47 0 -81 34t-34 81v1204q0 54 36 84.5t78.5 30.5t78.5 -30.5t36 -84.5v-1090h580q54 0 84.5 -36t30.5 -78.5t-30.5 -78.5t-84.5 -36z" />
    <glyph glyph-name="M" unicode="M" horiz-adv-x="1495" 
d="M748 774l403 606q29 44 80 51t91 -25t40 -87v-1204q0 -54 -36 -84.5t-78.5 -30.5t-78.5 30.5t-36 84.5v846l-289 -453q-35 -54 -94.5 -54.5t-94.5 54.5l-293 453v-846q0 -54 -36 -84.5t-78.5 -30.5t-78.5 30.5t-36 84.5v1204q0 55 38.5 88t89.5 26.5t83 -53.5z" />
    <glyph glyph-name="N" unicode="N" horiz-adv-x="1290" 
d="M954 43l-592 887v-815q0 -54 -36 -84.5t-78.5 -30.5t-78.5 30.5t-36 84.5v1204q0 51 38 85t87.5 31.5t77.5 -44.5l592 -887v815q0 54 36 84.5t78.5 30.5t78.5 -30.5t36 -84.5v-1204q0 -51 -38 -85t-87.5 -31.5t-77.5 44.5z" />
    <glyph glyph-name="O" unicode="O" horiz-adv-x="1415" 
d="M709 -12q-143 0 -260 56t-195 154t-120 230.5t-42 286.5q0 205 73 369t214.5 261t329.5 97q143 0 260.5 -57.5t194 -156.5t118 -231t41.5 -282q0 -207 -74 -371.5t-214.5 -260t-325.5 -95.5zM709 217q79 0 144 25.5t110.5 70.5t76.5 107.5t45.5 136.5t14.5 158
q0 224 -99 360.5t-292 136.5q-99 0 -176 -39t-123.5 -107.5t-70.5 -157t-24 -193.5q0 -146 41 -256t131.5 -176t221.5 -66z" />
    <glyph glyph-name="P" unicode="P" horiz-adv-x="1257" 
d="M133 111v1210q0 49 34.5 81t76.5 32h358q274 0 434 -117t160 -344q0 -115 -44 -203.5t-123.5 -144.5t-187.5 -84.5t-239 -28.5h-246v-401q0 -42 -23 -70.5t-55.5 -35t-65.5 0.5t-56 35.5t-23 69.5zM356 1210v-475h246q371 0 371 238q0 237 -371 237h-246z" />
    <glyph glyph-name="Q" unicode="Q" horiz-adv-x="1472" 
d="M1206 -41q30 26 64.5 27t59 -19t39.5 -48t8.5 -62.5t-36.5 -59.5q-74 -61 -174 -61q-252 0 -331 254q-63 -13 -127 -13q-190 0 -331.5 97t-213.5 261t-72 370q0 205 73 369t214.5 261t329.5 97q143 0 260.5 -57.5t194 -156.5t118 -231t41.5 -282q0 -212 -79 -380
t-222 -259q22 -119 145 -119q21 0 39 12zM709 1202q-99 0 -176 -39t-123.5 -107.5t-70.5 -157t-24 -193.5q0 -134 33 -232q59 58 137 90.5t160 32.5q122 0 211 -70t131 -196q113 130 113 375q0 224 -99 360.5t-292 136.5zM467 289q94 -82 242 -82q46 0 98 10
q-9 79 -54.5 123.5t-107.5 44.5q-53 0 -103 -27t-75 -69z" />
    <glyph glyph-name="R" unicode="R" horiz-adv-x="1312" 
d="M903 559l293 -385q43 -57 11.5 -112t-90 -59.5t-105.5 46.5l-338 465h-318v-401q0 -42 -23 -70.5t-55.5 -35t-65.5 0.5t-56 35.5t-23 69.5v1208q0 49 34.5 81t76.5 32h358q272 0 432 -117.5t160 -343.5q0 -298 -291 -414zM356 735h246q371 0 371 238q0 130 -96.5 183.5
t-274.5 53.5h-246v-475z" />
    <glyph glyph-name="S" unicode="S" horiz-adv-x="1181" 
d="M561 -10q-80 0 -155 17t-143.5 51.5t-118.5 95.5t-70 141q-9 35 5.5 67t42.5 48.5t59.5 20.5t59.5 -17t40 -64q38 -137 280 -137q61 0 118.5 11.5t107.5 34.5t80 63t30 92q0 116 -61 161.5t-254 79.5q-75 13 -128.5 26.5t-110.5 35t-95 50.5t-69.5 70t-46.5 97.5
t-15 128.5q0 172 126.5 276.5t344.5 104.5q152 0 274.5 -58t175.5 -174q10 -23 10 -46.5t-11.5 -43t-27.5 -35.5t-39 -22.5t-45.5 -5t-46 16.5t-42.5 42q-71 103 -248 103q-248 0 -248 -158q0 -44 14.5 -73.5t49 -50t78.5 -34t116 -26.5q104 -19 176.5 -39.5t142 -55.5
t111.5 -82.5t67 -120t25 -167.5q0 -100 -45.5 -182t-123.5 -134t-178 -80t-212 -28z" />
    <glyph glyph-name="T" unicode="T" horiz-adv-x="1392" 
d="M584 115v1110l-408 -21q-73 -4 -103 54t0 117t103 59h1043q72 0 101.5 -59t0 -117t-101.5 -54l-408 21v-1110q0 -54 -35.5 -84.5t-78 -30.5t-78 30.5t-35.5 84.5z" />
    <glyph glyph-name="U" unicode="U" horiz-adv-x="1310" 
d="M655 -10q-238 0 -380 145t-142 377v813q0 50 33.5 79t74 29.5t74 -28.5t33.5 -80v-813q0 -145 80 -226t227 -81q148 0 228 83t80 224v813q0 50 33.5 79t74 29.5t74 -28.5t33.5 -80v-813q0 -232 -145 -377t-378 -145z" />
    <glyph glyph-name="V" unicode="V" horiz-adv-x="1314" 
d="M553 72l-442 1206q-24 66 19.5 114.5t106.5 42.5t87 -73l333 -938l334 938q24 68 87 74.5t106.5 -42.5t19.5 -116l-440 -1206q-17 -47 -61 -65t-88 0t-62 65z" />
    <glyph glyph-name="W" unicode="W" horiz-adv-x="1798" 
d="M1233 442l235 920q11 41 41.5 65t65.5 24t66.5 -13.5t46.5 -49t2 -81.5l-347 -1235q-10 -35 -39.5 -54.5t-62.5 -19.5t-64 19.5t-44 54.5l-234 667l-231 -667q-13 -35 -44 -54.5t-64 -19.5t-63 19.5t-40 54.5l-351 1245q-18 67 30.5 106t112.5 22.5t81 -83.5l235 -920
l228 674q13 38 44 57.5t64 18t63.5 -21.5t41.5 -54z" />
    <glyph glyph-name="X" unicode="X" horiz-adv-x="1292" 
d="M647 530l-311 -487q-36 -57 -99.5 -46t-89 66t8.5 123l344 531l-344 530q-40 61 -8.5 122.5t88 68.5t100.5 -47l311 -488l309 488q38 60 101 47.5t87.5 -69.5t-7.5 -122l-344 -530l344 -531q41 -63 9 -124t-89.5 -66t-100.5 47z" />
    <glyph glyph-name="Y" unicode="Y" horiz-adv-x="1298" 
d="M537 115l-2 563l-418 569q-25 37 -25 75t23.5 64.5t53.5 41t66.5 5.5t61.5 -42l352 -469l352 469q43 57 107 43.5t87 -69t-13 -118.5l-420 -569l2 -563q0 -54 -35.5 -84.5t-78 -30.5t-78 30.5t-35.5 84.5z" />
    <glyph glyph-name="Z" unicode="Z" horiz-adv-x="1449" 
d="M1200 0h-952q-45 0 -78 31.5t-36 72.5t24 80l807 1020h-717q-54 0 -84.5 36t-30.5 79t30.5 79t84.5 36h952q47 0 80 -31.5t35.5 -72.5t-25.5 -81l-807 -1020h717q54 0 84.5 -36t30.5 -78.5t-30.5 -78.5t-84.5 -36z" />
    <glyph glyph-name="bracketleft" unicode="[" horiz-adv-x="901" 
d="M584 -252h-267q-46 0 -79 33.5t-33 79.5v1685q0 46 33 79.5t79 33.5h267q52 0 81.5 -35t29.5 -77.5t-29.5 -77.5t-81.5 -35h-154v-1461h154q54 0 84.5 -35t30.5 -77.5t-30.5 -77.5t-84.5 -35z" />
    <glyph glyph-name="backslash" unicode="\" 
d="M1004 -150l-988 1534q-38 61 0 116t100 56t109 -55l987 -1534q21 -38 16.5 -74t-32.5 -59.5t-61 -34.5t-70.5 2t-60.5 49z" />
    <glyph glyph-name="bracketright" unicode="]" horiz-adv-x="901" 
d="M584 -252h-267q-54 0 -84.5 35t-30.5 77.5t30.5 77.5t84.5 35h154v1461h-154q-52 0 -81.5 35t-29.5 77.5t29.5 77.5t81.5 35h267q46 0 79 -33.5t33 -79.5v-1685q0 -46 -33 -79.5t-79 -33.5z" />
    <glyph glyph-name="asciicircum" unicode="^" 
d="M487 1251l-114 -75q-48 -33 -96 -5.5t-49 75.5t51 85q119 66 170 82q37 11 71 0q59 -20 172 -82q54 -30 51 -85t-46 -77t-95 7z" />
    <glyph glyph-name="underscore" unicode="_" 
d="M1235 -299h-1036q-45 0 -71 31t-26 67.5t25.5 67.5t71.5 31h1036q46 0 71.5 -31t25.5 -67.5t-26 -67.5t-71 -31z" />
    <glyph glyph-name="grave" unicode="`" 
d="M205 1593l-66 142q-37 80 9 128q35 36 85 26q55 -11 74 -70l49 -148q11 -38 4.5 -66.5t-27.5 -42.5t-45 -17t-47.5 10t-35.5 38z" />
    <glyph glyph-name="a" unicode="a" horiz-adv-x="1253" 
d="M1096 162q42 -53 16.5 -111.5t-78.5 -67t-98 39.5q-29 41 -33 112q-143 -153 -334 -153q-202 0 -319 89t-117 253q0 83 31 148t86 105t126 60t154 20q81 0 172 -28t152 -70q-4 129 -75.5 198.5t-174.5 76.5q-51 4 -105 -7.5t-85 -40.5q-38 -36 -97 -17.5t-78.5 64
t23.5 97.5q46 50 135 76t178 26q219 0 346.5 -127t127.5 -330v-276q0 -78 47 -137zM569 197q56 0 113.5 13t102 44t44.5 72q-3 43 -44 71.5t-96.5 40t-119.5 11.5q-101 0 -161 -31.5t-60 -93.5q0 -65 60.5 -96t160.5 -31z" />
    <glyph glyph-name="b" unicode="b" horiz-adv-x="1230" 
d="M719 1030q192 0 316 -145t124 -363q0 -238 -126.5 -383t-350.5 -145q-78 0 -167.5 41.5t-147.5 116.5v-15q-7 -58 -39 -96q-26 -30 -60.5 -37.5t-63 5.5t-50 37t-21.5 57.5t23 66.5q45 57 45 137v1127q0 49 33.5 77.5t74 29t74 -27.5t33.5 -79v-570q100 166 303 166z
M682 207q135 0 199.5 84.5t64.5 230.5q0 136 -67.5 214.5t-196.5 78.5q-130 0 -196 -80.5t-66 -212.5q0 -146 65 -230.5t197 -84.5z" />
    <glyph glyph-name="c" unicode="c" horiz-adv-x="1292" 
d="M707 -10q-255 0 -414.5 141.5t-159.5 380.5q0 234 160 377t414 143q258 0 413 -143q30 -27 35.5 -61.5t-11 -62.5t-42.5 -47t-61.5 -16.5t-65.5 29.5q-95 86 -268 86q-160 0 -259.5 -78t-99.5 -227q0 -148 96 -227.5t263 -79.5q173 0 270 88q28 27 63 29.5t61.5 -15.5
t43.5 -45t12 -62.5t-35 -64.5q-157 -145 -415 -145z" />
    <glyph glyph-name="d" unicode="d" horiz-adv-x="1292" 
d="M1137 170q23 -33 23 -66.5t-21.5 -57.5t-50 -37t-63 -5.5t-60.5 37.5q-32 38 -39 96v15q-58 -75 -148 -116.5t-168 -41.5q-224 0 -350.5 145t-126.5 383q0 218 124 363t316 145q96 0 175 -41.5t129 -124.5v570q0 51 33.5 79t74 27.5t74 -29t33.5 -77.5v-1127
q0 -80 45 -137zM610 207q132 0 197 84.5t65 230.5q0 132 -66 212.5t-196 80.5q-129 0 -196.5 -78.5t-67.5 -214.5q0 -146 64.5 -230.5t199.5 -84.5z" />
    <glyph glyph-name="e" unicode="e" horiz-adv-x="1290" 
d="M645 -10q-233 0 -372.5 146.5t-139.5 375.5q0 233 140.5 376.5t371.5 143.5q236 0 374 -131.5t138 -353.5q0 -55 -33.5 -76.5t-93.5 -21.5h-676q20 -123 96 -189.5t195 -66.5q92 0 175 31.5t124 97.5q17 27 48 36t61 -0.5t55.5 -29t32 -50t-10.5 -63.5
q-127 -225 -485 -225zM354 612h572q0 96 -83 161t-198 65q-103 0 -192.5 -64.5t-98.5 -161.5z" />
    <glyph glyph-name="f" unicode="f" horiz-adv-x="978" 
d="M406 0q-47 0 -79 33t-32 82v630l-125 -6q-41 -2 -69 20.5t-35 56t-0.5 67t34.5 57t70 23.5h125v108q0 179 90 275t260 96q201 0 293 -125q20 -27 20.5 -60t-15.5 -59t-40 -44t-56 -15.5t-59 28.5q-67 64 -143 64q-67 0 -98 -39.5t-31 -140.5v-88h189q42 0 70.5 -23.5
t35 -57t-0.5 -66.5t-35.5 -55.5t-69.5 -21.5l-189 6v-630q0 -49 -31.5 -82t-78.5 -33z" />
    <glyph glyph-name="g" unicode="g" horiz-adv-x="1253" 
d="M967 979q17 23 40 34.5t45 9.5t43.5 -11.5t36.5 -27.5t23.5 -39t4.5 -46.5t-21 -48.5q-33 -44 -41 -90q0 -135 1 -406.5t1 -406.5q0 -138 -69.5 -243.5t-183.5 -159.5t-253 -54q-123 0 -227.5 41.5t-169 121t-64.5 179.5q0 41 22.5 69.5t54.5 35.5t64.5 0.5t56 -35
t25.5 -70.5q5 -119 238 -119q125 0 204 60.5t79 173.5q0 19 1 72.5t1 82.5q-89 -114 -267 -114q-215 0 -346 146t-131 374q0 148 55.5 264.5t165 185t256.5 68.5q97 0 181 -40.5t131 -102.5q24 71 43 96zM612 203q126 0 204.5 82t78.5 223q0 303 -283 303q-129 0 -195.5 -82
t-66.5 -221q0 -137 66.5 -221t195.5 -84z" />
    <glyph glyph-name="h" unicode="h" horiz-adv-x="1222" 
d="M645 1038q197 0 321 -144.5t124 -365.5v-422q0 -41 -22 -68.5t-54 -33t-64 1.5t-54 34t-22 66v422q0 135 -67.5 215t-194.5 80q-123 0 -190.5 -73.5t-73.5 -196.5l2 -444q0 -51 -34 -79.5t-74.5 -28.5t-74.5 28.5t-34 79.5l2 1325q0 48 33 75.5t72.5 28t72.5 -27
t33 -76.5l2 -586q38 83 118.5 136.5t178.5 53.5z" />
    <glyph glyph-name="i" unicode="i" horiz-adv-x="563" 
d="M283 1255q-58 0 -97 33.5t-39 87.5q0 57 38.5 89t97.5 32q57 0 97 -32.5t40 -88.5q0 -54 -40.5 -87.5t-96.5 -33.5zM174 109v806q0 41 22 69t53 34.5t62.5 0t53.5 -34.5t22 -69l2 -806q0 -51 -33.5 -80t-74 -29t-74 29t-33.5 80z" />
    <glyph glyph-name="j" unicode="j" horiz-adv-x="528" 
d="M281 1223q-50 0 -83.5 29.5t-33.5 76.5q0 48 33 76.5t84 28.5q49 0 83.5 -28.5t34.5 -76.5q0 -46 -34.5 -76t-83.5 -30zM-287 -287q-17 26 -20 53t7 47.5t27 38t40.5 25t47 7.5t47 -12.5t40.5 -37.5q32 -55 98.5 -66t120 21.5t53.5 87.5v1038q0 41 23 69t55 34.5t64.5 0
t55.5 -34.5t23 -69v-1038q0 -83 -37.5 -151t-97 -109.5t-135.5 -60t-150.5 -9t-145 52t-116.5 113.5z" />
    <glyph glyph-name="k" unicode="k" horiz-adv-x="1292" 
d="M971 35l-402 448l-221 -139v-235q0 -51 -33.5 -79.5t-74 -28.5t-74 28.5t-33.5 79.5v1208q0 50 33.5 78.5t74 29t74 -28t33.5 -79.5v-719l643 408q35 21 69.5 18.5t57.5 -27t34 -54.5t-0.5 -63.5t-45.5 -54.5l-354 -225l378 -422q20 -22 26.5 -46.5t0 -46t-20 -40.5
t-34 -30t-42.5 -15t-46 5t-43 30z" />
    <glyph glyph-name="l" unicode="l" horiz-adv-x="624" 
d="M205 109v1325q0 50 33.5 79t74 29.5t74 -28.5t33.5 -80v-1325q0 -51 -33.5 -80t-74 -29t-74 29t-33.5 80z" />
    <glyph glyph-name="m" unicode="m" horiz-adv-x="1652" 
d="M868 885q46 65 114 101.5t139.5 41t143.5 -16.5t128 -63.5t91.5 -109t35.5 -144.5v-585q0 -51 -33.5 -80.5t-74 -29.5t-74 29.5t-33.5 80.5v585q0 50 -34.5 83.5t-84 41.5t-99 0t-84 -42.5t-34.5 -84.5v-583q0 -51 -33.5 -80.5t-74 -29.5t-74 29.5t-33.5 80.5l2 585
q0 50 -35 83.5t-84.5 41.5t-99 0t-84.5 -42.5t-35 -84.5v-583q0 -51 -33.5 -79.5t-73 -28.5t-73 28.5t-33.5 79.5v610q0 78 -47 137q-27 33 -24.5 67t21 60t51 38.5t64.5 2.5q21 -6 45 -36t37 -68q42 49 114.5 77.5t148.5 30t147 -34.5t106 -108z" />
    <glyph glyph-name="n" unicode="n" horiz-adv-x="1251" 
d="M659 1040q220 0 339.5 -132.5t119.5 -356.5v-442q0 -51 -33.5 -79t-74 -27t-74 29.5t-33.5 76.5v442q0 135 -57 204.5t-184 69.5q-244 0 -244 -297v-419q0 -51 -33.5 -79.5t-74 -28t-74 29t-33.5 78.5v608q0 76 -45 137q-24 33 -24 67.5t22.5 59.5t51 38.5t63 5
t57.5 -41.5q27 -31 45 -92q106 149 286 149z" />
    <glyph glyph-name="o" unicode="o" horiz-adv-x="1392" 
d="M696 -10q-254 0 -408.5 145.5t-154.5 376.5q0 232 157 377t406 145q252 0 408 -146.5t156 -375.5q0 -231 -157.5 -376.5t-406.5 -145.5zM696 205q164 0 256 83.5t92 223.5q0 144 -92.5 225.5t-255.5 81.5q-164 0 -256 -83t-92 -224q0 -144 92.5 -225.5t255.5 -81.5z" />
    <glyph glyph-name="p" unicode="p" horiz-adv-x="1290" 
d="M680 1028q147 0 256.5 -68.5t165 -185t55.5 -264.5q0 -228 -131 -374t-346 -146q-140 0 -264 108v-444q0 -49 -33.5 -77.5t-74 -29t-74 27.5t-33.5 79v1061q0 78 -47 137q-17 23 -21 48.5t4.5 46.5t23.5 39t36.5 27.5t43.5 11.5t45 -9.5t40 -34.5q33 -41 45 -78
q46 60 128 92.5t181 32.5zM680 205q129 0 195.5 84t66.5 221q0 139 -66.5 221t-195.5 82q-131 0 -201.5 -84.5t-70.5 -218.5q0 -139 72 -222t200 -83z" />
    <glyph glyph-name="q" unicode="q" horiz-adv-x="1292" 
d="M963 981q17 23 40 34.5t45 9.5t43.5 -11.5t36.5 -27.5t23.5 -39t4.5 -46.5t-21 -48.5q-48 -60 -48 -137v-1061q0 -51 -33.5 -79t-74 -27.5t-74 29t-33.5 77.5v444q-124 -108 -264 -108q-215 0 -346 146t-131 374q0 148 55.5 264.5t165 185t256.5 68.5q99 0 181.5 -32.5
t128.5 -92.5q12 37 45 78zM608 205q129 0 201 83t72 222q0 134 -71 218.5t-202 84.5q-129 0 -195.5 -82t-66.5 -221q0 -137 66.5 -221t195.5 -84z" />
    <glyph glyph-name="r" unicode="r" horiz-adv-x="927" 
d="M133 109v806q0 51 31.5 79.5t69 28.5t69 -28.5t31.5 -79.5v-47q32 65 99 115.5t161 50.5q69 0 136 -28t106 -72q27 -30 30 -64.5t-13.5 -60t-42.5 -44t-57 -17t-55 19.5q-66 51 -145 51q-86 0 -145.5 -85t-59.5 -175v-450q0 -51 -33.5 -80t-74 -29t-74 29t-33.5 80z" />
    <glyph glyph-name="s" unicode="s" horiz-adv-x="1161" 
d="M590 -10q-132 0 -256 42.5t-178 131.5q-21 35 -22.5 66.5t13 52.5t39 33.5t52 13t55 -13t45.5 -40.5q13 -19 37 -37.5t81.5 -36.5t131.5 -18q121 0 175 27.5t54 81.5t-52.5 81.5t-191.5 59.5q-159 38 -217 62q-143 61 -164 184q-4 23 -4 49q0 137 105.5 220t294.5 83
q251 0 336 -147q23 -43 21 -74t-23 -49t-47.5 -25.5t-53.5 -2t-41 21.5q-21 25 -38 39.5t-58.5 29.5t-97.5 15q-76 0 -129.5 -24.5t-53.5 -76.5q0 -21 10 -37t25.5 -26.5t39 -19t44.5 -13.5t49 -11l15 -3q92 -20 156.5 -38.5t121.5 -44.5t91 -57t53.5 -73.5t19.5 -96.5
q0 -144 -120.5 -236.5t-317.5 -92.5z" />
    <glyph glyph-name="t" unicode="t" horiz-adv-x="1116" 
d="M643 -10q-152 0 -240 84t-88 235v510l-149 -6q-65 -3 -93 50t-1 107t94 54h149v410q0 49 33 76.5t72.5 27.5t72.5 -27.5t33 -76.5v-410h293q40 0 66.5 -22t33 -53.5t0 -62.5t-33.5 -52.5t-66 -20.5l-293 10v-452q0 -168 127 -168q94 0 133 63q22 33 55.5 44t63 0
t53 -33.5t26 -56.5t-18.5 -68q-48 -73 -134.5 -117.5t-187.5 -44.5z" />
    <glyph glyph-name="u" unicode="u" horiz-adv-x="1292" 
d="M1135 174q24 -33 24 -67.5t-22.5 -59.5t-51 -38.5t-63 -5t-57.5 41.5q-25 28 -37 113q-51 -76 -135 -123t-181 -47q-220 0 -349.5 143t-129.5 367v422q0 51 33.5 79t74 27t74 -29.5t33.5 -76.5v-422q0 -135 67.5 -215t194.5 -80q130 0 197 81t67 216v420q0 34 16 59
t40 36t52 11t52 -11.5t40 -36t16 -58.5v-609q0 -76 45 -137z" />
    <glyph glyph-name="v" unicode="v" horiz-adv-x="1210" 
d="M510 59l-404 809q-17 38 -11 72t32.5 54.5t57.5 28.5t63.5 -7t50.5 -51l307 -615l307 617q18 36 50.5 51t63.5 7t57.5 -28.5t32.5 -54.5t-11 -72l-404 -811q-29 -56 -93 -58.5t-99 58.5z" />
    <glyph glyph-name="w" unicode="w" horiz-adv-x="1519" 
d="M760 598l-248 -535q-19 -41 -63 -54.5t-86 6.5t-54 67l-203 811q-10 38 5 70t44 46t61.5 15.5t60 -20t36.5 -60.5l129 -588l217 467q28 61 98.5 60.5t98.5 -60.5l221 -467l129 588q9 39 36.5 60.5t60 19.5t61.5 -16t44 -46t5 -71l-203 -809q-13 -48 -55 -67t-85.5 -4.5
t-61.5 52.5z" />
    <glyph glyph-name="x" unicode="x" horiz-adv-x="1069" 
d="M535 344l-250 -305q-25 -30 -59.5 -37.5t-63 7t-49 39t-20.5 60t26 68.5l276 336l-276 336q-26 33 -26.5 69t20.5 60t50 38t63 7t59 -37l250 -303l249 303q26 31 61 38t63 -8t48 -40t19.5 -60.5t-25.5 -66.5l-276 -336l276 -336q25 -30 26 -65t-18.5 -60.5t-47.5 -41
t-63 -8.5t-63 38z" />
    <glyph glyph-name="y" unicode="y" horiz-adv-x="1265" 
d="M598 240l320 721q28 63 91 65t102 -48t9 -114l-522 -1130q-47 -88 -135 -133t-180.5 -41.5t-182 49t-141.5 125.5q-22 37 -20 72.5t26.5 59.5t55 36t66 1t58.5 -46q42 -61 128.5 -72t125.5 51l88 176l-411 850q-16 39 -8.5 74t36 56t60.5 29t65 -8.5t50 -54.5z" />
    <glyph glyph-name="z" unicode="z" horiz-adv-x="1290" 
d="M1051 0h-811q-34 0 -61 19.5t-39 47t-6.5 59.5t30.5 56l647 627h-571q-50 0 -78.5 33.5t-28.5 74t28.5 74t78.5 33.5h811q34 0 61 -19.5t38.5 -47t6 -59.5t-30.5 -56l-647 -627h572q50 0 78.5 -33.5t28.5 -74t-28.5 -74t-78.5 -33.5z" />
    <glyph glyph-name="braceleft" unicode="{" horiz-adv-x="1140" 
d="M823 -342h-151q-126 0 -215.5 89.5t-89.5 215.5v389q0 69 -35.5 116.5t-98.5 47.5q-54 0 -83.5 36t-28.5 78.5t31 78.5t81 36q66 0 100 48t34 116v389q0 126 89.5 216t215.5 90h151q54 0 84.5 -36t30.5 -79t-30.5 -79t-84.5 -36h-151q-32 0 -55 -22t-23 -54v-389
q0 -85 -22.5 -144.5t-77.5 -133.5q100 -124 100 -279v-389q0 -32 23 -54t55 -22h151q54 0 84.5 -36t30.5 -78.5t-30.5 -78.5t-84.5 -36z" />
    <glyph glyph-name="bar" unicode="|" 
d="M602 -299v1726q0 54 36 84.5t78.5 30.5t78.5 -30.5t36 -84.5v-1726q0 -42 -23.5 -71t-57.5 -36t-67.5 -0.5t-57 35.5t-23.5 72z" />
    <glyph glyph-name="braceright" unicode="}" horiz-adv-x="1140" 
d="M469 -342h-152q-54 0 -84.5 36t-30.5 78.5t30.5 78.5t84.5 36h152q32 0 55 22t23 54v389q0 155 100 279q-55 74 -77.5 133.5t-22.5 144.5v389q0 32 -23 54t-55 22h-152q-54 0 -84.5 36t-30.5 79t30.5 79t84.5 36h152q126 0 215.5 -90t89.5 -216v-389q0 -68 33.5 -116
t99.5 -48q51 0 81 -36t31 -78.5t-28.5 -78.5t-83.5 -36q-63 0 -98 -47.5t-35 -116.5v-389q0 -126 -89.5 -215.5t-215.5 -89.5z" />
    <glyph glyph-name="asciitilde" unicode="~" horiz-adv-x="833" 
d="M573 530q-47 0 -89 23t-80.5 45.5t-77.5 22.5q-61 0 -82 -41q-28 -48 -78.5 -52.5t-83 31.5t-14.5 88q26 73 85 114.5t138 41.5q48 0 89 -23t77 -46t71 -23q45 0 66 41q20 38 55 48t65 -3t47.5 -43.5t6.5 -65.5q-22 -73 -73 -115.5t-122 -42.5z" />
    <glyph glyph-name="exclamdown" unicode="&#xa1;" 
d="M352 1147q59 0 100.5 -36t41.5 -93q0 -58 -41.5 -92.5t-100.5 -34.5q-62 0 -101.5 34t-39.5 93q0 58 40 93.5t101 35.5zM221 -182l74 829q3 35 28.5 49.5t51 0t28.5 -49.5l68 -829q8 -94 -59 -133.5t-133 0t-58 133.5z" />
    <glyph glyph-name="cent" unicode="&#xa2;" horiz-adv-x="1271" 
d="M967 293q28 27 63 29.5t61.5 -15.5t43.5 -45t12 -62.5t-35 -64.5q-122 -110 -303 -137v-148q0 -49 -31.5 -80.5t-79.5 -31.5q-50 0 -81 31t-31 81v148q-210 30 -336.5 166.5t-126.5 347.5q0 207 127 344.5t336 167.5v143q0 49 32 81t80 32t79.5 -32t31.5 -81v-143
q181 -24 301 -135q30 -27 35.5 -61.5t-11 -62.5t-42.5 -47t-61.5 -16.5t-65.5 29.5q-95 86 -269 86q-160 0 -259 -78t-99 -227q0 -148 95.5 -227.5t262.5 -79.5q174 0 271 88z" />
    <glyph glyph-name="sterling" unicode="&#xa3;" horiz-adv-x="1107" 
d="M877 0h-644q-52 0 -81.5 34.5t-29.5 76t29.5 76t81.5 34.5h101q41 0 76.5 31.5t35.5 89.5v303h-157q-51 0 -80.5 34.5t-29.5 76t29.5 76t80.5 34.5h157v269q0 95 53.5 168t130 104t165.5 15.5t155 -83.5q29 -30 32.5 -66t-15 -63t-46 -45t-63.5 -13.5t-65 34.5
q-31 34 -78 16t-47 -67v-269h155q51 0 80.5 -34.5t29.5 -76t-29.5 -76t-80.5 -34.5h-155v-303q0 -77 -39 -121h248q51 0 80.5 -34.5t29.5 -76t-29.5 -76t-80.5 -34.5z" />
    <glyph glyph-name="currency" unicode="&#xa4;" 
d="M539 332l-76 -76q-19 -19 -42 -26.5t-43.5 -3t-40 16t-31.5 30t-16.5 38.5t2.5 43t27 43l76 76q-47 85 -47 181.5t47 181.5l-76 75q-19 19 -26.5 42t-2.5 43.5t17 39t31 30t39.5 16t43.5 -2.5t42 -26l76 -76q82 47 179 46.5t181 -46.5l74 76q20 19 43.5 26t44 2t39 -16.5
t29.5 -30t16 -39t-2.5 -43t-26.5 -41.5l-76 -75q47 -85 47 -181.5t-47 -181.5l76 -76q20 -20 27.5 -43.5t2.5 -43.5t-17 -38t-31 -29t-40 -15.5t-43.5 2.5t-41.5 26l-74 76q-84 -46 -181 -46.5t-179 46.5zM719 485q69 0 118.5 49.5t49.5 118.5q0 70 -49.5 120t-118.5 50
q-71 0 -120.5 -49.5t-49.5 -120.5q0 -69 50 -118.5t120 -49.5z" />
    <glyph glyph-name="yen" unicode="&#xa5;" horiz-adv-x="1380" 
d="M690 922l352 469q43 57 107 43.5t87 -69t-13 -118.5l-406 -549h133q46 0 71.5 -27.5t25.5 -60.5t-26 -60.5t-71 -27.5h-147v-100h147q46 0 71.5 -27.5t25.5 -60.5t-26 -60.5t-71 -27.5h-145v-131q0 -54 -35.5 -84.5t-78 -30.5t-78 30.5t-35.5 84.5v131h-148
q-45 0 -71 27.5t-26 60.5t25.5 60.5t71.5 27.5h145v100h-145q-45 0 -71 27.5t-26 60.5t25.5 60.5t71.5 27.5h131l-403 549q-25 37 -25 75t23.5 64.5t53.5 41t66.5 5.5t61.5 -42z" />
    <glyph glyph-name="brokenbar" unicode="&#xa6;" 
d="M602 813v596q0 54 36 84.5t78.5 30.5t78.5 -30.5t36 -84.5v-596q0 -43 -23.5 -72.5t-57.5 -36.5t-67.5 0t-57 36.5t-23.5 72.5zM602 -276v595q0 43 23.5 72.5t57 36.5t67.5 0t57.5 -36.5t23.5 -72.5v-595q0 -54 -36 -84.5t-78.5 -30.5t-78.5 30.5t-36 84.5z" />
    <glyph glyph-name="section" unicode="&#xa7;" 
d="M725 -205q-110 0 -209.5 33.5t-166 101t-66.5 154.5q0 51 34.5 81t76.5 30.5t77.5 -28t36.5 -79.5q1 -25 43.5 -41.5t87 -21.5t86.5 -5q42 -1 78.5 6.5t68.5 23.5t51 47t19 73q0 17 -1.5 30.5t-7 24.5l-9.5 19t-15.5 15t-19 11.5t-25 8t-28.5 6t-35.5 4.5t-39.5 3t-46 3
q-113 11 -189.5 31.5t-138.5 61t-91.5 108.5t-29.5 168q0 55 14 95.5t46 94.5q-60 80 -60 205q0 173 125 274t318 101q110 0 209.5 -33.5t166 -101t66.5 -154.5q0 -51 -34.5 -81t-76.5 -30.5t-77.5 28t-36.5 79.5q0 67 -219 67q-58 0 -103 -11.5t-78.5 -46.5t-33.5 -91
q0 -32 8.5 -53t21.5 -34t43 -20.5t59 -11t83 -6.5q116 -9 194 -28.5t141.5 -59.5t94 -109.5t30.5 -171.5q0 -59 -13.5 -98t-45.5 -92q59 -78 59 -205q0 -173 -124.5 -274t-317.5 -101zM918 496q24 28 24 84q-1 28 -7.5 48t-22 33.5t-30 21.5t-47.5 13.5t-58 7.5t-75 5
q-142 13 -186 24q-24 -27 -24 -69q0 -31 5 -53t19 -37.5t29.5 -24.5t47 -15t59.5 -8.5t79 -5.5q143 -14 187 -24z" />
    <glyph glyph-name="dieresis" unicode="&#xa8;" 
d="M350 1583q-45 0 -74.5 26t-29.5 68q0 45 29 70t75 25q45 0 76 -25.5t31 -69.5q0 -42 -31.5 -68t-75.5 -26zM657 1583q-45 0 -75.5 26t-30.5 68q0 44 30 69.5t76 25.5q45 0 75 -25.5t30 -69.5q0 -42 -30.5 -68t-74.5 -26z" />
    <glyph glyph-name="copyright" unicode="&#xa9;" 
d="M717 184q-233 0 -377.5 142t-144.5 381q0 234 141 378t381 144q236 0 379 -143t143 -379q0 -231 -143 -377t-379 -146zM717 330q173 0 275 102.5t102 274.5t-100 275t-277 103q-175 0 -277 -101.5t-102 -276.5q0 -172 100.5 -274.5t278.5 -102.5zM915 520
q-38 -41 -88 -62t-100 -20t-99 20.5t-87 53.5t-61 85.5t-23 111.5q0 59 22.5 110.5t59.5 86t85.5 54.5t98 21.5t100.5 -19t90 -61.5q18 -18 20.5 -41.5t-9 -42t-29.5 -30.5t-42 -9t-44 23q-25 28 -61 34.5t-68 -6t-55 -45t-23 -75.5q0 -41 22.5 -72t54 -44t68.5 -7.5
t64 32.5q29 34 69 22t51 -47.5t-16 -72.5z" />
    <glyph glyph-name="guillemotleft" unicode="&#xab;" 
d="M535 121l-304 346q-53 67 0 141l304 346q27 30 61.5 35.5t62 -10.5t46.5 -41t17 -59.5t-28 -63.5l-243 -278l243 -277q20 -22 26 -46.5t-0.5 -45.5t-20.5 -39.5t-35 -29t-43 -14t-45 5.5t-41 30zM1040 121l-303 346q-53 67 0 141l303 346q19 21 43 30t46 5.5t42.5 -14.5
t34 -30t19.5 -40t0 -45t-25 -45l-244 -278l244 -277q27 -30 28.5 -64.5t-18.5 -59.5t-48.5 -40.5t-62.5 -9.5t-59 35z" />
    <glyph glyph-name="logicalnot" unicode="&#xac;" 
d="M1014 254v137h-701q-50 0 -79 33.5t-29.5 74t28.5 74t80 33.5h807q45 0 77 -31t32 -75v-246q0 -51 -33.5 -79.5t-74 -28.5t-74 28.5t-33.5 79.5z" />
    <glyph glyph-name="registered" unicode="&#xae;" 
d="M717 510q-243 0 -390 147t-147 390q0 242 147 389t390 147t389.5 -149.5t146.5 -386.5q0 -242 -149.5 -389.5t-386.5 -147.5zM717 659q181 0 284 106.5t103 281.5q0 182 -105 284.5t-282 102.5q-182 0 -284.5 -105.5t-102.5 -281.5q0 -180 103.5 -284t283.5 -104z
M831 809l-114 170h-86v-137q0 -28 -19.5 -44.5t-43 -17t-43 16t-19.5 45.5v399q0 26 18.5 44t44.5 18h215q61 0 103.5 -37.5t54 -87.5t-10 -103t-75.5 -80l80 -116q18 -28 9.5 -50.5t-27.5 -37t-44.5 -11t-42.5 28.5zM631 1178v-74h153q23 0 32.5 18.5t0 37t-32.5 18.5h-153
z" />
    <glyph glyph-name="macron" unicode="&#xaf;" 
d="M575 1597h-354q-46 0 -72 31t-26.5 68.5t26 68.5t72.5 31h354q46 0 72.5 -31t26 -68.5t-26.5 -68.5t-72 -31z" />
    <glyph glyph-name="degree" unicode="&#xb0;" 
d="M717 909q-119 0 -190.5 74.5t-71.5 187.5q0 116 73.5 189.5t188.5 73.5q117 0 188.5 -73t71.5 -190q0 -116 -72.5 -189t-187.5 -73zM717 1077q92 0 92 94q0 51 -23 72t-69 21q-48 0 -71 -22t-23 -71q0 -94 94 -94z" />
    <glyph glyph-name="plusminus" unicode="&#xb1;" 
d="M612 588v211h-211q-49 0 -76.5 32.5t-27.5 72t27.5 72t76.5 32.5h211v211q0 49 32.5 76.5t72 27.5t72 -27.5t32.5 -76.5v-211h211q49 0 76.5 -32.5t27.5 -72t-27.5 -72t-76.5 -32.5h-211v-211q0 -49 -32.5 -76.5t-72 -27.5t-72 27.5t-32.5 76.5zM1034 84h-633
q-50 0 -78 32.5t-28 72t28.5 72t77.5 32.5h633q49 0 77 -32.5t27.5 -72t-28 -72t-76.5 -32.5z" />
    <glyph glyph-name="uni00B2" unicode="&#xb2;" horiz-adv-x="778" 
d="M600 717l-422 -2q-23 2 -39 18t-16 39q0 121 65.5 198.5t196.5 137.5q88 41 110 59q33 27 33 64q0 94 -139 94q-112 0 -133 -57q-11 -30 -41 -36.5t-53.5 10t-18.5 44.5q10 58 76.5 105t163.5 47q107 0 181.5 -54.5t74.5 -152.5q0 -35 -11 -63.5t-26 -47.5t-46 -39.5
t-54.5 -32t-69.5 -32.5q-39 -18 -65.5 -34t-53 -39.5t-44 -54.5t-27.5 -71l358 10q26 0 41.5 -17t15.5 -38t-15 -38t-42 -17z" />
    <glyph glyph-name="uni00B3" unicode="&#xb3;" horiz-adv-x="776" 
d="M358 715q-128 0 -211 55q-28 19 -23 51.5t31 45t58 -4.5q53 -37 145 -37q78 0 131.5 27.5t53.5 81.5q0 49 -49.5 77.5t-135.5 28.5q-26 0 -41 17.5t-15 39t15 39t41 17.5q67 0 112.5 23t45.5 65t-42.5 65t-94.5 23q-40 0 -64 -6.5t-57 -22.5q-25 -13 -45 -5.5t-32.5 22.5
t-9.5 37t24 37q72 51 184 51q102 0 175 -54t73 -147q0 -42 -23.5 -81.5t-62.5 -57.5q53 -19 83.5 -67.5t30.5 -100.5q0 -105 -85 -162t-212 -57z" />
    <glyph glyph-name="acute" unicode="&#xb4;" 
d="M348 1735l-65 -142q-12 -25 -36 -38t-48 -10t-45 17t-27.5 42.5t4.5 66.5l49 148q20 60 75 71q51 9 85 -28q44 -48 8 -127z" />
    <glyph glyph-name="paragraph" unicode="&#xb6;" 
 />
    <glyph glyph-name="periodcentered" unicode="&#xb7;" horiz-adv-x="704" 
d="M352 428q-64 0 -105.5 37t-41.5 98q0 62 41 97.5t106 35.5q62 0 105 -36t43 -97q0 -60 -43 -97.5t-105 -37.5z" />
    <glyph glyph-name="cedilla" unicode="&#xb8;" 
d="M141 -317q-29 35 -13 76t51 51.5t63 -11.5q27 -25 53.5 -17t50.5 40q22 29 13 59t-29 50.5t-35 48.5t-6 53q10 30 44.5 44.5t79 2.5t76.5 -53q49 -61 51 -145t-51 -163q-39 -55 -106.5 -82t-135 -15t-106.5 61z" />
    <glyph glyph-name="uni00B9" unicode="&#xb9;" horiz-adv-x="622" 
d="M266 776v512l-55 -47q-25 -21 -54 -5t-33 45t23 52l142 94q28 17 58 1t30 -48v-604q0 -36 -27.5 -50.5t-55.5 0t-28 50.5z" />
    <glyph glyph-name="guillemotright" unicode="&#xbb;" 
d="M696 467l-303 -346q-25 -29 -59 -35t-62.5 9.5t-48.5 40.5t-18.5 59.5t28.5 64.5l244 277l-244 278q-19 21 -25 45t0 45t19.5 40t34 30t42.5 14.5t46 -5.5t43 -30l303 -346q52 -74 0 -141zM1202 467l-303 -346q-25 -29 -59 -35t-62.5 9.5t-48.5 40.5t-18.5 59.5
t28.5 64.5l244 277l-244 278q-19 21 -25 45t0 45t19.5 40t34 30t42.5 14.5t46 -5.5t43 -30l303 -346q52 -74 0 -141z" />
    <glyph glyph-name="questiondown" unicode="&#xbf;" horiz-adv-x="1286" 
d="M676 1126q64 0 105.5 -37t41.5 -98q0 -62 -41 -97.5t-106 -35.5q-62 0 -105 36t-43 97q0 60 43 97.5t105 37.5zM809 659q9 -80 -6 -141.5t-56.5 -106.5t-95.5 -77.5t-135 -63.5q-89 -35 -133 -98.5t-21 -151.5q20 -71 102.5 -105.5t199.5 -23.5q84 7 164.5 38.5
t113.5 88.5q16 29 38.5 46.5t45 20.5t46 -1.5t41 -18.5t31 -32t15.5 -42t-6 -48q-28 -80 -106 -141t-170.5 -92.5t-192.5 -41.5q-219 -20 -365.5 71.5t-179.5 260.5q-15 75 2 146t56 124t86.5 92t97.5 60q38 16 61.5 26.5t53 27t46 32t31.5 36t20.5 45t2.5 54.5
q-4 39 15.5 65t50.5 32t63 1t56.5 -27.5t27.5 -54.5z" />
    <glyph glyph-name="Agrave" unicode="&#xc0;" horiz-adv-x="1312" 
d="M553 1593l-66 142q-37 80 9 128q35 36 85 26q55 -11 74 -70l50 -148q11 -38 4.5 -66.5t-27.5 -42.5t-45 -17t-48 10t-36 38zM377 313l-88 -237q-28 -74 -93.5 -83t-108.5 39.5t-17 114.5l481 1217q10 28 31.5 46.5t47.5 23.5t52 0t47.5 -23.5t30.5 -46.5l483 -1219
q26 -66 -17.5 -112t-108 -39t-89.5 72l-94 247h-557zM655 1090l-213 -547h428z" />
    <glyph glyph-name="Aacute" unicode="&#xc1;" horiz-adv-x="1312" 
d="M815 1735l-65 -142q-12 -25 -36 -38t-48 -10t-45 17t-27.5 42.5t4.5 66.5l49 148q20 60 75 71q51 9 85 -28q44 -48 8 -127zM377 313l-88 -237q-28 -74 -93.5 -83t-108.5 39.5t-17 114.5l481 1217q10 28 31.5 46.5t47.5 23.5t52 0t47.5 -23.5t30.5 -46.5l483 -1219
q26 -66 -17.5 -112t-108 -39t-89.5 72l-94 247h-557zM655 1090l-213 -547h428z" />
    <glyph glyph-name="Acircumflex" unicode="&#xc2;" horiz-adv-x="1312" 
d="M657 1661l-114 -76q-48 -33 -96 -5.5t-49 76t51 85.5q120 66 169 82q38 11 72 0q59 -20 172 -82q54 -30 51 -85t-46 -77.5t-95 6.5zM377 313l-88 -237q-28 -74 -93.5 -83t-108.5 39.5t-17 114.5l481 1217q10 28 31.5 46.5t47.5 23.5t52 0t47.5 -23.5t30.5 -46.5
l483 -1219q26 -66 -17.5 -112t-108 -39t-89.5 72l-94 247h-557zM655 1090l-213 -547h428z" />
    <glyph glyph-name="Atilde" unicode="&#xc3;" horiz-adv-x="1312" 
d="M811 1573q-47 0 -89 22.5t-81 45t-78 22.5q-61 0 -82 -41q-21 -36 -57.5 -47t-67 1t-47.5 43.5t-4 70.5q26 72 85 113.5t138 41.5q38 0 72.5 -14.5t56.5 -31.5t51.5 -31.5t57.5 -14.5q44 0 65 41q27 50 76 53t81.5 -33t17.5 -83q-22 -73 -73 -115.5t-122 -42.5zM377 313
l-88 -237q-28 -74 -93.5 -83t-108.5 39.5t-17 114.5l481 1217q10 28 31.5 46.5t47.5 23.5t52 0t47.5 -23.5t30.5 -46.5l483 -1219q26 -66 -17.5 -112t-108 -39t-89.5 72l-94 247h-557zM655 1090l-213 -547h428z" />
    <glyph glyph-name="Adieresis" unicode="&#xc4;" horiz-adv-x="1312" 
d="M504 1583q-45 0 -75 26t-30 68q0 44 29.5 69.5t75.5 25.5q45 0 75.5 -25.5t30.5 -69.5q0 -42 -31 -68t-75 -26zM811 1583q-45 0 -75.5 26t-30.5 68q0 44 30 69.5t76 25.5q45 0 74.5 -25.5t29.5 -69.5q0 -42 -30 -68t-74 -26zM377 313l-88 -237q-28 -74 -93.5 -83
t-108.5 39.5t-17 114.5l481 1217q10 28 31.5 46.5t47.5 23.5t52 0t47.5 -23.5t30.5 -46.5l483 -1219q26 -66 -17.5 -112t-108 -39t-89.5 72l-94 247h-557zM655 1090l-213 -547h428z" />
    <glyph glyph-name="Aring" unicode="&#xc5;" horiz-adv-x="1312" 
d="M655 1475q-107 0 -181.5 75.5t-74.5 182.5q0 105 74.5 179.5t181.5 74.5q106 0 181 -75t75 -179q0 -107 -75 -182.5t-181 -75.5zM655 1653q34 0 56 23t22 57q0 32 -22 53.5t-56 21.5t-55.5 -21.5t-21.5 -53.5q0 -34 22 -57t55 -23zM377 313l-88 -237q-28 -74 -93.5 -83
t-108.5 39.5t-17 114.5l481 1217q10 28 31.5 46.5t47.5 23.5t52 0t47.5 -23.5t30.5 -46.5l483 -1219q26 -66 -17.5 -112t-108 -39t-89.5 72l-94 247h-557zM655 1090l-213 -547h428z" />
    <glyph glyph-name="AE" unicode="&#xc6;" horiz-adv-x="1947" 
d="M1020 229h680q47 0 81 -33.5t34 -80.5t-34 -81t-81 -34h-778q-54 0 -92.5 37.5t-38.5 91.5v184h-414l-88 -237q-28 -74 -93.5 -83t-108.5 39.5t-17 114.5l467 1182q11 30 30 51t38 31t50 15.5t50.5 6.5t54.5 1h940q47 0 81 -34t34 -81t-34 -81t-81 -34h-680v-332h481
q54 0 84.5 -35t30.5 -76.5t-30.5 -76.5t-84.5 -35h-481v-420zM700 1206l-256 -661h347v661h-91z" />
    <glyph glyph-name="Ccedilla" unicode="&#xc7;" horiz-adv-x="1185" 
d="M922 342q25 33 61 42t66 -4.5t53.5 -39t23 -61.5t-25.5 -70q-109 -148 -287 -199q35 -56 31.5 -133.5t-51.5 -142.5q-39 -55 -106.5 -82t-135.5 -15.5t-107 60.5q-29 35 -13 76t51 52t63 -11q27 -25 53.5 -17.5t50.5 39.5q13 18 15 35.5t-5.5 33.5t-16.5 29t-22.5 29.5
t-19.5 28.5q-128 11 -230.5 72t-169.5 158t-103 223.5t-36 271.5q0 155 40.5 287.5t115.5 230.5t187.5 153.5t250.5 55.5q135 0 249.5 -55t193.5 -160q24 -36 24 -71.5t-23 -61t-53 -39t-65 -4.5t-59 41q-100 127 -267 127q-94 0 -167 -40.5t-116 -111t-65 -159.5t-22 -193
q0 -107 22 -197t66 -159.5t116 -108.5t166 -39q173 0 267 129z" />
    <glyph glyph-name="Egrave" unicode="&#xc8;" horiz-adv-x="1290" 
d="M549 1593l-66 142q-37 80 9 128q35 36 85 26q55 -11 74 -70l49 -148q11 -38 4.5 -66.5t-27.5 -42.5t-45 -17t-47.5 10t-35.5 38zM1042 0h-778q-54 0 -92.5 37.5t-38.5 91.5v1176q0 54 38.5 91.5t92.5 37.5h778q47 0 81 -34t34 -81t-34 -81t-81 -34h-680v-332h482
q54 0 84.5 -35t30.5 -76.5t-30.5 -76.5t-84.5 -35h-482v-420h680q47 0 81 -33.5t34 -80.5t-34 -81t-81 -34z" />
    <glyph glyph-name="Eacute" unicode="&#xc9;" horiz-adv-x="1290" 
d="M811 1735l-66 -142q-12 -25 -35.5 -38t-47.5 -10t-45 17t-27.5 42.5t4.5 66.5l49 148q20 60 75 71q51 9 85 -28q44 -48 8 -127zM1042 0h-778q-54 0 -92.5 37.5t-38.5 91.5v1176q0 54 38.5 91.5t92.5 37.5h778q47 0 81 -34t34 -81t-34 -81t-81 -34h-680v-332h482
q54 0 84.5 -35t30.5 -76.5t-30.5 -76.5t-84.5 -35h-482v-420h680q47 0 81 -33.5t34 -80.5t-34 -81t-81 -34z" />
    <glyph glyph-name="Ecircumflex" unicode="&#xca;" horiz-adv-x="1290" 
d="M653 1661l-114 -76q-48 -33 -96.5 -5.5t-49.5 76t51 85.5q119 66 170 82q38 11 72 0q59 -20 172 -82q54 -30 51 -85t-46 -77.5t-95 6.5zM1042 0h-778q-54 0 -92.5 37.5t-38.5 91.5v1176q0 54 38.5 91.5t92.5 37.5h778q47 0 81 -34t34 -81t-34 -81t-81 -34h-680v-332h482
q54 0 84.5 -35t30.5 -76.5t-30.5 -76.5t-84.5 -35h-482v-420h680q47 0 81 -33.5t34 -80.5t-34 -81t-81 -34z" />
    <glyph glyph-name="Edieresis" unicode="&#xcb;" horiz-adv-x="1290" 
d="M500 1583q-45 0 -75 26t-30 68q0 44 29.5 69.5t75.5 25.5q45 0 75.5 -25.5t30.5 -69.5q0 -42 -31 -68t-75 -26zM807 1583q-45 0 -76 26t-31 68q0 44 30.5 69.5t76.5 25.5q45 0 74.5 -25.5t29.5 -69.5q0 -42 -30 -68t-74 -26zM1042 0h-778q-54 0 -92.5 37.5t-38.5 91.5
v1176q0 54 38.5 91.5t92.5 37.5h778q47 0 81 -34t34 -81t-34 -81t-81 -34h-680v-332h482q54 0 84.5 -35t30.5 -76.5t-30.5 -76.5t-84.5 -35h-482v-420h680q47 0 81 -33.5t34 -80.5t-34 -81t-81 -34z" />
    <glyph glyph-name="Igrave" unicode="&#xcc;" horiz-adv-x="638" 
d="M217 1593l-65 142q-37 80 8 128q34 36 85 26q54 -12 74 -70l50 -148q11 -38 4.5 -66.5t-27.5 -42.5t-45 -17t-48 10t-36 38zM205 115v1204q0 55 36 85.5t78.5 30.5t78.5 -31t36 -85v-1204q0 -55 -36 -85.5t-78.5 -30.5t-78.5 31t-36 85z" />
    <glyph glyph-name="Iacute" unicode="&#xcd;" horiz-adv-x="638" 
d="M479 1735l-65 -142q-12 -25 -36 -38t-48 -10t-45 17t-27.5 42.5t4.5 66.5l49 148q20 60 75 71q51 9 85 -28q44 -48 8 -127zM205 115v1204q0 55 36 85.5t78.5 30.5t78.5 -31t36 -85v-1204q0 -55 -36 -85.5t-78.5 -30.5t-78.5 31t-36 85z" />
    <glyph glyph-name="Icircumflex" unicode="&#xce;" horiz-adv-x="638" 
d="M322 1661l-115 -76q-48 -33 -96 -5.5t-49 76t51 85.5q119 66 170 82q37 11 71 0q59 -20 172 -82q54 -30 51 -85t-46 -77.5t-95 6.5zM205 115v1204q0 55 36 85.5t78.5 30.5t78.5 -31t36 -85v-1204q0 -55 -36 -85.5t-78.5 -30.5t-78.5 31t-36 85z" />
    <glyph glyph-name="Idieresis" unicode="&#xcf;" horiz-adv-x="638" 
d="M168 1583q-45 0 -75 26t-30 68q0 44 29.5 69.5t75.5 25.5q45 0 75.5 -25.5t30.5 -69.5q0 -42 -31 -68t-75 -26zM475 1583q-45 0 -75.5 26t-30.5 68q0 44 30 69.5t76 25.5q45 0 75 -25.5t30 -69.5q0 -42 -30.5 -68t-74.5 -26zM205 115v1204q0 55 36 85.5t78.5 30.5
t78.5 -31t36 -85v-1204q0 -55 -36 -85.5t-78.5 -30.5t-78.5 31t-36 85z" />
    <glyph glyph-name="Eth" unicode="&#xd0;" horiz-adv-x="1318" 
d="M244 1434h420q148 0 262 -52t186 -147t108.5 -225.5t36.5 -292.5q0 -332 -153 -524.5t-440 -192.5h-420q-46 0 -78.5 32.5t-32.5 78.5v507h-121q-45 0 -71 31t-26 67.5t25.5 67.5t71.5 31h121v508q0 46 32.5 78.5t78.5 32.5zM356 223h308q370 0 370 494
q0 242 -87.5 367.5t-282.5 125.5h-308v-395h176q46 0 71.5 -31t25.5 -67.5t-26 -67.5t-71 -31h-176v-395z" />
    <glyph glyph-name="Ntilde" unicode="&#xd1;" horiz-adv-x="1290" 
d="M801 1573q-47 0 -89 22.5t-81 45t-78 22.5q-61 0 -82 -41q-21 -36 -57.5 -47t-67 1t-47.5 43.5t-4 70.5q26 72 85 113.5t138 41.5q38 0 72.5 -14.5t56.5 -31.5t51.5 -31.5t57.5 -14.5q44 0 65 41q20 38 55 48t65 -2.5t47.5 -43t6.5 -65.5q-22 -73 -72.5 -115.5
t-121.5 -42.5zM954 43l-592 887v-815q0 -54 -36 -84.5t-78.5 -30.5t-78.5 30.5t-36 84.5v1204q0 51 38 85t87.5 31.5t77.5 -44.5l592 -887v815q0 54 36 84.5t78.5 30.5t78.5 -30.5t36 -84.5v-1204q0 -51 -38 -85t-87.5 -31.5t-77.5 44.5z" />
    <glyph glyph-name="Ograve" unicode="&#xd2;" horiz-adv-x="1415" 
d="M606 1593l-65 142q-37 80 9 128q35 36 85 26q55 -11 74 -70l49 -148q11 -38 4.5 -66.5t-27.5 -42.5t-45 -17t-48 10t-36 38zM709 -12q-143 0 -260 56t-195 154t-120 230.5t-42 286.5q0 205 73 369t214.5 261t329.5 97q143 0 260.5 -57.5t194 -156.5t118 -231t41.5 -282
q0 -207 -74 -371.5t-214.5 -260t-325.5 -95.5zM709 217q79 0 144 25.5t110.5 70.5t76.5 107.5t45.5 136.5t14.5 158q0 224 -99 360.5t-292 136.5q-99 0 -176 -39t-123.5 -107.5t-70.5 -157t-24 -193.5q0 -146 41 -256t131.5 -176t221.5 -66z" />
    <glyph glyph-name="Oacute" unicode="&#xd3;" horiz-adv-x="1415" 
d="M868 1735l-65 -142q-12 -25 -36 -38t-48 -10t-45 17t-27.5 42.5t4.5 66.5l49 148q20 60 75 71q51 9 85 -28q44 -48 8 -127zM709 -12q-143 0 -260 56t-195 154t-120 230.5t-42 286.5q0 205 73 369t214.5 261t329.5 97q143 0 260.5 -57.5t194 -156.5t118 -231t41.5 -282
q0 -207 -74 -371.5t-214.5 -260t-325.5 -95.5zM709 217q79 0 144 25.5t110.5 70.5t76.5 107.5t45.5 136.5t14.5 158q0 224 -99 360.5t-292 136.5q-99 0 -176 -39t-123.5 -107.5t-70.5 -157t-24 -193.5q0 -146 41 -256t131.5 -176t221.5 -66z" />
    <glyph glyph-name="Ocircumflex" unicode="&#xd4;" horiz-adv-x="1415" 
d="M711 1661l-115 -76q-48 -33 -96 -5.5t-49 76t51 85.5q119 66 170 82q37 11 71 0q59 -20 172 -82q54 -30 51 -85t-46 -77.5t-95 6.5zM709 -12q-143 0 -260 56t-195 154t-120 230.5t-42 286.5q0 205 73 369t214.5 261t329.5 97q143 0 260.5 -57.5t194 -156.5t118 -231
t41.5 -282q0 -207 -74 -371.5t-214.5 -260t-325.5 -95.5zM709 217q79 0 144 25.5t110.5 70.5t76.5 107.5t45.5 136.5t14.5 158q0 224 -99 360.5t-292 136.5q-99 0 -176 -39t-123.5 -107.5t-70.5 -157t-24 -193.5q0 -146 41 -256t131.5 -176t221.5 -66z" />
    <glyph glyph-name="Otilde" unicode="&#xd5;" horiz-adv-x="1415" 
d="M864 1573q-47 0 -89 22.5t-81 45t-78 22.5q-60 0 -81 -41q-21 -36 -57.5 -47t-67.5 1t-48 43.5t-4 70.5q26 72 85.5 113.5t138.5 41.5q48 0 89 -23t77 -46t71 -23q45 0 66 41q20 38 55 48t65 -2.5t47.5 -43t6.5 -65.5q-22 -73 -73 -115.5t-122 -42.5zM709 -12
q-143 0 -260 56t-195 154t-120 230.5t-42 286.5q0 205 73 369t214.5 261t329.5 97q143 0 260.5 -57.5t194 -156.5t118 -231t41.5 -282q0 -207 -74 -371.5t-214.5 -260t-325.5 -95.5zM709 217q79 0 144 25.5t110.5 70.5t76.5 107.5t45.5 136.5t14.5 158q0 224 -99 360.5
t-292 136.5q-99 0 -176 -39t-123.5 -107.5t-70.5 -157t-24 -193.5q0 -146 41 -256t131.5 -176t221.5 -66z" />
    <glyph glyph-name="Odieresis" unicode="&#xd6;" horiz-adv-x="1415" 
d="M557 1583q-45 0 -74.5 26t-29.5 68q0 45 29 70t75 25q45 0 76 -25.5t31 -69.5q0 -42 -31.5 -68t-75.5 -26zM864 1583q-45 0 -75.5 26t-30.5 68q0 44 30 69.5t76 25.5q45 0 75 -25.5t30 -69.5q0 -42 -30.5 -68t-74.5 -26zM709 -12q-143 0 -260 56t-195 154t-120 230.5
t-42 286.5q0 205 73 369t214.5 261t329.5 97q143 0 260.5 -57.5t194 -156.5t118 -231t41.5 -282q0 -207 -74 -371.5t-214.5 -260t-325.5 -95.5zM709 217q79 0 144 25.5t110.5 70.5t76.5 107.5t45.5 136.5t14.5 158q0 224 -99 360.5t-292 136.5q-99 0 -176 -39t-123.5 -107.5
t-70.5 -157t-24 -193.5q0 -146 41 -256t131.5 -176t221.5 -66z" />
    <glyph glyph-name="multiply" unicode="&#xd7;" 
d="M420 504l149 149l-149 150q-27 27 -31 61t13.5 60.5t43.5 43.5t60 13.5t61 -31.5l150 -149l149 149q20 20 43.5 27.5t44.5 3t40.5 -16.5t31.5 -32t17 -41t-2 -44.5t-27 -43.5l-150 -150l150 -149q23 -23 29 -51t-3 -52t-28 -43t-43 -28t-52 -3t-51 29l-149 150l-150 -150
q-20 -20 -43.5 -27t-44.5 -2t-40.5 17t-31.5 31.5t-17 40.5t2.5 44.5t27.5 43.5z" />
    <glyph glyph-name="Oslash" unicode="&#xd8;" horiz-adv-x="1548" 
d="M1221 1139l247 307q30 38 77.5 33t63.5 -39.5t-14 -81.5l-307 -381q35 -125 35 -262q0 -207 -74 -371.5t-214.5 -260t-325.5 -95.5q-105 0 -197 30l-10 -14q-53 -66 -113 -51q-39 10 -52 46q-11 31 11 58l25 31q-134 93 -207.5 257.5t-73.5 369.5t73 369t214.5 261
t329.5 97q172 0 303.5 -80.5t208.5 -222.5zM315 715q0 -158 50.5 -276t150.5 -175l551 684q-41 124 -131 194t-227 70q-99 0 -176 -39t-123.5 -107.5t-70.5 -157t-24 -193.5zM1100 715v28l-426 -524q12 -2 35 -2q79 0 144 25.5t110.5 70.5t76.5 107.5t45.5 136.5t14.5 158z
" />
    <glyph glyph-name="Ugrave" unicode="&#xd9;" horiz-adv-x="1310" 
d="M553 1593l-66 142q-37 80 9 128q35 36 85 26q55 -11 74 -70l50 -148q11 -38 4.5 -66.5t-27.5 -42.5t-45 -17t-48 10t-36 38zM655 -10q-238 0 -380 145t-142 377v813q0 50 33.5 79t74 29.5t74 -28.5t33.5 -80v-813q0 -145 80 -226t227 -81q148 0 228 83t80 224v813
q0 50 33.5 79t74 29.5t74 -28.5t33.5 -80v-813q0 -232 -145 -377t-378 -145z" />
    <glyph glyph-name="Uacute" unicode="&#xda;" horiz-adv-x="1310" 
d="M815 1735l-65 -142q-12 -25 -36 -38t-48 -10t-45 17t-27.5 42.5t4.5 66.5l49 148q20 60 75 71q51 9 85 -28q44 -48 8 -127zM655 -10q-238 0 -380 145t-142 377v813q0 50 33.5 79t74 29.5t74 -28.5t33.5 -80v-813q0 -145 80 -226t227 -81q148 0 228 83t80 224v813
q0 50 33.5 79t74 29.5t74 -28.5t33.5 -80v-813q0 -232 -145 -377t-378 -145z" />
    <glyph glyph-name="Ucircumflex" unicode="&#xdb;" horiz-adv-x="1310" 
d="M657 1661l-114 -76q-48 -33 -96 -5.5t-49 76t51 85.5q120 66 169 82q38 11 72 0q59 -20 172 -82q54 -30 51 -85t-46 -77.5t-95 6.5zM655 -10q-238 0 -380 145t-142 377v813q0 50 33.5 79t74 29.5t74 -28.5t33.5 -80v-813q0 -145 80 -226t227 -81q148 0 228 83t80 224v813
q0 50 33.5 79t74 29.5t74 -28.5t33.5 -80v-813q0 -232 -145 -377t-378 -145z" />
    <glyph glyph-name="Udieresis" unicode="&#xdc;" horiz-adv-x="1310" 
d="M504 1583q-45 0 -75 26t-30 68q0 44 29.5 69.5t75.5 25.5q45 0 75.5 -25.5t30.5 -69.5q0 -42 -31 -68t-75 -26zM811 1583q-45 0 -75.5 26t-30.5 68q0 44 30 69.5t76 25.5q45 0 74.5 -25.5t29.5 -69.5q0 -42 -30 -68t-74 -26zM655 -10q-238 0 -380 145t-142 377v813
q0 50 33.5 79t74 29.5t74 -28.5t33.5 -80v-813q0 -145 80 -226t227 -81q148 0 228 83t80 224v813q0 50 33.5 79t74 29.5t74 -28.5t33.5 -80v-813q0 -232 -145 -377t-378 -145z" />
    <glyph glyph-name="Yacute" unicode="&#xdd;" horiz-adv-x="1298" 
d="M809 1735l-66 -142q-12 -25 -35.5 -38t-47.5 -10t-45 17t-27.5 42.5t4.5 66.5l49 148q20 60 75 71q51 9 85 -28q44 -48 8 -127zM537 115l-2 563l-418 569q-25 37 -25 75t23.5 64.5t53.5 41t66.5 5.5t61.5 -42l352 -469l352 469q43 57 107 43.5t87 -69t-13 -118.5
l-420 -569l2 -563q0 -54 -35.5 -84.5t-78 -30.5t-78 30.5t-35.5 84.5z" />
    <glyph glyph-name="Thorn" unicode="&#xde;" horiz-adv-x="1329" 
d="M133 111v1210q0 53 35 83.5t76.5 31t76.5 -30t35 -84.5v-143h246q274 0 434 -117t160 -344q0 -115 -44 -203.5t-123.5 -144.5t-187.5 -84.5t-239 -28.5h-246v-145q0 -42 -23 -70.5t-55.5 -35t-65.5 0.5t-56 35.5t-23 69.5zM356 954v-475h246q371 0 371 238
q0 237 -371 237h-246z" />
    <glyph glyph-name="germandbls" unicode="&#xdf;" horiz-adv-x="1290" 
d="M748 0h-113q-55 0 -85.5 36t-30.5 78.5t31 78.5t85 36h113q49 0 87.5 20.5t59.5 53.5t31.5 72.5t1.5 79.5t-28.5 73t-59.5 53.5t-92 20.5h-113q-55 0 -85.5 36t-30.5 78.5t31 78.5t85 36h35q49 0 88 20.5t60.5 53.5t32 73t2 79.5t-28.5 72.5t-60.5 53.5t-93.5 20.5h-127
q-77 0 -129 -52t-52 -128v-909q0 -55 -36 -85.5t-78.5 -30.5t-78.5 31t-36 85v909q0 178 115.5 294t294.5 116h127q87 0 163 -32.5t128.5 -85.5t85 -124t38.5 -145t-18 -151.5t-78 -141.5q76 -66 118.5 -150t48 -166.5t-20.5 -162.5t-77.5 -140.5t-132.5 -97.5t-177 -37z
" />
    <glyph glyph-name="agrave" unicode="&#xe0;" horiz-adv-x="1253" 
d="M524 1184l-65 141q-37 80 9 128q35 36 85 26q55 -11 74 -70l49 -147q11 -38 4.5 -66.5t-27.5 -42.5t-45 -17t-48 10t-36 38zM1096 162q42 -53 16.5 -111.5t-78.5 -67t-98 39.5q-29 41 -33 112q-143 -153 -334 -153q-202 0 -319 89t-117 253q0 83 31 148t86 105t126 60
t154 20q81 0 172 -28t152 -70q-4 129 -75.5 198.5t-174.5 76.5q-51 4 -105 -7.5t-85 -40.5q-38 -36 -97 -17.5t-78.5 64t23.5 97.5q46 50 135 76t178 26q219 0 346.5 -127t127.5 -330v-276q0 -78 47 -137zM569 197q56 0 113.5 13t102 44t44.5 72q-3 43 -44 71.5t-96.5 40
t-119.5 11.5q-101 0 -161 -31.5t-60 -93.5q0 -65 60.5 -96t160.5 -31z" />
    <glyph glyph-name="aacute" unicode="&#xe1;" horiz-adv-x="1253" 
d="M786 1325l-65 -141q-12 -25 -36 -38t-48 -10t-45 17t-27.5 42.5t4.5 66.5l49 147q20 60 75 71q51 9 85 -28q44 -48 8 -127zM1096 162q42 -53 16.5 -111.5t-78.5 -67t-98 39.5q-29 41 -33 112q-143 -153 -334 -153q-202 0 -319 89t-117 253q0 83 31 148t86 105t126 60
t154 20q81 0 172 -28t152 -70q-4 129 -75.5 198.5t-174.5 76.5q-51 4 -105 -7.5t-85 -40.5q-38 -36 -97 -17.5t-78.5 64t23.5 97.5q46 50 135 76t178 26q219 0 346.5 -127t127.5 -330v-276q0 -78 47 -137zM569 197q56 0 113.5 13t102 44t44.5 72q-3 43 -44 71.5t-96.5 40
t-119.5 11.5q-101 0 -161 -31.5t-60 -93.5q0 -65 60.5 -96t160.5 -31z" />
    <glyph glyph-name="acircumflex" unicode="&#xe2;" horiz-adv-x="1253" 
d="M629 1251l-115 -75q-48 -33 -96 -5.5t-49 75.5t51 85q119 66 170 82q38 11 72 0q59 -20 172 -82q54 -30 50.5 -85t-46 -77t-95.5 7zM1096 162q42 -53 16.5 -111.5t-78.5 -67t-98 39.5q-29 41 -33 112q-143 -153 -334 -153q-202 0 -319 89t-117 253q0 83 31 148t86 105
t126 60t154 20q81 0 172 -28t152 -70q-4 129 -75.5 198.5t-174.5 76.5q-51 4 -105 -7.5t-85 -40.5q-38 -36 -97 -17.5t-78.5 64t23.5 97.5q46 50 135 76t178 26q219 0 346.5 -127t127.5 -330v-276q0 -78 47 -137zM569 197q56 0 113.5 13t102 44t44.5 72q-3 43 -44 71.5
t-96.5 40t-119.5 11.5q-101 0 -161 -31.5t-60 -93.5q0 -65 60.5 -96t160.5 -31z" />
    <glyph glyph-name="atilde" unicode="&#xe3;" horiz-adv-x="1253" 
d="M453 1212q-21 -36 -57.5 -47t-67.5 1t-48 43.5t-4 70.5q26 73 85.5 114.5t138.5 41.5q38 0 72.5 -14.5t56 -32t51 -32t57.5 -14.5q45 0 66 41q20 38 55 48t65 -2.5t47.5 -43t6.5 -65.5q-22 -73 -73 -115.5t-122 -42.5q-47 0 -89 22.5t-80.5 45t-77.5 22.5q-61 0 -82 -41z
M1096 162q42 -53 16.5 -111.5t-78.5 -67t-98 39.5q-29 41 -33 112q-143 -153 -334 -153q-202 0 -319 89t-117 253q0 83 31 148t86 105t126 60t154 20q81 0 172 -28t152 -70q-4 129 -75.5 198.5t-174.5 76.5q-51 4 -105 -7.5t-85 -40.5q-38 -36 -97 -17.5t-78.5 64t23.5 97.5
q46 50 135 76t178 26q219 0 346.5 -127t127.5 -330v-276q0 -78 47 -137zM569 197q56 0 113.5 13t102 44t44.5 72q-3 43 -44 71.5t-96.5 40t-119.5 11.5q-101 0 -161 -31.5t-60 -93.5q0 -65 60.5 -96t160.5 -31z" />
    <glyph glyph-name="adieresis" unicode="&#xe4;" horiz-adv-x="1253" 
d="M475 1174q-45 0 -74.5 26t-29.5 68q0 44 29 69t75 25q45 0 76 -25t31 -69q0 -42 -31.5 -68t-75.5 -26zM782 1174q-45 0 -75.5 26t-30.5 68q0 44 30 69t76 25q45 0 75 -25t30 -69q0 -42 -30.5 -68t-74.5 -26zM1096 162q42 -53 16.5 -111.5t-78.5 -67t-98 39.5
q-29 41 -33 112q-143 -153 -334 -153q-202 0 -319 89t-117 253q0 83 31 148t86 105t126 60t154 20q81 0 172 -28t152 -70q-4 129 -75.5 198.5t-174.5 76.5q-51 4 -105 -7.5t-85 -40.5q-38 -36 -97 -17.5t-78.5 64t23.5 97.5q46 50 135 76t178 26q219 0 346.5 -127
t127.5 -330v-276q0 -78 47 -137zM569 197q56 0 113.5 13t102 44t44.5 72q-3 43 -44 71.5t-96.5 40t-119.5 11.5q-101 0 -161 -31.5t-60 -93.5q0 -65 60.5 -96t160.5 -31z" />
    <glyph glyph-name="aring" unicode="&#xe5;" horiz-adv-x="1253" 
d="M627 1065q-107 0 -181.5 75.5t-74.5 182.5q0 105 74.5 179.5t181.5 74.5q106 0 181 -75t75 -179q0 -107 -75 -182.5t-181 -75.5zM627 1399q-34 0 -56 -22t-22 -54q0 -34 22 -57t56 -23t56 23t22 57q0 32 -22 54t-56 22zM1096 162q42 -53 16.5 -111.5t-78.5 -67t-98 39.5
q-29 41 -33 112q-143 -153 -334 -153q-202 0 -319 89t-117 253q0 83 31 148t86 105t126 60t154 20q81 0 172 -28t152 -70q-4 129 -75.5 198.5t-174.5 76.5q-51 4 -105 -7.5t-85 -40.5q-38 -36 -97 -17.5t-78.5 64t23.5 97.5q46 50 135 76t178 26q219 0 346.5 -127
t127.5 -330v-276q0 -78 47 -137zM569 197q56 0 113.5 13t102 44t44.5 72q-3 43 -44 71.5t-96.5 40t-119.5 11.5q-101 0 -161 -31.5t-60 -93.5q0 -65 60.5 -96t160.5 -31z" />
    <glyph glyph-name="ae" unicode="&#xe6;" horiz-adv-x="2009" 
d="M1663 322q17 27 48 36t61 -0.5t55.5 -29t32 -50t-10.5 -63.5q-127 -225 -485 -225q-234 0 -377 149q-47 -55 -127 -92t-153 -51t-138 -14q-202 0 -319 89t-117 253q0 83 31 148t86 105t126 60t154 20q81 0 172 -28t152 -70q-4 129 -75.5 198.5t-174.5 76.5
q-51 4 -105 -7.5t-85 -40.5q-38 -36 -97 -17.5t-78.5 64t23.5 97.5q46 50 135 76t178 26q263 0 390 -176q67 84 169.5 130t229.5 46q236 0 374 -131.5t138 -353.5q0 -55 -33.5 -76.5t-93.5 -21.5h-676q20 -123 96 -189.5t195 -66.5q92 0 175 31.5t124 97.5zM1364 838
q-103 0 -192.5 -64.5t-98.5 -161.5h572q0 96 -83 161t-198 65zM569 197q56 0 113.5 13t102 44t44.5 72q-3 43 -44 71.5t-96.5 40t-119.5 11.5q-101 0 -161 -31.5t-60 -93.5q0 -65 60.5 -96t160.5 -31z" />
    <glyph glyph-name="ccedilla" unicode="&#xe7;" horiz-adv-x="1292" 
d="M977 293q28 27 63 29.5t61.5 -15.5t43.5 -45t12 -62.5t-35 -64.5q-101 -94 -254 -129q34 -57 29 -132.5t-51 -139.5q-39 -55 -106.5 -82t-135 -15.5t-106.5 60.5q-29 35 -13 76t50.5 52t62.5 -11q27 -25 53.5 -17.5t50.5 39.5q13 18 15 35.5t-5.5 33.5t-16.5 29
t-22.5 29.5t-19.5 28.5q-233 15 -376.5 155t-143.5 365q0 234 160 377t414 143q258 0 413 -143q30 -27 35.5 -61.5t-11 -62.5t-42.5 -47t-61.5 -16.5t-65.5 29.5q-95 86 -268 86q-160 0 -259.5 -78t-99.5 -227q0 -148 96 -227.5t263 -79.5q173 0 270 88z" />
    <glyph glyph-name="egrave" unicode="&#xe8;" horiz-adv-x="1290" 
d="M543 1184l-66 141q-37 80 9 128q35 36 85 26q55 -11 74 -70l49 -147q11 -38 4.5 -66.5t-27.5 -42.5t-45 -17t-47.5 10t-35.5 38zM645 -10q-233 0 -372.5 146.5t-139.5 375.5q0 233 140.5 376.5t371.5 143.5q236 0 374 -131.5t138 -353.5q0 -55 -33.5 -76.5t-93.5 -21.5
h-676q20 -123 96 -189.5t195 -66.5q92 0 175 31.5t124 97.5q17 27 48 36t61 -0.5t55.5 -29t32 -50t-10.5 -63.5q-127 -225 -485 -225zM354 612h572q0 96 -83 161t-198 65q-103 0 -192.5 -64.5t-98.5 -161.5z" />
    <glyph glyph-name="eacute" unicode="&#xe9;" horiz-adv-x="1290" 
d="M805 1325l-66 -141q-12 -25 -35.5 -38t-47.5 -10t-45 17t-27.5 42.5t4.5 66.5l49 147q20 60 75 71q51 9 85 -28q44 -48 8 -127zM645 -10q-233 0 -372.5 146.5t-139.5 375.5q0 233 140.5 376.5t371.5 143.5q236 0 374 -131.5t138 -353.5q0 -55 -33.5 -76.5t-93.5 -21.5
h-676q20 -123 96 -189.5t195 -66.5q92 0 175 31.5t124 97.5q17 27 48 36t61 -0.5t55.5 -29t32 -50t-10.5 -63.5q-127 -225 -485 -225zM354 612h572q0 96 -83 161t-198 65q-103 0 -192.5 -64.5t-98.5 -161.5z" />
    <glyph glyph-name="ecircumflex" unicode="&#xea;" horiz-adv-x="1290" 
d="M647 1251l-115 -75q-48 -33 -96 -5.5t-49 75.5t51 85q119 66 170 82q38 11 72 0q59 -20 172 -82q54 -30 51 -85t-46 -77t-95 7zM645 -10q-233 0 -372.5 146.5t-139.5 375.5q0 233 140.5 376.5t371.5 143.5q236 0 374 -131.5t138 -353.5q0 -55 -33.5 -76.5t-93.5 -21.5
h-676q20 -123 96 -189.5t195 -66.5q92 0 175 31.5t124 97.5q17 27 48 36t61 -0.5t55.5 -29t32 -50t-10.5 -63.5q-127 -225 -485 -225zM354 612h572q0 96 -83 161t-198 65q-103 0 -192.5 -64.5t-98.5 -161.5z" />
    <glyph glyph-name="edieresis" unicode="&#xeb;" horiz-adv-x="1290" 
d="M494 1174q-45 0 -75 26t-30 68q0 44 29.5 69t75.5 25q45 0 75.5 -25t30.5 -69q0 -42 -31 -68t-75 -26zM801 1174q-45 0 -76 26t-31 68q0 44 30.5 69t76.5 25q45 0 74.5 -25t29.5 -69q0 -42 -30 -68t-74 -26zM645 -10q-233 0 -372.5 146.5t-139.5 375.5q0 233 140.5 376.5
t371.5 143.5q236 0 374 -131.5t138 -353.5q0 -55 -33.5 -76.5t-93.5 -21.5h-676q20 -123 96 -189.5t195 -66.5q92 0 175 31.5t124 97.5q17 27 48 36t61 -0.5t55.5 -29t32 -50t-10.5 -63.5q-127 -225 -485 -225zM354 612h572q0 96 -83 161t-198 65q-103 0 -192.5 -64.5
t-98.5 -161.5z" />
    <glyph glyph-name="igrave" unicode="&#xec;" horiz-adv-x="563" 
d="M180 1184l-65 141q-37 80 9 128q35 36 85 26q55 -11 74 -70l49 -147q11 -38 4.5 -66.5t-27.5 -42.5t-45 -17t-48 10t-36 38zM174 109v806q0 41 22 69t53 34.5t62.5 0t53.5 -34.5t22 -69l2 -806q0 -51 -33.5 -80t-74 -29t-74 29t-33.5 80z" />
    <glyph glyph-name="iacute" unicode="&#xed;" horiz-adv-x="563" 
d="M442 1325l-65 -141q-12 -25 -36 -38t-48 -10t-45 17t-27.5 42.5t4.5 66.5l49 147q20 60 75 71q51 9 85 -28q44 -48 8 -127zM174 109v806q0 41 22 69t53 34.5t62.5 0t53.5 -34.5t22 -69l2 -806q0 -51 -33.5 -80t-74 -29t-74 29t-33.5 80z" />
    <glyph glyph-name="icircumflex" unicode="&#xee;" horiz-adv-x="563" 
d="M285 1251l-115 -75q-48 -33 -96 -5.5t-49 75.5t51 85q119 66 170 82q37 11 71 0q59 -20 172 -82q54 -30 51 -85t-46 -77t-95 7zM174 109v806q0 41 22 69t53 34.5t62.5 0t53.5 -34.5t22 -69l2 -806q0 -51 -33.5 -80t-74 -29t-74 29t-33.5 80z" />
    <glyph glyph-name="idieresis" unicode="&#xef;" horiz-adv-x="563" 
d="M131 1174q-45 0 -74.5 26t-29.5 68q0 44 29 69t75 25q45 0 76 -25t31 -69q0 -42 -31.5 -68t-75.5 -26zM438 1174q-45 0 -75.5 26t-30.5 68q0 44 30 69t76 25q45 0 75 -25t30 -69q0 -42 -30.5 -68t-74.5 -26zM174 109v806q0 41 22 69t53 34.5t62.5 0t53.5 -34.5t22 -69
l2 -806q0 -51 -33.5 -80t-74 -29t-74 29t-33.5 80z" />
    <glyph glyph-name="eth" unicode="&#xf0;" horiz-adv-x="1267" 
d="M633 -10q-224 0 -362 140t-138 366q0 223 138 363t362 140q81 0 165 -31t142 -91q-9 150 -70 221l-39 -39q-47 -47 -110 -25.5t-80 75t27 101.5l41 35q-15 13 -32 24t-28.5 17t-27 13.5t-19.5 9.5q-38 21 -30 73q9 54 55 82q54 32 125 -2q69 -38 90 -65l28 33
q27 31 63.5 36t65.5 -13t50 -45.5t18 -64.5t-33 -67l-26 -27q125 -170 125 -446q0 -51 1 -153.5t1 -153.5q0 -224 -139.5 -365t-362.5 -141zM633 213q133 0 205.5 77t72.5 206q0 130 -73 205t-205 75t-204.5 -76.5t-72.5 -203.5q0 -32 4.5 -63t21.5 -73t45 -72.5t81.5 -52.5
t124.5 -22z" />
    <glyph glyph-name="ntilde" unicode="&#xf1;" horiz-adv-x="1251" 
d="M492 1212q-21 -36 -57.5 -47t-67.5 1t-48 43.5t-4 70.5q26 73 85.5 114.5t138.5 41.5q38 0 72.5 -14.5t56 -32t51 -32t57.5 -14.5q45 0 66 41q20 38 55 48t65 -2.5t47.5 -43t6.5 -65.5q-22 -73 -73 -115.5t-122 -42.5q-47 0 -89 22.5t-81 45t-78 22.5q-60 0 -81 -41z
M659 1040q220 0 339.5 -132.5t119.5 -356.5v-442q0 -51 -33.5 -79t-74 -27t-74 29.5t-33.5 76.5v442q0 135 -57 204.5t-184 69.5q-244 0 -244 -297v-419q0 -51 -33.5 -79.5t-74 -28t-74 29t-33.5 78.5v608q0 76 -45 137q-24 33 -24 67.5t22.5 59.5t51 38.5t63 5t57.5 -41.5
q27 -31 45 -92q106 149 286 149z" />
    <glyph glyph-name="ograve" unicode="&#xf2;" horiz-adv-x="1392" 
d="M594 1184l-66 141q-37 80 9 128q35 36 85 26q55 -11 74 -70l49 -147q11 -38 4.5 -66.5t-27.5 -42.5t-45 -17t-47.5 10t-35.5 38zM696 -10q-254 0 -408.5 145.5t-154.5 376.5q0 232 157 377t406 145q252 0 408 -146.5t156 -375.5q0 -231 -157.5 -376.5t-406.5 -145.5z
M696 205q164 0 256 83.5t92 223.5q0 144 -92.5 225.5t-255.5 81.5q-164 0 -256 -83t-92 -224q0 -144 92.5 -225.5t255.5 -81.5z" />
    <glyph glyph-name="oacute" unicode="&#xf3;" horiz-adv-x="1392" 
d="M856 1325l-65 -141q-12 -25 -36 -38t-48 -10t-45 17t-27.5 42.5t4.5 66.5l49 147q20 60 75 71q51 9 85 -28q44 -48 8 -127zM696 -10q-254 0 -408.5 145.5t-154.5 376.5q0 232 157 377t406 145q252 0 408 -146.5t156 -375.5q0 -231 -157.5 -376.5t-406.5 -145.5zM696 205
q164 0 256 83.5t92 223.5q0 144 -92.5 225.5t-255.5 81.5q-164 0 -256 -83t-92 -224q0 -144 92.5 -225.5t255.5 -81.5z" />
    <glyph glyph-name="ocircumflex" unicode="&#xf4;" horiz-adv-x="1392" 
d="M698 1251l-114 -75q-48 -33 -96.5 -5.5t-49.5 75.5t51 85q119 66 170 82q38 11 72 0q59 -20 172 -82q54 -30 51 -85t-46 -77t-95 7zM696 -10q-254 0 -408.5 145.5t-154.5 376.5q0 232 157 377t406 145q252 0 408 -146.5t156 -375.5q0 -231 -157.5 -376.5t-406.5 -145.5z
M696 205q164 0 256 83.5t92 223.5q0 144 -92.5 225.5t-255.5 81.5q-164 0 -256 -83t-92 -224q0 -144 92.5 -225.5t255.5 -81.5z" />
    <glyph glyph-name="otilde" unicode="&#xf5;" horiz-adv-x="1392" 
d="M852 1163q-47 0 -89 22.5t-81 45t-78 22.5q-61 0 -82 -41q-21 -36 -57.5 -47t-67 1t-47.5 43.5t-4 70.5q26 73 85 114.5t138 41.5q38 0 72.5 -14.5t56.5 -32t51.5 -32t57.5 -14.5q44 0 65 41q27 50 76 53t81.5 -33t17.5 -83q-22 -73 -73 -115.5t-122 -42.5zM696 -10
q-254 0 -408.5 145.5t-154.5 376.5q0 232 157 377t406 145q252 0 408 -146.5t156 -375.5q0 -231 -157.5 -376.5t-406.5 -145.5zM696 205q164 0 256 83.5t92 223.5q0 144 -92.5 225.5t-255.5 81.5q-164 0 -256 -83t-92 -224q0 -144 92.5 -225.5t255.5 -81.5z" />
    <glyph glyph-name="odieresis" unicode="&#xf6;" horiz-adv-x="1392" 
d="M545 1174q-45 0 -75 26t-30 68q0 44 29.5 69t75.5 25q45 0 75.5 -25t30.5 -69q0 -42 -31 -68t-75 -26zM852 1174q-45 0 -76 26t-31 68q0 44 30.5 69t76.5 25q45 0 74.5 -25t29.5 -69q0 -42 -30 -68t-74 -26zM696 -10q-254 0 -408.5 145.5t-154.5 376.5q0 232 157 377
t406 145q252 0 408 -146.5t156 -375.5q0 -231 -157.5 -376.5t-406.5 -145.5zM696 205q164 0 256 83.5t92 223.5q0 144 -92.5 225.5t-255.5 81.5q-164 0 -256 -83t-92 -224q0 -144 92.5 -225.5t255.5 -81.5z" />
    <glyph glyph-name="divide" unicode="&#xf7;" horiz-adv-x="1224" 
d="M606 762q-58 0 -96.5 33.5t-38.5 87.5q0 55 38 86.5t97 31.5q57 0 96 -31.5t39 -86.5q0 -54 -39.5 -87.5t-95.5 -33.5zM1006 440h-787q-45 0 -71 31t-26 67.5t25.5 67.5t71.5 31h787q46 0 71.5 -31t25.5 -67.5t-26 -67.5t-71 -31zM606 68q-58 0 -96.5 33t-38.5 87
q0 55 38 87t97 32q57 0 96 -32t39 -87q0 -54 -39.5 -87t-95.5 -33z" />
    <glyph glyph-name="oslash" unicode="&#xf8;" horiz-adv-x="1392" 
d="M1149 950l-49 -59q160 -147 160 -379q0 -231 -157.5 -376.5t-406.5 -145.5q-153 0 -276 57l-51 -63q-39 -49 -94 -41q-43 6 -55 42q-12 34 20 74l55 70q-162 146 -162 383q0 232 157 377t406 145q154 0 277 -57l43 53q45 59 102 52q44 -5 56 -42q14 -41 -25 -90zM348 512
q0 -136 82 -215l404 504q-62 18 -138 18q-164 0 -256 -83t-92 -224zM696 205q164 0 256 83.5t92 223.5q0 133 -77 213l-406 -502q61 -18 135 -18z" />
    <glyph glyph-name="ugrave" unicode="&#xf9;" horiz-adv-x="1292" 
d="M510 1184l-66 141q-37 80 9 128q35 36 85 26q55 -11 74 -70l50 -147q11 -38 4.5 -66.5t-27.5 -42.5t-45 -17t-48 10t-36 38zM1135 174q24 -33 24 -67.5t-22.5 -59.5t-51 -38.5t-63 -5t-57.5 41.5q-25 28 -37 113q-51 -76 -135 -123t-181 -47q-220 0 -349.5 143
t-129.5 367v422q0 51 33.5 79t74 27t74 -29.5t33.5 -76.5v-422q0 -135 67.5 -215t194.5 -80q130 0 197 81t67 216v420q0 34 16 59t40 36t52 11t52 -11.5t40 -36t16 -58.5v-609q0 -76 45 -137z" />
    <glyph glyph-name="uacute" unicode="&#xfa;" horiz-adv-x="1292" 
d="M772 1325l-65 -141q-12 -25 -36 -38t-48 -10t-45 17t-27.5 42.5t4.5 66.5l49 147q20 60 75 71q51 9 85 -28q44 -48 8 -127zM1135 174q24 -33 24 -67.5t-22.5 -59.5t-51 -38.5t-63 -5t-57.5 41.5q-25 28 -37 113q-51 -76 -135 -123t-181 -47q-220 0 -349.5 143t-129.5 367
v422q0 51 33.5 79t74 27t74 -29.5t33.5 -76.5v-422q0 -135 67.5 -215t194.5 -80q130 0 197 81t67 216v420q0 34 16 59t40 36t52 11t52 -11.5t40 -36t16 -58.5v-609q0 -76 45 -137z" />
    <glyph glyph-name="ucircumflex" unicode="&#xfb;" horiz-adv-x="1292" 
d="M614 1251l-114 -75q-48 -33 -96 -5.5t-49 75.5t51 85q120 66 169 82q38 11 72 0q59 -20 172 -82q54 -30 51 -85t-46 -77t-95 7zM1135 174q24 -33 24 -67.5t-22.5 -59.5t-51 -38.5t-63 -5t-57.5 41.5q-25 28 -37 113q-51 -76 -135 -123t-181 -47q-220 0 -349.5 143
t-129.5 367v422q0 51 33.5 79t74 27t74 -29.5t33.5 -76.5v-422q0 -135 67.5 -215t194.5 -80q130 0 197 81t67 216v420q0 34 16 59t40 36t52 11t52 -11.5t40 -36t16 -58.5v-609q0 -76 45 -137z" />
    <glyph glyph-name="udieresis" unicode="&#xfc;" horiz-adv-x="1292" 
d="M461 1174q-45 0 -75 26t-30 68q0 44 29.5 69t75.5 25q45 0 75.5 -25t30.5 -69q0 -42 -31 -68t-75 -26zM768 1174q-45 0 -75.5 26t-30.5 68q0 44 30 69t76 25q45 0 74.5 -25t29.5 -69q0 -42 -30 -68t-74 -26zM1135 174q24 -33 24 -67.5t-22.5 -59.5t-51 -38.5t-63 -5
t-57.5 41.5q-25 28 -37 113q-51 -76 -135 -123t-181 -47q-220 0 -349.5 143t-129.5 367v422q0 51 33.5 79t74 27t74 -29.5t33.5 -76.5v-422q0 -135 67.5 -215t194.5 -80q130 0 197 81t67 216v420q0 34 16 59t40 36t52 11t52 -11.5t40 -36t16 -58.5v-609q0 -76 45 -137z" />
    <glyph glyph-name="yacute" unicode="&#xfd;" horiz-adv-x="1265" 
d="M758 1325l-66 -141q-12 -25 -35.5 -38t-47.5 -10t-45 17t-27.5 42.5t4.5 66.5l49 147q20 60 75 71q51 9 85 -28q44 -48 8 -127zM598 240l320 721q28 63 91 65t102 -48t9 -114l-522 -1130q-47 -88 -135 -133t-180.5 -41.5t-182 49t-141.5 125.5q-22 37 -20 72.5t26.5 59.5
t55 36t66 1t58.5 -46q42 -61 128.5 -72t125.5 51l88 176l-411 850q-16 39 -8.5 74t36 56t60.5 29t65 -8.5t50 -54.5z" />
    <glyph glyph-name="thorn" unicode="&#xfe;" horiz-adv-x="1222" 
d="M133 -387v1759q0 43 23 72t55.5 36t64.5 0t55 -36t23 -72v-454q89 110 258 110q147 0 256.5 -68t165.5 -185t56 -265q0 -227 -131.5 -373.5t-346.5 -146.5q-72 0 -142.5 20t-121.5 53v-450q0 -49 -33.5 -77.5t-74 -29t-74 27.5t-33.5 79zM612 205q129 0 195.5 84
t66.5 221q0 139 -66.5 221t-195.5 82q-130 0 -196 -83.5t-66 -219.5q0 -140 67.5 -222.5t194.5 -82.5z" />
    <glyph glyph-name="ydieresis" unicode="&#xff;" horiz-adv-x="1265" 
d="M446 1174q-45 0 -74.5 26t-29.5 68q0 44 29 69t75 25q45 0 76 -25t31 -69q0 -42 -31.5 -68t-75.5 -26zM754 1174q-45 0 -76 26t-31 68q0 44 30.5 69t76.5 25q45 0 74.5 -25t29.5 -69q0 -42 -30 -68t-74 -26zM598 240l320 721q28 63 91 65t102 -48t9 -114l-522 -1130
q-47 -88 -135 -133t-180.5 -41.5t-182 49t-141.5 125.5q-22 37 -20 72.5t26.5 59.5t55 36t66 1t58.5 -46q42 -61 128.5 -72t125.5 51l88 176l-411 850q-16 39 -8.5 74t36 56t60.5 29t65 -8.5t50 -54.5z" />
    <glyph glyph-name="Amacron" unicode="&#x100;" horiz-adv-x="1312" 
d="M831 1597h-354q-46 0 -72 31t-26.5 68.5t26 68.5t72.5 31h354q46 0 72.5 -31t26 -68.5t-26.5 -68.5t-72 -31zM377 313l-88 -237q-28 -74 -93.5 -83t-108.5 39.5t-17 114.5l481 1217q10 28 31.5 46.5t47.5 23.5t52 0t47.5 -23.5t30.5 -46.5l483 -1219q26 -66 -17.5 -112
t-108 -39t-89.5 72l-94 247h-557zM655 1090l-213 -547h428z" />
    <glyph glyph-name="amacron" unicode="&#x101;" horiz-adv-x="1253" 
d="M803 1188h-354q-46 0 -72 31t-26.5 68t26 68t72.5 31h354q46 0 72.5 -31t26 -68t-26.5 -68t-72 -31zM1096 162q42 -53 16.5 -111.5t-78.5 -67t-98 39.5q-29 41 -33 112q-143 -153 -334 -153q-202 0 -319 89t-117 253q0 83 31 148t86 105t126 60t154 20q81 0 172 -28
t152 -70q-4 129 -75.5 198.5t-174.5 76.5q-51 4 -105 -7.5t-85 -40.5q-38 -36 -97 -17.5t-78.5 64t23.5 97.5q46 50 135 76t178 26q219 0 346.5 -127t127.5 -330v-276q0 -78 47 -137zM569 197q56 0 113.5 13t102 44t44.5 72q-3 43 -44 71.5t-96.5 40t-119.5 11.5
q-101 0 -161 -31.5t-60 -93.5q0 -65 60.5 -96t160.5 -31z" />
    <glyph glyph-name="Abreve" unicode="&#x102;" horiz-adv-x="1312" 
d="M655 1536q-96 0 -170 58.5t-98 148.5q-13 41 30.5 68.5t100.5 18.5t76 -58q19 -47 61 -47t62 47q25 59 96 63q59 3 94 -32q28 -26 17 -60q-23 -90 -98 -148.5t-171 -58.5zM377 313l-88 -237q-28 -74 -93.5 -83t-108.5 39.5t-17 114.5l481 1217q10 28 31.5 46.5t47.5 23.5
t52 0t47.5 -23.5t30.5 -46.5l483 -1219q26 -66 -17.5 -112t-108 -39t-89.5 72l-94 247h-557zM655 1090l-213 -547h428z" />
    <glyph glyph-name="abreve" unicode="&#x103;" horiz-adv-x="1253" 
d="M627 1126q-96 0 -171 58.5t-98 148.5q-13 41 30.5 68.5t100.5 18.5t76 -58q19 -47 61 -47t62 47q25 59 96 63q59 3 94 -32q28 -26 17 -60q-24 -90 -98 -148.5t-170 -58.5zM1096 162q42 -53 16.5 -111.5t-78.5 -67t-98 39.5q-29 41 -33 112q-143 -153 -334 -153
q-202 0 -319 89t-117 253q0 83 31 148t86 105t126 60t154 20q81 0 172 -28t152 -70q-4 129 -75.5 198.5t-174.5 76.5q-51 4 -105 -7.5t-85 -40.5q-38 -36 -97 -17.5t-78.5 64t23.5 97.5q46 50 135 76t178 26q219 0 346.5 -127t127.5 -330v-276q0 -78 47 -137zM569 197
q56 0 113.5 13t102 44t44.5 72q-3 43 -44 71.5t-96.5 40t-119.5 11.5q-101 0 -161 -31.5t-60 -93.5q0 -65 60.5 -96t160.5 -31z" />
    <glyph glyph-name="Aogonek" unicode="&#x104;" horiz-adv-x="1312" 
d="M760 1364l483 -1219q26 -66 -17.5 -112t-108 -39t-89.5 72q-6 -10 -19.5 -27t-22 -29.5t-15.5 -28.5t-4.5 -33t14.5 -34q24 -32 50.5 -40t53.5 17q25 26 63 11t51 -51t-13 -76q-39 -49 -106.5 -60.5t-135 15.5t-106.5 82q-53 79 -51 162.5t51 144.5q30 40 74.5 53
t74.5 -2l-53 143h-557l-88 -237q-28 -74 -93.5 -83t-108.5 39.5t-17 114.5l481 1217q10 28 31.5 46.5t47.5 23.5t52 0t47.5 -23.5t30.5 -46.5zM655 1090l-213 -547h428z" />
    <glyph glyph-name="aogonek" unicode="&#x105;" horiz-adv-x="1253" 
d="M1163 -137q25 26 63 11t51 -51.5t-13 -76.5q-39 -49 -107 -60.5t-135.5 15.5t-106.5 82q-52 76 -51.5 157t45.5 142q-6 42 -6 53q-143 -153 -334 -153q-202 0 -319 89t-117 253q0 83 31 148t86 105t126 60t154 20q81 0 172 -28t152 -70q-4 129 -75.5 198.5t-174.5 76.5
q-51 4 -105 -7.5t-85 -40.5q-38 -36 -97 -17.5t-78.5 64t23.5 97.5q46 50 135 76t178 26q219 0 346.5 -127t127.5 -330v-276q0 -78 47 -137q35 -44 22 -92q-2 -19 -20 -44t-32.5 -43t-20.5 -45.5t14 -52.5q24 -32 50.5 -39.5t53.5 17.5zM569 197q56 0 113.5 13t102 44
t44.5 72q-3 43 -44 71.5t-96.5 40t-119.5 11.5q-101 0 -161 -31.5t-60 -93.5q0 -65 60.5 -96t160.5 -31z" />
    <glyph glyph-name="Cacute" unicode="&#x106;" horiz-adv-x="1185" 
d="M815 1735l-65 -142q-12 -25 -36 -38t-48 -10t-45 17t-27.5 42.5t4.5 66.5l49 148q20 60 75 71q51 9 85 -28q44 -48 8 -127zM655 -10q-186 0 -322.5 98t-204 260.5t-67.5 368.5q0 155 40.5 287.5t115.5 230.5t187.5 153.5t250.5 55.5q135 0 249.5 -55t193.5 -160
q24 -36 24 -71.5t-23 -61t-53 -39t-65 -4.5t-59 41q-100 127 -267 127q-94 0 -167 -40.5t-116 -111t-65 -159.5t-22 -193q0 -107 22 -197t66 -159.5t116 -108.5t166 -39q173 0 267 129q25 33 61 42t66 -4.5t53.5 -39t23 -61.5t-25.5 -70q-78 -105 -194.5 -162t-250.5 -57z
" />
    <glyph glyph-name="cacute" unicode="&#x107;" horiz-adv-x="1292" 
d="M868 1325l-65 -141q-12 -25 -36 -38t-48 -10t-45 17t-27.5 42.5t4.5 66.5l49 147q20 60 75 71q51 9 85 -28q44 -48 8 -127zM707 -10q-255 0 -414.5 141.5t-159.5 380.5q0 234 160 377t414 143q258 0 413 -143q30 -27 35.5 -61.5t-11 -62.5t-42.5 -47t-61.5 -16.5
t-65.5 29.5q-95 86 -268 86q-160 0 -259.5 -78t-99.5 -227q0 -148 96 -227.5t263 -79.5q173 0 270 88q28 27 63 29.5t61.5 -15.5t43.5 -45t12 -62.5t-35 -64.5q-157 -145 -415 -145z" />
    <glyph glyph-name="Cdotaccent" unicode="&#x10a;" horiz-adv-x="1185" 
d="M655 1663q-58 0 -96.5 33.5t-38.5 87.5q0 55 38 87t97 32q57 0 96.5 -32t39.5 -87q0 -54 -40 -87.5t-96 -33.5zM655 -10q-186 0 -322.5 98t-204 260.5t-67.5 368.5q0 155 40.5 287.5t115.5 230.5t187.5 153.5t250.5 55.5q135 0 249.5 -55t193.5 -160q24 -36 24 -71.5
t-23 -61t-53 -39t-65 -4.5t-59 41q-100 127 -267 127q-94 0 -167 -40.5t-116 -111t-65 -159.5t-22 -193q0 -107 22 -197t66 -159.5t116 -108.5t166 -39q173 0 267 129q25 33 61 42t66 -4.5t53.5 -39t23 -61.5t-25.5 -70q-78 -105 -194.5 -162t-250.5 -57z" />
    <glyph glyph-name="cdotaccent" unicode="&#x10b;" horiz-adv-x="1292" 
d="M709 1253q-58 0 -97 33.5t-39 87.5q0 55 38.5 87t97.5 32q57 0 96 -32t39 -87q0 -54 -39.5 -87.5t-95.5 -33.5zM707 -10q-255 0 -414.5 141.5t-159.5 380.5q0 234 160 377t414 143q258 0 413 -143q30 -27 35.5 -61.5t-11 -62.5t-42.5 -47t-61.5 -16.5t-65.5 29.5
q-95 86 -268 86q-160 0 -259.5 -78t-99.5 -227q0 -148 96 -227.5t263 -79.5q173 0 270 88q28 27 63 29.5t61.5 -15.5t43.5 -45t12 -62.5t-35 -64.5q-157 -145 -415 -145z" />
    <glyph glyph-name="Ccaron" unicode="&#x10c;" horiz-adv-x="1185" 
d="M539 1772l114 -76l115 76q49 35 95 6.5t46 -77.5t-51 -85q-113 -62 -172 -82q-34 -11 -72 0q-51 16 -170 82q-56 31 -51 85.5t49.5 76t96.5 -5.5zM655 -10q-186 0 -322.5 98t-204 260.5t-67.5 368.5q0 155 40.5 287.5t115.5 230.5t187.5 153.5t250.5 55.5
q135 0 249.5 -55t193.5 -160q24 -36 24 -71.5t-23 -61t-53 -39t-65 -4.5t-59 41q-100 127 -267 127q-94 0 -167 -40.5t-116 -111t-65 -159.5t-22 -193q0 -107 22 -197t66 -159.5t116 -108.5t166 -39q173 0 267 129q25 33 61 42t66 -4.5t53.5 -39t23 -61.5t-25.5 -70
q-78 -105 -194.5 -162t-250.5 -57z" />
    <glyph glyph-name="ccaron" unicode="&#x10d;" horiz-adv-x="1292" 
d="M592 1362l115 -76l114 76q49 35 95 6.5t46 -77.5t-51 -85q-113 -62 -172 -82q-34 -11 -71 0q-51 16 -170 82q-56 31 -51.5 85.5t49 76t96.5 -5.5zM707 -10q-255 0 -414.5 141.5t-159.5 380.5q0 234 160 377t414 143q258 0 413 -143q30 -27 35.5 -61.5t-11 -62.5
t-42.5 -47t-61.5 -16.5t-65.5 29.5q-95 86 -268 86q-160 0 -259.5 -78t-99.5 -227q0 -148 96 -227.5t263 -79.5q173 0 270 88q28 27 63 29.5t61.5 -15.5t43.5 -45t12 -62.5t-35 -64.5q-157 -145 -415 -145z" />
    <glyph glyph-name="Dcaron" unicode="&#x10e;" horiz-adv-x="1390" 
d="M408 1616q-56 31 -51.5 85.5t49 76t96.5 -5.5l114 -76l115 76q49 35 95 6.5t46 -77.5t-51 -85q-113 -62 -172 -82q-34 -11 -71 0q-51 16 -170 82zM244 1434h420q148 0 262 -52t186 -147t108.5 -225.5t36.5 -292.5q0 -332 -153 -524.5t-440 -192.5h-420q-46 0 -78.5 32.5
t-32.5 78.5v1212q0 46 32.5 78.5t78.5 32.5zM356 223h308q370 0 370 494q0 242 -87.5 367.5t-282.5 125.5h-308v-987z" />
    <glyph glyph-name="dcaron" unicode="&#x10f;" horiz-adv-x="1626" 
d="M1137 170q23 -33 23 -66.5t-21.5 -57.5t-50 -37t-63 -5.5t-60.5 37.5q-32 38 -39 96v15q-58 -75 -148 -116.5t-168 -41.5q-224 0 -350.5 145t-126.5 383q0 218 124 363t316 145q96 0 175 -41.5t129 -124.5v291q-38 -8 -72 11t-37 59l-18 297q-3 48 46 69.5t102 5.5
t60 -61q48 11 91 -16.5t43 -85.5v-1127q0 -80 45 -137zM610 207q132 0 197 84.5t65 230.5q0 132 -66 212.5t-196 80.5q-129 0 -196.5 -78.5t-67.5 -214.5q0 -146 64.5 -230.5t199.5 -84.5z" />
    <glyph glyph-name="Dcroat" unicode="&#x110;" horiz-adv-x="1318" 
d="M244 1434h420q148 0 262 -52t186 -147t108.5 -225.5t36.5 -292.5q0 -332 -153 -524.5t-440 -192.5h-420q-46 0 -78.5 32.5t-32.5 78.5v507h-121q-45 0 -71 31t-26 67.5t25.5 67.5t71.5 31h121v508q0 46 32.5 78.5t78.5 32.5zM356 223h308q370 0 370 494
q0 242 -87.5 367.5t-282.5 125.5h-308v-395h176q46 0 71.5 -31t25.5 -67.5t-26 -67.5t-71 -31h-176v-395z" />
    <glyph glyph-name="dcroat" unicode="&#x111;" horiz-adv-x="1441" 
d="M1092 1341h120q46 0 71.5 -30.5t25.5 -67.5t-26 -67.5t-71 -30.5h-120v-838q0 -80 45 -137q23 -33 23 -66.5t-21.5 -57.5t-50 -37t-63 -5.5t-60.5 37.5q-32 38 -39 96v15q-58 -75 -148 -116.5t-168 -41.5q-224 0 -350.5 145t-126.5 383q0 218 124 363t316 145
q96 0 175 -41.5t129 -124.5v281h-218q-45 0 -71 30.5t-26 67.5t25.5 67.5t71.5 30.5h218v93q0 51 33.5 79t74 27.5t74 -29t33.5 -77.5v-93zM610 207q132 0 197 84.5t65 230.5q0 132 -66 212.5t-196 80.5q-129 0 -196.5 -78.5t-67.5 -214.5q0 -146 64.5 -230.5t199.5 -84.5z
" />
    <glyph glyph-name="Emacron" unicode="&#x112;" horiz-adv-x="1290" 
d="M827 1597h-354q-46 0 -72 31t-26.5 68.5t26 68.5t72.5 31h354q46 0 72.5 -31t26 -68.5t-26.5 -68.5t-72 -31zM1042 0h-778q-54 0 -92.5 37.5t-38.5 91.5v1176q0 54 38.5 91.5t92.5 37.5h778q47 0 81 -34t34 -81t-34 -81t-81 -34h-680v-332h482q54 0 84.5 -35t30.5 -76.5
t-30.5 -76.5t-84.5 -35h-482v-420h680q47 0 81 -33.5t34 -80.5t-34 -81t-81 -34z" />
    <glyph glyph-name="emacron" unicode="&#x113;" horiz-adv-x="1290" 
d="M821 1188h-354q-46 0 -72 31t-26.5 68t26 68t72.5 31h354q46 0 72.5 -31t26 -68t-26.5 -68t-72 -31zM645 -10q-233 0 -372.5 146.5t-139.5 375.5q0 233 140.5 376.5t371.5 143.5q236 0 374 -131.5t138 -353.5q0 -55 -33.5 -76.5t-93.5 -21.5h-676q20 -123 96 -189.5
t195 -66.5q92 0 175 31.5t124 97.5q17 27 48 36t61 -0.5t55.5 -29t32 -50t-10.5 -63.5q-127 -225 -485 -225zM354 612h572q0 96 -83 161t-198 65q-103 0 -192.5 -64.5t-98.5 -161.5z" />
    <glyph glyph-name="Edotaccent" unicode="&#x116;" horiz-adv-x="1290" 
d="M651 1663q-58 0 -96.5 33.5t-38.5 87.5q0 55 38 87t97 32q57 0 96 -32t39 -87q0 -54 -39.5 -87.5t-95.5 -33.5zM1042 0h-778q-54 0 -92.5 37.5t-38.5 91.5v1176q0 54 38.5 91.5t92.5 37.5h778q47 0 81 -34t34 -81t-34 -81t-81 -34h-680v-332h482q54 0 84.5 -35
t30.5 -76.5t-30.5 -76.5t-84.5 -35h-482v-420h680q47 0 81 -33.5t34 -80.5t-34 -81t-81 -34z" />
    <glyph glyph-name="edotaccent" unicode="&#x117;" horiz-adv-x="1290" 
d="M645 1253q-58 0 -96.5 33.5t-38.5 87.5q0 55 38 87t97 32q57 0 96 -32t39 -87q0 -54 -39.5 -87.5t-95.5 -33.5zM645 -10q-233 0 -372.5 146.5t-139.5 375.5q0 233 140.5 376.5t371.5 143.5q236 0 374 -131.5t138 -353.5q0 -55 -33.5 -76.5t-93.5 -21.5h-676
q20 -123 96 -189.5t195 -66.5q92 0 175 31.5t124 97.5q17 27 48 36t61 -0.5t55.5 -29t32 -50t-10.5 -63.5q-127 -225 -485 -225zM354 612h572q0 96 -83 161t-198 65q-103 0 -192.5 -64.5t-98.5 -161.5z" />
    <glyph glyph-name="Eogonek" unicode="&#x118;" horiz-adv-x="1290" 
d="M1196 -123q25 26 63 11t50.5 -51.5t-13.5 -76.5q-39 -49 -106.5 -60.5t-135 15.5t-106.5 82q-67 94 -47 203h-637q-54 0 -92.5 37.5t-38.5 91.5v1176q0 54 38.5 91.5t92.5 37.5h778q47 0 81 -34t34 -81t-34 -81t-81 -34h-680v-332h482q54 0 84.5 -35t30.5 -76.5
t-30.5 -76.5t-84.5 -35h-482v-420h680q47 0 81 -33.5t34 -80.5q0 -17 -8 -45q-5 -14 -18 -31.5t-25 -32.5t-21 -31.5t-8 -35.5t15 -39q24 -32 50.5 -40t53.5 17z" />
    <glyph glyph-name="eogonek" unicode="&#x119;" horiz-adv-x="1290" 
d="M1149 -4q25 26 63 11t50.5 -51.5t-13.5 -76.5q-39 -49 -106.5 -60.5t-135 15.5t-106.5 82q-33 44 -45 98q-88 -24 -211 -24q-233 0 -372.5 146.5t-139.5 375.5q0 233 140.5 376.5t371.5 143.5q236 0 374 -131.5t138 -353.5q0 -55 -33.5 -76.5t-93.5 -21.5h-676
q20 -123 96 -189.5t195 -66.5q92 0 175 31.5t124 97.5q17 27 48 36t61 -0.5t55.5 -29t32 -50t-10.5 -63.5q-31 -55 -81 -102q-11 -18 -16 -30t-3.5 -30t14.5 -35q24 -32 51 -39.5t54 17.5zM645 838q-103 0 -192.5 -64.5t-98.5 -161.5h572q0 96 -83 161t-198 65z" />
    <glyph glyph-name="Ecaron" unicode="&#x11a;" horiz-adv-x="1290" 
d="M535 1772l114 -76l115 76q49 35 95 6.5t46 -77.5t-51 -85q-113 -62 -172 -82q-34 -11 -72 0q-51 16 -170 82q-56 31 -51 85.5t49.5 76t96.5 -5.5zM1042 0h-778q-54 0 -92.5 37.5t-38.5 91.5v1176q0 54 38.5 91.5t92.5 37.5h778q47 0 81 -34t34 -81t-34 -81t-81 -34h-680
v-332h482q54 0 84.5 -35t30.5 -76.5t-30.5 -76.5t-84.5 -35h-482v-420h680q47 0 81 -33.5t34 -80.5t-34 -81t-81 -34z" />
    <glyph glyph-name="ecaron" unicode="&#x11b;" horiz-adv-x="1290" 
d="M528 1362l115 -76l115 76q49 35 95 6.5t46 -77.5t-51 -85q-113 -62 -172 -82q-34 -11 -72 0q-51 16 -170 82q-56 31 -51.5 85.5t49 76t96.5 -5.5zM645 -10q-233 0 -372.5 146.5t-139.5 375.5q0 233 140.5 376.5t371.5 143.5q236 0 374 -131.5t138 -353.5
q0 -55 -33.5 -76.5t-93.5 -21.5h-676q20 -123 96 -189.5t195 -66.5q92 0 175 31.5t124 97.5q17 27 48 36t61 -0.5t55.5 -29t32 -50t-10.5 -63.5q-127 -225 -485 -225zM354 612h572q0 96 -83 161t-198 65q-103 0 -192.5 -64.5t-98.5 -161.5z" />
    <glyph glyph-name="Gbreve" unicode="&#x11e;" horiz-adv-x="1355" 
d="M678 1536q-96 0 -170 58.5t-98 148.5q-13 41 30.5 68.5t100 18.5t75.5 -58q19 -47 61 -47t62 47q25 59 96 63q59 3 94 -32q28 -26 17 -60q-24 -90 -98 -148.5t-170 -58.5zM711 -10q-201 0 -350 95t-224.5 258.5t-75.5 373.5t77.5 374t226.5 258.5t348 94.5
q301 0 481 -211q19 -22 25 -47.5t-1 -46.5t-21 -40t-35 -29.5t-43.5 -14t-46 6t-42.5 30.5q-114 135 -317 135q-208 0 -321 -140t-113 -370q0 -149 46 -262t145 -180.5t241 -67.5q179 0 290 108v293h-358q-51 0 -80 34t-28.5 74.5t29.5 74.5t79 34h467q44 0 76.5 -32.5
t32.5 -77.5v-443q0 -39 -27 -69q-179 -213 -481 -213z" />
    <glyph glyph-name="gbreve" unicode="&#x11f;" horiz-adv-x="1253" 
d="M647 1126q-96 0 -170 58.5t-98 148.5q-13 41 30.5 68.5t100.5 18.5t76 -58q19 -47 61 -47t62 47q25 60 96 63q59 3 94 -32q27 -27 16 -60q-24 -90 -98 -148.5t-170 -58.5zM967 979q17 23 40 34.5t45 9.5t43.5 -11.5t36.5 -27.5t23.5 -39t4.5 -46.5t-21 -48.5
q-33 -44 -41 -90q0 -135 1 -406.5t1 -406.5q0 -138 -69.5 -243.5t-183.5 -159.5t-253 -54q-123 0 -227.5 41.5t-169 121t-64.5 179.5q0 41 22.5 69.5t54.5 35.5t64.5 0.5t56 -35t25.5 -70.5q5 -119 238 -119q125 0 204 60.5t79 173.5q0 19 1 72.5t1 82.5q-89 -114 -267 -114
q-215 0 -346 146t-131 374q0 148 55.5 264.5t165 185t256.5 68.5q97 0 181 -40.5t131 -102.5q24 71 43 96zM612 203q126 0 204.5 82t78.5 223q0 303 -283 303q-129 0 -195.5 -82t-66.5 -221q0 -137 66.5 -221t195.5 -84z" />
    <glyph glyph-name="Gdotaccent" unicode="&#x120;" horiz-adv-x="1355" 
d="M678 1663q-58 0 -96.5 33.5t-38.5 87.5q0 55 38 87t97 32q57 0 96 -32t39 -87q0 -54 -39.5 -87.5t-95.5 -33.5zM711 -10q-201 0 -350 95t-224.5 258.5t-75.5 373.5t77.5 374t226.5 258.5t348 94.5q301 0 481 -211q19 -22 25 -47.5t-1 -46.5t-21 -40t-35 -29.5t-43.5 -14
t-46 6t-42.5 30.5q-114 135 -317 135q-208 0 -321 -140t-113 -370q0 -149 46 -262t145 -180.5t241 -67.5q179 0 290 108v293h-358q-51 0 -80 34t-28.5 74.5t29.5 74.5t79 34h467q44 0 76.5 -32.5t32.5 -77.5v-443q0 -39 -27 -69q-179 -213 -481 -213z" />
    <glyph glyph-name="gdotaccent" unicode="&#x121;" horiz-adv-x="1253" 
d="M647 1253q-58 0 -96.5 33.5t-38.5 87.5q0 55 38 87t97 32q57 0 96 -32t39 -87q0 -54 -39.5 -87.5t-95.5 -33.5zM967 979q17 23 40 34.5t45 9.5t43.5 -11.5t36.5 -27.5t23.5 -39t4.5 -46.5t-21 -48.5q-33 -44 -41 -90q0 -135 1 -406.5t1 -406.5q0 -138 -69.5 -243.5
t-183.5 -159.5t-253 -54q-123 0 -227.5 41.5t-169 121t-64.5 179.5q0 41 22.5 69.5t54.5 35.5t64.5 0.5t56 -35t25.5 -70.5q5 -119 238 -119q125 0 204 60.5t79 173.5q0 19 1 72.5t1 82.5q-89 -114 -267 -114q-215 0 -346 146t-131 374q0 148 55.5 264.5t165 185t256.5 68.5
q97 0 181 -40.5t131 -102.5q24 71 43 96zM612 203q126 0 204.5 82t78.5 223q0 303 -283 303q-129 0 -195.5 -82t-66.5 -221q0 -137 66.5 -221t195.5 -84z" />
    <glyph glyph-name="uni0122" unicode="&#x122;" horiz-adv-x="1355" 
d="M643 825h467q44 0 76.5 -32.5t32.5 -77.5v-443q0 -39 -27 -69q-179 -213 -481 -213q-201 0 -350 95t-224.5 258.5t-75.5 373.5t77.5 374t226.5 258.5t348 94.5q301 0 481 -211q19 -22 25 -47.5t-1 -46.5t-21 -40t-35 -29.5t-43.5 -14t-46 6t-42.5 30.5q-114 135 -317 135
q-208 0 -321 -140t-113 -370q0 -149 46 -262t145 -180.5t241 -67.5q179 0 290 108v293h-358q-51 0 -80 34t-28.5 74.5t29.5 74.5t79 34zM686 -113q37 0 67.5 -16t45.5 -45q29 -43 32.5 -99t-16.5 -106.5t-74 -85.5t-131 -35q-25 0 -37.5 24.5t-4 49.5t35.5 27q103 5 117 63
q-20 -4 -35 -4q-55 0 -91 31.5t-36 83.5q0 53 35.5 82.5t91.5 29.5z" />
    <glyph glyph-name="uni0123" unicode="&#x123;" horiz-adv-x="1253" 
d="M967 979q17 23 40 34.5t45 9.5t43.5 -11.5t36.5 -27.5t23.5 -39t4.5 -46.5t-21 -48.5q-33 -44 -41 -90q0 -135 1 -406.5t1 -406.5q0 -138 -69.5 -243.5t-183.5 -159.5t-253 -54q-123 0 -227.5 41.5t-169 121t-64.5 179.5q0 41 22.5 69.5t54.5 35.5t64.5 0.5t56 -35
t25.5 -70.5q5 -119 238 -119q125 0 204 60.5t79 173.5q0 19 1 72.5t1 82.5q-89 -114 -267 -114q-215 0 -346 146t-131 374q0 148 55.5 264.5t165 185t256.5 68.5q97 0 181 -40.5t131 -102.5q24 71 43 96zM612 203q126 0 204.5 82t78.5 223q0 303 -283 303q-129 0 -195.5 -82
t-66.5 -221q0 -137 66.5 -221t195.5 -84zM633 -602q43 0 79 -18.5t54 -51.5q27 -40 36.5 -91.5t-2 -102.5t-40.5 -94t-85 -70t-130 -27q-29 0 -44 28.5t-5.5 57.5t41.5 31q119 8 137 74q-24 -4 -41 -4q-64 0 -106 37t-42 98q0 62 41.5 97.5t106.5 35.5z" />
    <glyph glyph-name="Hbar" unicode="&#x126;" horiz-adv-x="1607" 
d="M1315 1235h63q46 0 71.5 -31t25.5 -67.5t-26 -67.5t-71 -31h-63v-923q0 -54 -36 -84.5t-79 -30.5t-79 30.5t-36 84.5v487h-565v-487q0 -54 -36 -84.5t-78.5 -30.5t-78.5 30.5t-36 84.5v923h-62q-45 0 -71 31t-26 67.5t25.5 67.5t71.5 31h62v84q0 54 36 84.5t78.5 30.5
t78.5 -30.5t36 -84.5v-84h565v84q0 54 36 84.5t79 30.5t79 -30.5t36 -84.5v-84zM520 831h565v207h-565v-207z" />
    <glyph glyph-name="hbar" unicode="&#x127;" horiz-adv-x="1222" 
d="M645 1038q197 0 321 -144.5t124 -365.5v-422q0 -41 -22 -68.5t-54 -33t-64 1.5t-54 34t-22 66v422q0 135 -67.5 215t-194.5 80q-123 0 -190.5 -73.5t-73.5 -196.5l2 -444q0 -51 -34 -79.5t-74.5 -28.5t-74.5 28.5t-34 79.5l2 1048h-108q-45 0 -71 31t-26 67.5t25.5 67.5
t71.5 31h108v80q0 48 33 75.5t72.5 28t72.5 -27t33 -76.5v-80h195q46 0 71.5 -31t25.5 -67.5t-26 -67.5t-71 -31h-195l2 -309q38 83 118.5 136.5t178.5 53.5z" />
    <glyph glyph-name="Imacron" unicode="&#x12a;" horiz-adv-x="638" 
d="M496 1597h-355q-46 0 -72 31t-26.5 68.5t26 68.5t72.5 31h355q46 0 72.5 -31t26 -68.5t-26.5 -68.5t-72 -31zM205 115v1204q0 55 36 85.5t78.5 30.5t78.5 -31t36 -85v-1204q0 -55 -36 -85.5t-78.5 -30.5t-78.5 31t-36 85z" />
    <glyph glyph-name="imacron" unicode="&#x12b;" horiz-adv-x="563" 
d="M459 1188h-355q-46 0 -72 31t-26.5 68t26 68t72.5 31h355q46 0 72.5 -31t26 -68t-26.5 -68t-72 -31zM174 109v806q0 41 22 69t53 34.5t62.5 0t53.5 -34.5t22 -69l2 -806q0 -51 -33.5 -80t-74 -29t-74 29t-33.5 80z" />
    <glyph glyph-name="Iogonek" unicode="&#x12e;" horiz-adv-x="638" 
d="M471 -129q25 26 63 11t50.5 -51.5t-13.5 -76.5q-39 -49 -106.5 -60.5t-135 15.5t-106.5 82q-49 68 -51.5 149.5t37.5 139.5q-4 20 -4 35v1204q0 55 36 85.5t78.5 30.5t78.5 -31t36 -85v-1204q0 -38 -16 -64q-7 -12 -20.5 -29.5t-23 -30.5t-17 -29t-5.5 -33t15 -35
q24 -32 50.5 -40t53.5 17z" />
    <glyph glyph-name="iogonek" unicode="&#x12f;" horiz-adv-x="563" 
d="M283 1253q-58 0 -97 33.5t-39 87.5q0 55 38.5 87t97.5 32q57 0 96 -32t39 -87q0 -54 -39.5 -87.5t-95.5 -33.5zM430 -127q25 26 63 11t50.5 -51.5t-13.5 -76.5q-39 -49 -106.5 -60.5t-135 15.5t-106.5 82q-52 76 -51.5 156t45.5 143q-2 4 -2 17v806q0 41 22 69t53 34.5
t62.5 0t53.5 -34.5t22 -69l2 -806q0 -13 -4 -33q-3 -15 -15.5 -33.5t-25.5 -34.5t-23.5 -33.5t-10 -37.5t15.5 -41q24 -32 50.5 -40t53.5 17z" />
    <glyph glyph-name="Idotaccent" unicode="&#x130;" horiz-adv-x="638" 
d="M319 1663q-58 0 -96.5 33.5t-38.5 87.5q0 55 38 87t97 32q57 0 96.5 -32t39.5 -87q0 -54 -40 -87.5t-96 -33.5zM205 115v1204q0 55 36 85.5t78.5 30.5t78.5 -31t36 -85v-1204q0 -55 -36 -85.5t-78.5 -30.5t-78.5 31t-36 85z" />
    <glyph glyph-name="dotlessi" unicode="&#x131;" horiz-adv-x="563" 
d="M174 109v806q0 41 22 69t53 34.5t62.5 0t53.5 -34.5t22 -69l2 -806q0 -51 -33.5 -80t-74 -29t-74 29t-33.5 80z" />
    <glyph glyph-name="uni0136" unicode="&#x136;" horiz-adv-x="1294" 
d="M1128 1233l-446 -428l457 -623q25 -37 24.5 -73.5t-24.5 -62.5t-54.5 -39.5t-66.5 -4t-60 42.5l-444 619l-152 -148v-401q0 -54 -36 -84.5t-78.5 -30.5t-78.5 30.5t-36 84.5v1204q0 54 36 84.5t78.5 30.5t78.5 -30.5t36 -84.5v-512l613 594q31 30 68 32.5t64 -17.5
t44.5 -49.5t12 -67t-35.5 -66.5zM655 -113q37 0 67.5 -16t45.5 -45q29 -43 32.5 -99t-16 -106.5t-73.5 -85.5t-131 -35q-15 0 -26.5 10t-15.5 24.5t-2.5 29t11.5 25.5t26 12q103 5 117 63q-20 -4 -35 -4q-55 0 -91 31.5t-36 83.5q0 53 35.5 82.5t91.5 29.5z" />
    <glyph glyph-name="uni0137" unicode="&#x137;" horiz-adv-x="1292" 
d="M752 600l378 -422q20 -22 26.5 -46.5t0 -46t-20 -40.5t-34 -30t-42.5 -15t-46 5t-43 30l-402 448l-221 -139v-235q0 -51 -33.5 -79.5t-74 -28.5t-74 28.5t-33.5 79.5v1208q0 50 33.5 78.5t74 29t74 -28t33.5 -79.5v-719l643 408q35 21 69.5 18.5t57.5 -27t34 -54.5
t-0.5 -63.5t-45.5 -54.5zM653 -88q65 0 90 -49q22 -34 25 -77.5t-13 -83t-58 -66.5t-103 -27q-20 0 -30 19t-3.5 38.5t27.5 20.5q82 6 92 51q-16 -4 -27 -4q-43 0 -70.5 24.5t-27.5 65.5t27 64.5t71 23.5z" />
    <glyph glyph-name="Lacute" unicode="&#x139;" horiz-adv-x="1126" 
d="M709 1735l-66 -142q-12 -25 -35.5 -38t-47.5 -10t-45 17t-27.5 42.5t4.5 66.5l49 148q20 60 75 71q51 9 85 -28q44 -48 8 -127zM942 0h-694q-47 0 -81 34t-34 81v1204q0 54 36 84.5t78.5 30.5t78.5 -30.5t36 -84.5v-1090h580q54 0 84.5 -36t30.5 -78.5t-30.5 -78.5
t-84.5 -36z" />
    <glyph glyph-name="lacute" unicode="&#x13a;" horiz-adv-x="1058" 
d="M477 1878l-65 -141q-12 -25 -36 -38t-48 -10t-45 17t-27.5 42.5t4.5 66.5l49 147q20 60 75 71q51 9 85 -28q44 -48 8 -127zM205 109v1325q0 50 33.5 79t74 29.5t74 -28.5t33.5 -80v-1325q0 -51 -33.5 -80t-74 -29t-74 29t-33.5 80z" />
    <glyph glyph-name="uni013B" unicode="&#x13b;" horiz-adv-x="1126" 
d="M362 229h580q54 0 84.5 -36t30.5 -78.5t-30.5 -78.5t-84.5 -36h-694q-47 0 -81 34t-34 81v1204q0 54 36 84.5t78.5 30.5t78.5 -30.5t36 -84.5v-1090zM557 -113q37 0 67.5 -16t45.5 -45q29 -43 32.5 -99t-16.5 -106.5t-74 -85.5t-131 -35q-25 0 -37.5 24.5t-4 49.5
t35.5 27q103 5 117 63q-20 -4 -35 -4q-55 0 -91 31.5t-36 83.5q0 53 35.5 82.5t91.5 29.5z" />
    <glyph glyph-name="uni013C" unicode="&#x13c;" horiz-adv-x="624" 
d="M420 1434v-1325q0 -51 -33.5 -80t-74 -29t-74 29t-33.5 80v1325q0 50 33.5 79t74 29.5t74 -28.5t33.5 -80zM434 -174q29 -43 32.5 -99t-16 -106.5t-73.5 -85.5t-131 -35q-25 0 -37.5 24.5t-4 49.5t35.5 27q102 5 116 63q-20 -4 -34 -4q-55 0 -91 31.5t-36 83.5
q0 53 35.5 82.5t91.5 29.5q37 0 67 -16t45 -45z" />
    <glyph glyph-name="Lcaron" unicode="&#x13d;" horiz-adv-x="1292" 
d="M362 229h580q54 0 84.5 -36t30.5 -78.5t-30.5 -78.5t-84.5 -36h-694q-47 0 -81 34t-34 81v895q-15 18 -18 45l-19 297q-3 44 39 66t92 14q52 8 93.5 -22t41.5 -91v-1090z" />
    <glyph glyph-name="lcaron" unicode="&#x13e;" horiz-adv-x="624" 
d="M473 1939l-65 -141q-12 -25 -36 -38t-48 -10t-45 17t-27.5 42.5t4.5 66.5l49 147q20 60 75 71q51 9 85 -28q45 -48 8 -127zM205 109v1325q0 50 33.5 79t74 29.5t74 -28.5t33.5 -80v-1325q0 -51 -33.5 -80t-74 -29t-74 29t-33.5 80z" />
    <glyph glyph-name="Lslash" unicode="&#x141;" horiz-adv-x="1425" 
d="M496 229h579q54 0 84.5 -36t30.5 -78.5t-30.5 -78.5t-84.5 -36h-694q-47 0 -81 34t-34 81v493l-37 -22q-50 -23 -86.5 -5.5t-36 64t49.5 76.5l110 67v531q0 54 36 84.5t79 30.5t79 -30.5t36 -84.5v-389l51 31q53 26 93.5 9t40 -65.5t-55.5 -81.5l-129 -78v-516z" />
    <glyph glyph-name="lslash" unicode="&#x142;" horiz-adv-x="624" 
d="M420 1073l43 55q41 51 87 45.5t54 -50t-29 -99.5l-155 -195v-720q0 -51 -33.5 -80t-74 -29t-74 29t-33.5 80v454l-55 -69q-21 -26 -47 -34t-46 2t-33 28t-10 46.5t25 55.5l166 211v631q0 50 33.5 79t74 29.5t74 -28.5t33.5 -80v-361z" />
    <glyph glyph-name="Nacute" unicode="&#x143;" horiz-adv-x="1290" 
d="M805 1735l-66 -142q-12 -25 -35.5 -38t-47.5 -10t-45 17t-27.5 42.5t4.5 66.5l49 148q20 60 75 71q51 9 85 -28q44 -48 8 -127zM954 43l-592 887v-815q0 -54 -36 -84.5t-78.5 -30.5t-78.5 30.5t-36 84.5v1204q0 51 38 85t87.5 31.5t77.5 -44.5l592 -887v815q0 54 36 84.5
t78.5 30.5t78.5 -30.5t36 -84.5v-1204q0 -51 -38 -85t-87.5 -31.5t-77.5 44.5z" />
    <glyph glyph-name="nacute" unicode="&#x144;" horiz-adv-x="1251" 
d="M825 1325l-65 -141q-12 -25 -36 -38t-48 -10t-45 17t-27.5 42.5t4.5 66.5l49 147q20 60 75 71q51 9 85 -28q44 -48 8 -127zM659 1040q220 0 339.5 -132.5t119.5 -356.5v-442q0 -51 -33.5 -79t-74 -27t-74 29.5t-33.5 76.5v442q0 135 -57 204.5t-184 69.5
q-244 0 -244 -297v-419q0 -51 -33.5 -79.5t-74 -28t-74 29t-33.5 78.5v608q0 76 -45 137q-24 33 -24 67.5t22.5 59.5t51 38.5t63 5t57.5 -41.5q27 -31 45 -92q106 149 286 149z" />
    <glyph glyph-name="uni0145" unicode="&#x145;" horiz-adv-x="1290" 
d="M928 504v815q0 54 36 84.5t78.5 30.5t78.5 -30.5t36 -84.5v-1204q0 -51 -38 -85t-87.5 -31.5t-77.5 44.5l-592 887v-815q0 -54 -36 -84.5t-78.5 -30.5t-78.5 30.5t-36 84.5v1204q0 51 38 85t87.5 31.5t77.5 -44.5zM653 -113q37 0 67.5 -16t45.5 -45q29 -43 32.5 -99
t-16 -106.5t-73.5 -85.5t-131 -35q-15 0 -26.5 10t-15.5 24.5t-2.5 29t11.5 25.5t26 12q103 5 117 63q-20 -4 -35 -4q-55 0 -91 31.5t-36 83.5q0 53 35.5 82.5t91.5 29.5z" />
    <glyph glyph-name="uni0146" unicode="&#x146;" horiz-adv-x="1251" 
d="M659 1040q220 0 339.5 -132.5t119.5 -356.5v-442q0 -51 -33.5 -79t-74 -27t-74 29.5t-33.5 76.5v442q0 135 -57 204.5t-184 69.5q-244 0 -244 -297v-419q0 -51 -33.5 -79.5t-74 -28t-74 29t-33.5 78.5v608q0 76 -45 137q-24 33 -24 67.5t22.5 59.5t51 38.5t63 5
t57.5 -41.5q27 -31 45 -92q106 149 286 149zM635 -113q37 0 67.5 -16t45.5 -45q29 -43 32.5 -99t-16.5 -106.5t-74 -85.5t-131 -35q-25 0 -37.5 24.5t-4 49.5t35.5 27q103 5 117 63q-20 -4 -35 -4q-55 0 -91 31.5t-36 83.5q0 53 35.5 82.5t91.5 29.5z" />
    <glyph glyph-name="Ncaron" unicode="&#x147;" horiz-adv-x="1290" 
d="M528 1772l115 -76l115 76q49 35 95 6.5t46 -77.5t-51 -85q-113 -62 -172 -82q-34 -11 -72 0q-51 16 -170 82q-56 31 -51.5 85.5t49 76t96.5 -5.5zM954 43l-592 887v-815q0 -54 -36 -84.5t-78.5 -30.5t-78.5 30.5t-36 84.5v1204q0 51 38 85t87.5 31.5t77.5 -44.5l592 -887
v815q0 54 36 84.5t78.5 30.5t78.5 -30.5t36 -84.5v-1204q0 -51 -38 -85t-87.5 -31.5t-77.5 44.5z" />
    <glyph glyph-name="ncaron" unicode="&#x148;" horiz-adv-x="1251" 
d="M455 1206q-56 31 -51.5 85.5t49 76t96.5 -5.5l115 -76l114 76q49 35 95 6.5t46 -77.5t-51 -85q-113 -62 -172 -82q-34 -11 -71 0q-51 16 -170 82zM659 1040q220 0 339.5 -132.5t119.5 -356.5v-442q0 -51 -33.5 -79t-74 -27t-74 29.5t-33.5 76.5v442q0 135 -57 204.5
t-184 69.5q-244 0 -244 -297v-419q0 -51 -33.5 -79.5t-74 -28t-74 29t-33.5 78.5v608q0 76 -45 137q-24 33 -24 67.5t22.5 59.5t51 38.5t63 5t57.5 -41.5q27 -31 45 -92q106 149 286 149z" />
    <glyph glyph-name="Eng" unicode="&#x14a;" horiz-adv-x="1290" 
d="M422 -332q-22 35 -20 71t26.5 60.5t55.5 37t66.5 1.5t59.5 -47q30 -48 85 -67.5t106.5 -9.5t90 45t38.5 85v236l-568 850v-815q0 -54 -36 -84.5t-78.5 -30.5t-78.5 30.5t-36 84.5v1204q0 51 38 85t87.5 31.5t77.5 -44.5l592 -887v815q0 54 36 84.5t78.5 30.5t78.5 -30.5
t36 -84.5l-2 -1475q0 -88 -40.5 -161t-104.5 -117.5t-145.5 -64t-162 -9.5t-156 55t-124.5 121z" />
    <glyph glyph-name="eng" unicode="&#x14b;" horiz-adv-x="1292" 
d="M434 -285q-21 35 -18.5 70t27 58.5t54 35t63 0.5t54.5 -45q31 -49 87.5 -68.5t110 -9.5t93 46t39.5 87v639q0 135 -67.5 215t-194.5 80q-130 0 -197 -81t-67 -216v-420q0 -51 -33.5 -79.5t-74 -28t-74 29t-33.5 78.5v609q0 76 -45 137q-24 33 -24 67.5t22.5 59.5t51 38.5
t63 5t57.5 -41.5q22 -25 37 -55q124 112 315 112q220 0 349.5 -143t129.5 -367v-639q0 -87 -40 -159t-103 -116t-144 -63.5t-160.5 -10t-154 54t-123.5 120.5z" />
    <glyph glyph-name="Omacron" unicode="&#x14c;" horiz-adv-x="1415" 
d="M885 1597h-355q-46 0 -72 31t-26.5 68.5t26 68.5t72.5 31h355q46 0 72.5 -31t26 -68.5t-26.5 -68.5t-72 -31zM709 -12q-143 0 -260 56t-195 154t-120 230.5t-42 286.5q0 205 73 369t214.5 261t329.5 97q143 0 260.5 -57.5t194 -156.5t118 -231t41.5 -282
q0 -207 -74 -371.5t-214.5 -260t-325.5 -95.5zM709 217q79 0 144 25.5t110.5 70.5t76.5 107.5t45.5 136.5t14.5 158q0 224 -99 360.5t-292 136.5q-99 0 -176 -39t-123.5 -107.5t-70.5 -157t-24 -193.5q0 -146 41 -256t131.5 -176t221.5 -66z" />
    <glyph glyph-name="omacron" unicode="&#x14d;" horiz-adv-x="1392" 
d="M872 1188h-354q-46 0 -72 31t-26.5 68t26 68t72.5 31h354q46 0 72.5 -31t26 -68t-26.5 -68t-72 -31zM696 -10q-254 0 -408.5 145.5t-154.5 376.5q0 232 157 377t406 145q252 0 408 -146.5t156 -375.5q0 -231 -157.5 -376.5t-406.5 -145.5zM696 205q164 0 256 83.5
t92 223.5q0 144 -92.5 225.5t-255.5 81.5q-164 0 -256 -83t-92 -224q0 -144 92.5 -225.5t255.5 -81.5z" />
    <glyph glyph-name="Ohungarumlaut" unicode="&#x150;" horiz-adv-x="1415" 
d="M715 1735l-66 -142q-12 -25 -35.5 -38t-47.5 -10t-45 17t-27.5 42.5t4.5 66.5l49 148q20 60 75 71q51 9 85 -28q44 -48 8 -127zM1001 1735l-65 -142q-12 -25 -36 -38t-48 -10t-45 17t-27.5 42.5t4.5 66.5l50 148q20 60 75 71q51 9 85 -28q44 -48 7 -127zM709 -12
q-143 0 -260 56t-195 154t-120 230.5t-42 286.5q0 205 73 369t214.5 261t329.5 97q143 0 260.5 -57.5t194 -156.5t118 -231t41.5 -282q0 -207 -74 -371.5t-214.5 -260t-325.5 -95.5zM709 217q79 0 144 25.5t110.5 70.5t76.5 107.5t45.5 136.5t14.5 158q0 224 -99 360.5
t-292 136.5q-99 0 -176 -39t-123.5 -107.5t-70.5 -157t-24 -193.5q0 -146 41 -256t131.5 -176t221.5 -66z" />
    <glyph glyph-name="ohungarumlaut" unicode="&#x151;" horiz-adv-x="1392" 
d="M702 1325l-65 -141q-12 -25 -36 -38t-48 -10t-45 17t-27.5 42.5t4.5 66.5l50 147q20 60 75 71q51 9 85 -28q44 -48 7 -127zM989 1325l-65 -141q-12 -25 -36 -38t-48 -10t-45 17t-27.5 42.5t4.5 66.5l49 147q20 60 75 71q51 9 85 -28q44 -48 8 -127zM696 -10
q-254 0 -408.5 145.5t-154.5 376.5q0 232 157 377t406 145q252 0 408 -146.5t156 -375.5q0 -231 -157.5 -376.5t-406.5 -145.5zM696 205q164 0 256 83.5t92 223.5q0 144 -92.5 225.5t-255.5 81.5q-164 0 -256 -83t-92 -224q0 -144 92.5 -225.5t255.5 -81.5z" />
    <glyph glyph-name="OE" unicode="&#x152;" horiz-adv-x="2299" 
d="M1372 229h680q47 0 81 -33.5t34 -80.5t-34 -81t-81 -34h-778q-54 0 -92.5 37.5t-38.5 91.5v51q-168 -192 -434 -192q-143 0 -260 56t-195 154t-120 230.5t-42 286.5q0 205 73 369t214.5 261t329.5 97q267 0 434 -191v54q0 54 38.5 91.5t92.5 37.5h778q47 0 81 -34t34 -81
t-34 -81t-81 -34h-680v-332h481q54 0 84.5 -35t30.5 -76.5t-30.5 -76.5t-84.5 -35h-481v-420zM709 217q79 0 144 25.5t110.5 70.5t76.5 107.5t45.5 136.5t14.5 158q0 224 -99 360.5t-292 136.5q-99 0 -176 -39t-123.5 -107.5t-70.5 -157t-24 -193.5q0 -146 41 -256
t131.5 -176t221.5 -66z" />
    <glyph glyph-name="oe" unicode="&#x153;" horiz-adv-x="2211" 
d="M1866 322q17 27 48 36t61 -0.5t55.5 -29t32 -50t-10.5 -63.5q-127 -225 -485 -225q-136 0 -242.5 52t-173.5 146q-74 -94 -192 -146t-263 -52q-254 0 -408.5 145.5t-154.5 376.5q0 232 157 377t406 145q147 0 263.5 -52t191.5 -146q67 93 174 144.5t242 51.5
q236 0 374 -131.5t138 -353.5q0 -55 -33.5 -76.5t-93.5 -21.5h-676q20 -123 96 -189.5t195 -66.5q92 0 175 31.5t124 97.5zM1567 838q-103 0 -192.5 -64.5t-98.5 -161.5h571q0 96 -82.5 161t-197.5 65zM696 205q164 0 256 83.5t92 223.5q0 144 -92.5 225.5t-255.5 81.5
q-164 0 -256 -83t-92 -224q0 -144 92.5 -225.5t255.5 -81.5z" />
    <glyph glyph-name="Racute" unicode="&#x154;" horiz-adv-x="1312" 
d="M764 1735l-66 -142q-12 -25 -35.5 -38t-47.5 -10t-45 17t-27.5 42.5t4.5 66.5l49 148q20 60 75 71q51 9 85 -28q44 -48 8 -127zM903 559l293 -385q43 -57 11.5 -112t-90 -59.5t-105.5 46.5l-338 465h-318v-401q0 -42 -23 -70.5t-55.5 -35t-65.5 0.5t-56 35.5t-23 69.5
v1208q0 49 34.5 81t76.5 32h358q272 0 432 -117.5t160 -343.5q0 -298 -291 -414zM356 735h246q371 0 371 238q0 130 -96.5 183.5t-274.5 53.5h-246v-475z" />
    <glyph glyph-name="racute" unicode="&#x155;" horiz-adv-x="927" 
d="M659 1325l-65 -141q-12 -25 -36 -38t-48 -10t-45 17t-27.5 42.5t4.5 66.5l50 147q20 60 75 71q51 9 85 -28q44 -48 7 -127zM133 109v806q0 51 31.5 79.5t69 28.5t69 -28.5t31.5 -79.5v-47q32 65 99 115.5t161 50.5q69 0 136 -28t106 -72q27 -30 30 -64.5t-13.5 -60
t-42.5 -44t-57 -17t-55 19.5q-66 51 -145 51q-86 0 -145.5 -85t-59.5 -175v-450q0 -51 -33.5 -80t-74 -29t-74 29t-33.5 80z" />
    <glyph glyph-name="uni0156" unicode="&#x156;" horiz-adv-x="1312" 
d="M903 559l293 -385q43 -57 11.5 -112t-90 -59.5t-105.5 46.5l-338 465h-318v-401q0 -42 -23 -70.5t-55.5 -35t-65.5 0.5t-56 35.5t-23 69.5v1208q0 49 34.5 81t76.5 32h358q272 0 432 -117.5t160 -343.5q0 -298 -291 -414zM356 735h246q371 0 371 238q0 130 -96.5 183.5
t-274.5 53.5h-246v-475zM674 -113q37 0 67 -16t45 -45q29 -43 32.5 -99t-16 -106.5t-73.5 -85.5t-131 -35q-25 0 -37.5 24.5t-4 49.5t35.5 27q103 5 117 63q-20 -4 -35 -4q-55 0 -91 31.5t-36 83.5q0 53 35.5 82.5t91.5 29.5z" />
    <glyph glyph-name="uni0157" unicode="&#x157;" horiz-adv-x="927" 
d="M836 934q27 -30 30 -64.5t-13.5 -60t-42.5 -44t-57 -17t-55 19.5q-66 51 -145 51q-86 0 -145.5 -85t-59.5 -175v-450q0 -51 -33.5 -80t-74 -29t-74 29t-33.5 80v806q0 51 31.5 79.5t69 28.5t69 -28.5t31.5 -79.5v-47q32 65 99 115.5t161 50.5q69 0 136 -28t106 -72z
M254 -113q37 0 67.5 -16t45.5 -45q29 -43 32.5 -99t-16.5 -106.5t-74 -85.5t-131 -35q-25 0 -37.5 24.5t-4 49.5t35.5 27q103 5 117 63q-20 -4 -35 -4q-55 0 -91 31.5t-36 83.5q0 53 35.5 82.5t91.5 29.5z" />
    <glyph glyph-name="Rcaron" unicode="&#x158;" horiz-adv-x="1312" 
d="M393 1616q-56 31 -51.5 85.5t49 76t96.5 -5.5l115 -76l115 76q49 35 95 6.5t46 -77.5t-51 -85q-113 -62 -172 -82q-34 -11 -72 0q-51 16 -170 82zM903 559l293 -385q43 -57 11.5 -112t-90 -59.5t-105.5 46.5l-338 465h-318v-401q0 -42 -23 -70.5t-55.5 -35t-65.5 0.5
t-56 35.5t-23 69.5v1208q0 49 34.5 81t76.5 32h358q272 0 432 -117.5t160 -343.5q0 -298 -291 -414zM356 735h246q371 0 371 238q0 130 -96.5 183.5t-274.5 53.5h-246v-475z" />
    <glyph glyph-name="rcaron" unicode="&#x159;" horiz-adv-x="927" 
d="M383 1362l115 -76l114 76q49 35 95 6.5t46 -77.5t-51 -85q-113 -62 -172 -82q-34 -11 -71 0q-51 16 -170 82q-56 31 -51.5 85.5t49 76t96.5 -5.5zM133 109v806q0 51 31.5 79.5t69 28.5t69 -28.5t31.5 -79.5v-47q32 65 99 115.5t161 50.5q69 0 136 -28t106 -72
q27 -30 30 -64.5t-13.5 -60t-42.5 -44t-57 -17t-55 19.5q-66 51 -145 51q-86 0 -145.5 -85t-59.5 -175v-450q0 -51 -33.5 -80t-74 -29t-74 29t-33.5 80z" />
    <glyph glyph-name="Sacute" unicode="&#x15a;" horiz-adv-x="1181" 
d="M752 1735l-66 -142q-12 -25 -35.5 -38t-47.5 -10t-45 17t-27.5 42.5t4.5 66.5l49 148q20 60 75 71q51 9 85 -28q44 -48 8 -127zM561 -10q-80 0 -155 17t-143.5 51.5t-118.5 95.5t-70 141q-9 35 5.5 67t42.5 48.5t59.5 20.5t59.5 -17t40 -64q38 -137 280 -137
q61 0 118.5 11.5t107.5 34.5t80 63t30 92q0 116 -61 161.5t-254 79.5q-75 13 -128.5 26.5t-110.5 35t-95 50.5t-69.5 70t-46.5 97.5t-15 128.5q0 172 126.5 276.5t344.5 104.5q152 0 274.5 -58t175.5 -174q10 -23 10 -46.5t-11.5 -43t-27.5 -35.5t-39 -22.5t-45.5 -5
t-46 16.5t-42.5 42q-71 103 -248 103q-248 0 -248 -158q0 -44 14.5 -73.5t49 -50t78.5 -34t116 -26.5q104 -19 176.5 -39.5t142 -55.5t111.5 -82.5t67 -120t25 -167.5q0 -100 -45.5 -182t-123.5 -134t-178 -80t-212 -28z" />
    <glyph glyph-name="sacute" unicode="&#x15b;" horiz-adv-x="1161" 
d="M737 1325l-65 -141q-12 -25 -36 -38t-48 -10t-45 17t-27.5 42.5t4.5 66.5l49 147q20 60 75 71q51 9 85 -28q44 -48 8 -127zM590 -10q-132 0 -256 42.5t-178 131.5q-21 35 -22.5 66.5t13 52.5t39 33.5t52 13t55 -13t45.5 -40.5q13 -19 37 -37.5t81.5 -36.5t131.5 -18
q121 0 175 27.5t54 81.5t-52.5 81.5t-191.5 59.5q-159 38 -217 62q-143 61 -164 184q-4 23 -4 49q0 137 105.5 220t294.5 83q251 0 336 -147q23 -43 21 -74t-23 -49t-47.5 -25.5t-53.5 -2t-41 21.5q-21 25 -38 39.5t-58.5 29.5t-97.5 15q-76 0 -129.5 -24.5t-53.5 -76.5
q0 -21 10 -37t25.5 -26.5t39 -19t44.5 -13.5t49 -11l15 -3q92 -20 156.5 -38.5t121.5 -44.5t91 -57t53.5 -73.5t19.5 -96.5q0 -144 -120.5 -236.5t-317.5 -92.5z" />
    <glyph glyph-name="Scedilla" unicode="&#x15e;" horiz-adv-x="1181" 
d="M1120 414q0 -142 -87 -242t-230 -145q40 -57 39 -140.5t-51 -152.5q-39 -55 -106.5 -82t-135.5 -15.5t-107 60.5q-29 35 -13 76t51 52t63 -11q27 -25 53.5 -17.5t50.5 39.5q13 18 15.5 35t-5 33.5t-16.5 29t-22.5 29t-20.5 27.5h-37q-80 0 -155 17t-143.5 51.5
t-118.5 95.5t-70 141q-9 35 5.5 67t42.5 48.5t59.5 20.5t59.5 -17t40 -64q38 -137 280 -137q61 0 118.5 11.5t107.5 34.5t80 63t30 92q0 116 -61 161.5t-254 79.5q-75 13 -128.5 26.5t-110.5 35t-95 50.5t-69.5 70t-46.5 97.5t-15 128.5q0 172 126.5 276.5t344.5 104.5
q152 0 274.5 -58t175.5 -174q10 -23 10 -46.5t-11.5 -43t-27.5 -35.5t-39 -22.5t-45.5 -5t-46 16.5t-42.5 42q-71 103 -248 103q-248 0 -248 -158q0 -44 14.5 -73.5t49 -50t78.5 -34t116 -26.5q104 -19 176.5 -39.5t142 -55.5t111.5 -82.5t67 -120t25 -167.5z" />
    <glyph glyph-name="scedilla" unicode="&#x15f;" horiz-adv-x="1161" 
d="M1028 319q0 -103 -62.5 -182t-174.5 -117q40 -56 37.5 -137t-52.5 -149q-39 -55 -106.5 -82t-135 -15.5t-106.5 60.5q-29 35 -13 76t50.5 52t62.5 -11q27 -25 54 -17.5t51 39.5q13 18 15.5 35t-5 33.5t-16.5 29t-22.5 29t-20.5 27.5q-131 2 -252.5 44.5t-175.5 129.5
q-21 35 -22.5 66.5t13 52.5t39 33.5t52 13t55 -13t45.5 -40.5q13 -19 37 -37.5t81.5 -36.5t131.5 -18q121 0 175 27.5t54 81.5t-52.5 81.5t-191.5 59.5q-159 38 -217 62q-143 61 -164 184q-4 23 -4 49q0 137 105.5 220t294.5 83q251 0 336 -147q23 -43 21 -74t-23 -49
t-47.5 -25.5t-53.5 -2t-41 21.5q-21 25 -38 39.5t-58.5 29.5t-97.5 15q-76 0 -129.5 -24.5t-53.5 -76.5q0 -21 10 -37t25.5 -26.5t39 -19t44.5 -13.5t49 -11l15 -3q92 -20 156.5 -38.5t121.5 -44.5t91 -57t53.5 -73.5t19.5 -96.5z" />
    <glyph glyph-name="Scaron" unicode="&#x160;" horiz-adv-x="1181" 
d="M475 1772l115 -76l115 76q49 35 95 6.5t46 -77.5t-51 -85q-113 -62 -172 -82q-34 -11 -72 0q-51 16 -170 82q-56 31 -51.5 85.5t49 76t96.5 -5.5zM561 -10q-80 0 -155 17t-143.5 51.5t-118.5 95.5t-70 141q-9 35 5.5 67t42.5 48.5t59.5 20.5t59.5 -17t40 -64
q38 -137 280 -137q61 0 118.5 11.5t107.5 34.5t80 63t30 92q0 116 -61 161.5t-254 79.5q-75 13 -128.5 26.5t-110.5 35t-95 50.5t-69.5 70t-46.5 97.5t-15 128.5q0 172 126.5 276.5t344.5 104.5q152 0 274.5 -58t175.5 -174q10 -23 10 -46.5t-11.5 -43t-27.5 -35.5
t-39 -22.5t-45.5 -5t-46 16.5t-42.5 42q-71 103 -248 103q-248 0 -248 -158q0 -44 14.5 -73.5t49 -50t78.5 -34t116 -26.5q104 -19 176.5 -39.5t142 -55.5t111.5 -82.5t67 -120t25 -167.5q0 -100 -45.5 -182t-123.5 -134t-178 -80t-212 -28z" />
    <glyph glyph-name="scaron" unicode="&#x161;" horiz-adv-x="1161" 
d="M461 1362l114 -76l115 76q49 35 95 6.5t46 -77.5t-51 -85q-113 -62 -172 -82q-34 -11 -71 0q-51 16 -170 82q-56 31 -51.5 85.5t49 76t96.5 -5.5zM590 -10q-132 0 -256 42.5t-178 131.5q-21 35 -22.5 66.5t13 52.5t39 33.5t52 13t55 -13t45.5 -40.5q13 -19 37 -37.5
t81.5 -36.5t131.5 -18q121 0 175 27.5t54 81.5t-52.5 81.5t-191.5 59.5q-159 38 -217 62q-143 61 -164 184q-4 23 -4 49q0 137 105.5 220t294.5 83q251 0 336 -147q23 -43 21 -74t-23 -49t-47.5 -25.5t-53.5 -2t-41 21.5q-21 25 -38 39.5t-58.5 29.5t-97.5 15
q-76 0 -129.5 -24.5t-53.5 -76.5q0 -21 10 -37t25.5 -26.5t39 -19t44.5 -13.5t49 -11l15 -3q92 -20 156.5 -38.5t121.5 -44.5t91 -57t53.5 -73.5t19.5 -96.5q0 -144 -120.5 -236.5t-317.5 -92.5z" />
    <glyph glyph-name="uni0162" unicode="&#x162;" horiz-adv-x="1392" 
d="M176 1434h1043q72 0 101.5 -59t0 -117t-101.5 -54l-408 21v-1110q0 -13 -2 -19q52 -10 86 -55q49 -61 51 -144.5t-51 -162.5q-39 -55 -106.5 -82t-135 -15.5t-106.5 60.5q-29 35 -13 76t50.5 52t62.5 -11q27 -25 54 -17.5t51 39.5q14 19 15.5 37.5t-7 35.5t-19.5 31
t-25 31.5t-20 30.5q-45 0 -78.5 29.5t-33.5 83.5v1110l-408 -21q-73 -4 -103 54t0 117t103 59z" />
    <glyph glyph-name="uni0163" unicode="&#x163;" horiz-adv-x="1116" 
d="M786 266q22 33 55.5 44t63 0t53 -33.5t26 -56.5t-18.5 -68q-69 -101 -193 -142q35 -56 31.5 -133.5t-51.5 -142.5q-39 -55 -106.5 -82t-135.5 -15.5t-107 60.5q-29 35 -13 76t51 52t63 -11q27 -25 53.5 -17.5t50.5 39.5q13 19 15 37t-6 34.5t-18.5 30t-24 30.5t-19.5 30
q-114 24 -177 104t-63 207v510l-149 -6q-65 -3 -93 50t-1 107t94 54h149v410q0 49 33 76.5t72.5 27.5t72.5 -27.5t33 -76.5v-410h293q40 0 66.5 -22t33 -53.5t0 -62.5t-33.5 -52.5t-66 -20.5l-293 10v-452q0 -168 127 -168q94 0 133 63z" />
    <glyph glyph-name="Tcaron" unicode="&#x164;" horiz-adv-x="1392" 
d="M580 1772l114 -76l115 76q49 35 95 6.5t46 -77.5t-51 -85q-113 -62 -172 -82q-34 -11 -72 0q-51 16 -170 82q-56 31 -51 85.5t49.5 76t96.5 -5.5zM584 115v1110l-408 -21q-73 -4 -103 54t0 117t103 59h1043q72 0 101.5 -59t0 -117t-101.5 -54l-408 21v-1110
q0 -54 -35.5 -84.5t-78 -30.5t-78 30.5t-35.5 84.5z" />
    <glyph glyph-name="tcaron" unicode="&#x165;" horiz-adv-x="1116" 
d="M786 266q22 33 55.5 44t63 0t53 -33.5t26 -56.5t-18.5 -68q-48 -73 -134.5 -117.5t-187.5 -44.5q-152 0 -240 84t-88 235v510l-149 -6q-65 -3 -93 50t-1 107t94 54h149v172q-38 -8 -71.5 11t-36.5 59l-19 297q-3 51 50.5 72.5t107.5 0t51 -72.5l-2 -29q49 10 90 -17
t41 -83v-410h293q40 0 66.5 -22t33 -53.5t0 -62.5t-33.5 -52.5t-66 -20.5l-293 10v-452q0 -168 127 -168q94 0 133 63z" />
    <glyph glyph-name="Tbar" unicode="&#x166;" horiz-adv-x="1392" 
d="M176 1434h1043q72 0 101.5 -59t0 -117t-101.5 -54l-408 21v-410h248q46 0 71.5 -31t25.5 -67.5t-26 -67.5t-71 -31h-248v-503q0 -54 -35.5 -84.5t-78 -30.5t-78 30.5t-35.5 84.5v503h-250q-45 0 -71 31t-26 67.5t25.5 67.5t71.5 31h250v410l-408 -21q-73 -4 -103 54
t0 117t103 59z" />
    <glyph glyph-name="tbar" unicode="&#x167;" horiz-adv-x="1286" 
d="M786 266q22 33 55.5 44t63 0t53 -33.5t26 -56.5t-18.5 -68q-48 -73 -134.5 -117.5t-187.5 -44.5q-152 0 -240 84t-88 235v166h-63q-33 0 -56 20.5t-28.5 49.5t-0.5 57.5t28 49t57 20.5h63v147l-149 -6q-65 -3 -93 50t-1 107t94 54h149v410q0 49 33 76.5t72.5 27.5
t72.5 -27.5t33 -76.5v-410h293q40 0 66.5 -22t33 -53.5t0 -62.5t-33.5 -52.5t-66 -20.5l-293 10v-151h72q34 0 57 -20.5t28 -49t-0.5 -57.5t-28.5 -49.5t-56 -20.5h-72v-104q0 -168 127 -168q94 0 133 63z" />
    <glyph glyph-name="Umacron" unicode="&#x16a;" horiz-adv-x="1310" 
d="M831 1597h-354q-46 0 -72 31t-26.5 68.5t26 68.5t72.5 31h354q46 0 72.5 -31t26 -68.5t-26.5 -68.5t-72 -31zM655 -10q-238 0 -380 145t-142 377v813q0 50 33.5 79t74 29.5t74 -28.5t33.5 -80v-813q0 -145 80 -226t227 -81q148 0 228 83t80 224v813q0 50 33.5 79t74 29.5
t74 -28.5t33.5 -80v-813q0 -232 -145 -377t-378 -145z" />
    <glyph glyph-name="umacron" unicode="&#x16b;" horiz-adv-x="1292" 
d="M788 1188h-354q-46 0 -72 31t-26.5 68t26 68t72.5 31h354q46 0 72.5 -31t26 -68t-26.5 -68t-72 -31zM1135 174q24 -33 24 -67.5t-22.5 -59.5t-51 -38.5t-63 -5t-57.5 41.5q-25 28 -37 113q-51 -76 -135 -123t-181 -47q-220 0 -349.5 143t-129.5 367v422q0 51 33.5 79
t74 27t74 -29.5t33.5 -76.5v-422q0 -135 67.5 -215t194.5 -80q130 0 197 81t67 216v420q0 34 16 59t40 36t52 11t52 -11.5t40 -36t16 -58.5v-609q0 -76 45 -137z" />
    <glyph glyph-name="Uring" unicode="&#x16e;" horiz-adv-x="1310" 
d="M655 1475q-107 0 -181.5 75.5t-74.5 182.5q0 105 74.5 179.5t181.5 74.5q106 0 181 -75t75 -179q0 -107 -75 -182.5t-181 -75.5zM655 1653q34 0 56 23t22 57q0 32 -22 53.5t-56 21.5t-55.5 -21.5t-21.5 -53.5q0 -34 22 -57t55 -23zM655 -10q-238 0 -380 145t-142 377v813
q0 50 33.5 79t74 29.5t74 -28.5t33.5 -80v-813q0 -145 80 -226t227 -81q148 0 228 83t80 224v813q0 50 33.5 79t74 29.5t74 -28.5t33.5 -80v-813q0 -232 -145 -377t-378 -145z" />
    <glyph glyph-name="uring" unicode="&#x16f;" horiz-adv-x="1292" 
d="M612 1065q-107 0 -181.5 75.5t-74.5 182.5q0 105 74.5 179.5t181.5 74.5q106 0 181 -75t75 -179q0 -107 -75 -182.5t-181 -75.5zM612 1399q-34 0 -55.5 -21.5t-21.5 -54.5q0 -34 22 -57t55 -23q34 0 56 23t22 57q0 32 -22 54t-56 22zM1135 174q24 -33 24 -67.5
t-22.5 -59.5t-51 -38.5t-63 -5t-57.5 41.5q-25 28 -37 113q-51 -76 -135 -123t-181 -47q-220 0 -349.5 143t-129.5 367v422q0 51 33.5 79t74 27t74 -29.5t33.5 -76.5v-422q0 -135 67.5 -215t194.5 -80q130 0 197 81t67 216v420q0 34 16 59t40 36t52 11t52 -11.5t40 -36
t16 -58.5v-609q0 -76 45 -137z" />
    <glyph glyph-name="Uhungarumlaut" unicode="&#x170;" horiz-adv-x="1310" 
d="M662 1735l-66 -142q-12 -25 -36 -38t-48 -10t-45 17t-27.5 42.5t4.5 66.5l50 148q20 60 75 71q51 9 85 -28q44 -48 8 -127zM948 1735l-65 -142q-12 -25 -36 -38t-48 -10t-45 17t-27.5 42.5t4.5 66.5l49 148q20 60 75 71q51 9 85 -28q44 -48 8 -127zM655 -10
q-238 0 -380 145t-142 377v813q0 50 33.5 79t74 29.5t74 -28.5t33.5 -80v-813q0 -145 80 -226t227 -81q148 0 228 83t80 224v813q0 50 33.5 79t74 29.5t74 -28.5t33.5 -80v-813q0 -232 -145 -377t-378 -145z" />
    <glyph glyph-name="uhungarumlaut" unicode="&#x171;" horiz-adv-x="1292" 
d="M618 1325l-65 -141q-12 -25 -36 -38t-48 -10t-45 17t-27.5 42.5t4.5 66.5l50 147q20 60 75 71q51 9 85 -28q44 -48 7 -127zM905 1325l-65 -141q-12 -25 -36 -38t-48 -10t-45 17t-27.5 42.5t4.5 66.5l49 147q20 60 75 71q51 9 85 -28q44 -48 8 -127zM1135 174
q24 -33 24 -67.5t-22.5 -59.5t-51 -38.5t-63 -5t-57.5 41.5q-25 28 -37 113q-51 -76 -135 -123t-181 -47q-220 0 -349.5 143t-129.5 367v422q0 51 33.5 79t74 27t74 -29.5t33.5 -76.5v-422q0 -135 67.5 -215t194.5 -80q130 0 197 81t67 216v420q0 34 16 59t40 36t52 11
t52 -11.5t40 -36t16 -58.5v-609q0 -76 45 -137z" />
    <glyph glyph-name="Uogonek" unicode="&#x172;" horiz-adv-x="1310" 
d="M963 512v813q0 50 33.5 79t74 29.5t74 -28.5t33.5 -80v-813q0 -210 -119.5 -350t-317.5 -166q-6 -9 -20.5 -26.5t-21.5 -29t-14 -27.5t-4 -32t15 -33q24 -32 51 -39.5t54 17.5q25 26 63 11t50.5 -51.5t-13.5 -76.5q-39 -49 -106.5 -60.5t-135 15.5t-106.5 82
q-43 59 -50 131t19 127q-182 38 -285.5 175t-103.5 333v813q0 50 33.5 79t74 29.5t74 -28.5t33.5 -80v-813q0 -145 80 -226t227 -81q148 0 228 83t80 224z" />
    <glyph glyph-name="uogonek" unicode="&#x173;" horiz-adv-x="1292" 
d="M1194 -125q25 26 63 11t50.5 -51.5t-13.5 -76.5q-39 -49 -106.5 -60.5t-135 15.5t-106.5 82q-52 78 -51 159t47 142q-6 16 -14 62q-51 -76 -135 -123t-181 -47q-220 0 -349.5 143t-129.5 367v422q0 51 33.5 79t74 27t74 -29.5t33.5 -76.5v-422q0 -135 67.5 -215
t194.5 -80q130 0 197 81t67 216v420q0 34 16 59t40 36t52 11t52 -11.5t40 -36t16 -58.5v-609q0 -76 45 -137q26 -37 23 -71t-28 -62q-5 -8 -19.5 -26t-20.5 -28t-12 -26t-3 -31.5t15 -31.5q24 -32 50.5 -40t53.5 17z" />
    <glyph glyph-name="Wcircumflex" unicode="&#x174;" horiz-adv-x="1798" 
d="M903 1661l-115 -76q-48 -33 -96 -5.5t-49 76t51 85.5q119 66 170 82q38 11 72 0q59 -20 172 -82q54 -30 51 -85t-46 -77.5t-95 6.5zM1233 442l235 920q11 41 41.5 65t65.5 24t66.5 -13.5t46.5 -49t2 -81.5l-347 -1235q-10 -35 -39.5 -54.5t-62.5 -19.5t-64 19.5t-44 54.5
l-234 667l-231 -667q-13 -35 -44 -54.5t-64 -19.5t-63 19.5t-40 54.5l-351 1245q-18 67 30.5 106t112.5 22.5t81 -83.5l235 -920l228 674q13 38 44 57.5t64 18t63.5 -21.5t41.5 -54z" />
    <glyph glyph-name="wcircumflex" unicode="&#x175;" horiz-adv-x="1519" 
d="M762 1251l-115 -75q-48 -33 -96 -5.5t-49 75.5t51 85q119 66 170 82q38 11 72 0q59 -20 172 -82q54 -30 51 -85t-46 -77t-95 7zM760 598l-248 -535q-19 -41 -63 -54.5t-86 6.5t-54 67l-203 811q-10 38 5 70t44 46t61.5 15.5t60 -20t36.5 -60.5l129 -588l217 467
q28 61 98.5 60.5t98.5 -60.5l221 -467l129 588q9 39 36.5 60.5t60 19.5t61.5 -16t44 -46t5 -71l-203 -809q-13 -48 -55 -67t-85.5 -4.5t-61.5 52.5z" />
    <glyph glyph-name="Ycircumflex" unicode="&#x176;" horiz-adv-x="1298" 
d="M651 1661l-114 -76q-48 -33 -96.5 -5.5t-49.5 76t51 85.5q119 66 170 82q38 11 72 0q59 -20 172 -82q54 -30 51 -85t-46 -77.5t-95 6.5zM537 115l-2 563l-418 569q-25 37 -25 75t23.5 64.5t53.5 41t66.5 5.5t61.5 -42l352 -469l352 469q43 57 107 43.5t87 -69t-13 -118.5
l-420 -569l2 -563q0 -54 -35.5 -84.5t-78 -30.5t-78 30.5t-35.5 84.5z" />
    <glyph glyph-name="ycircumflex" unicode="&#x177;" horiz-adv-x="1265" 
d="M600 1251l-115 -75q-48 -33 -96 -5.5t-49 75.5t51 85q119 66 170 82q38 11 72 0q59 -20 172 -82q54 -30 51 -85t-46 -77t-95 7zM598 240l320 721q28 63 91 65t102 -48t9 -114l-522 -1130q-47 -88 -135 -133t-180.5 -41.5t-182 49t-141.5 125.5q-22 37 -20 72.5t26.5 59.5
t55 36t66 1t58.5 -46q42 -61 128.5 -72t125.5 51l88 176l-411 850q-16 39 -8.5 74t36 56t60.5 29t65 -8.5t50 -54.5z" />
    <glyph glyph-name="Ydieresis" unicode="&#x178;" horiz-adv-x="1298" 
d="M498 1583q-45 0 -75 26t-30 68q0 44 29.5 69.5t75.5 25.5q45 0 75.5 -25.5t30.5 -69.5q0 -42 -31 -68t-75 -26zM805 1583q-45 0 -76 26t-31 68q0 44 30.5 69.5t76.5 25.5q45 0 74.5 -25.5t29.5 -69.5q0 -42 -30 -68t-74 -26zM537 115l-2 563l-418 569q-25 37 -25 75
t23.5 64.5t53.5 41t66.5 5.5t61.5 -42l352 -469l352 469q43 57 107 43.5t87 -69t-13 -118.5l-420 -569l2 -563q0 -54 -35.5 -84.5t-78 -30.5t-78 30.5t-35.5 84.5z" />
    <glyph glyph-name="Zacute" unicode="&#x179;" horiz-adv-x="1449" 
d="M885 1735l-66 -142q-12 -25 -35.5 -38t-47.5 -10t-45 17t-27.5 42.5t4.5 66.5l49 148q20 60 75 71q51 9 85 -28q44 -48 8 -127zM1200 0h-952q-45 0 -78 31.5t-36 72.5t24 80l807 1020h-717q-54 0 -84.5 36t-30.5 79t30.5 79t84.5 36h952q47 0 80 -31.5t35.5 -72.5
t-25.5 -81l-807 -1020h717q54 0 84.5 -36t30.5 -78.5t-30.5 -78.5t-84.5 -36z" />
    <glyph glyph-name="zacute" unicode="&#x17a;" horiz-adv-x="1290" 
d="M805 1325l-66 -141q-12 -25 -35.5 -38t-47.5 -10t-45 17t-27.5 42.5t4.5 66.5l49 147q20 60 75 71q51 9 85 -28q44 -48 8 -127zM1051 0h-811q-34 0 -61 19.5t-39 47t-6.5 59.5t30.5 56l647 627h-571q-50 0 -78.5 33.5t-28.5 74t28.5 74t78.5 33.5h811q34 0 61 -19.5
t38.5 -47t6 -59.5t-30.5 -56l-647 -627h572q50 0 78.5 -33.5t28.5 -74t-28.5 -74t-78.5 -33.5z" />
    <glyph glyph-name="Zdotaccent" unicode="&#x17b;" horiz-adv-x="1449" 
d="M725 1663q-58 0 -96.5 33.5t-38.5 87.5q0 55 38 87t97 32q57 0 96 -32t39 -87q0 -54 -39.5 -87.5t-95.5 -33.5zM1200 0h-952q-45 0 -78 31.5t-36 72.5t24 80l807 1020h-717q-54 0 -84.5 36t-30.5 79t30.5 79t84.5 36h952q47 0 80 -31.5t35.5 -72.5t-25.5 -81l-807 -1020
h717q54 0 84.5 -36t30.5 -78.5t-30.5 -78.5t-84.5 -36z" />
    <glyph glyph-name="zdotaccent" unicode="&#x17c;" horiz-adv-x="1290" 
d="M645 1253q-58 0 -96.5 33.5t-38.5 87.5q0 55 38 87t97 32q57 0 96 -32t39 -87q0 -54 -39.5 -87.5t-95.5 -33.5zM1051 0h-811q-34 0 -61 19.5t-39 47t-6.5 59.5t30.5 56l647 627h-571q-50 0 -78.5 33.5t-28.5 74t28.5 74t78.5 33.5h811q34 0 61 -19.5t38.5 -47t6 -59.5
t-30.5 -56l-647 -627h572q50 0 78.5 -33.5t28.5 -74t-28.5 -74t-78.5 -33.5z" />
    <glyph glyph-name="Zcaron" unicode="&#x17d;" horiz-adv-x="1449" 
d="M608 1772l115 -76l115 76q49 35 95 6.5t46 -77.5t-51 -85q-113 -62 -172 -82q-34 -11 -72 0q-51 16 -170 82q-56 31 -51.5 85.5t49 76t96.5 -5.5zM1200 0h-952q-45 0 -78 31.5t-36 72.5t24 80l807 1020h-717q-54 0 -84.5 36t-30.5 79t30.5 79t84.5 36h952q47 0 80 -31.5
t35.5 -72.5t-25.5 -81l-807 -1020h717q54 0 84.5 -36t30.5 -78.5t-30.5 -78.5t-84.5 -36z" />
    <glyph glyph-name="zcaron" unicode="&#x17e;" horiz-adv-x="1290" 
d="M528 1362l115 -76l115 76q49 35 95 6.5t46 -77.5t-51 -85q-113 -62 -172 -82q-34 -11 -72 0q-51 16 -170 82q-56 31 -51.5 85.5t49 76t96.5 -5.5zM1051 0h-811q-34 0 -61 19.5t-39 47t-6.5 59.5t30.5 56l647 627h-571q-50 0 -78.5 33.5t-28.5 74t28.5 74t78.5 33.5h811
q34 0 61 -19.5t38.5 -47t6 -59.5t-30.5 -56l-647 -627h572q50 0 78.5 -33.5t28.5 -74t-28.5 -74t-78.5 -33.5z" />
    <glyph glyph-name="uni0218" unicode="&#x218;" horiz-adv-x="1181" 
d="M598 879q104 -19 176.5 -39.5t142 -55.5t111.5 -82.5t67 -120t25 -167.5q0 -100 -45.5 -182t-123.5 -134t-178 -80t-212 -28q-80 0 -155 17t-143.5 51.5t-118.5 95.5t-70 141q-9 35 5.5 67t42.5 48.5t59.5 20.5t59.5 -17t40 -64q38 -137 280 -137q61 0 118.5 11.5
t107.5 34.5t80 63t30 92q0 116 -61 161.5t-254 79.5q-75 13 -128.5 26.5t-110.5 35t-95 50.5t-69.5 70t-46.5 97.5t-15 128.5q0 172 126.5 276.5t344.5 104.5q152 0 274.5 -58t175.5 -174q10 -23 10 -46.5t-11.5 -43t-27.5 -35.5t-39 -22.5t-45.5 -5t-46 16.5t-42.5 42
q-71 103 -248 103q-248 0 -248 -158q0 -44 14.5 -73.5t49 -50t78.5 -34t116 -26.5zM600 -113q37 0 67.5 -16t45.5 -45q29 -43 32.5 -99t-16.5 -106.5t-74 -85.5t-131 -35q-25 0 -37.5 24.5t-4 49.5t35.5 27q103 5 117 63q-20 -4 -35 -4q-55 0 -91 31.5t-36 83.5
q0 53 35.5 82.5t91.5 29.5z" />
    <glyph glyph-name="uni0219" unicode="&#x219;" horiz-adv-x="1161" 
d="M586 629q92 -20 156.5 -38.5t121.5 -44.5t91 -57t53.5 -73.5t19.5 -96.5q0 -144 -120.5 -236.5t-317.5 -92.5q-132 0 -256 42.5t-178 131.5q-21 35 -22.5 66.5t13 52.5t39 33.5t52 13t55 -13t45.5 -40.5q13 -19 37 -37.5t81.5 -36.5t131.5 -18q121 0 175 27.5t54 81.5
t-52.5 81.5t-191.5 59.5q-159 38 -217 62q-143 61 -164 184q-4 23 -4 49q0 137 105.5 220t294.5 83q251 0 336 -147q23 -43 21 -74t-23 -49t-47.5 -25.5t-53.5 -2t-41 21.5q-21 25 -38 39.5t-58.5 29.5t-97.5 15q-76 0 -129.5 -24.5t-53.5 -76.5q0 -21 10 -37t25.5 -26.5
t39 -19t44.5 -13.5t49 -11zM586 -113q37 0 67 -16t45 -45q29 -43 32.5 -99t-16 -106.5t-73.5 -85.5t-131 -35q-25 0 -37.5 24.5t-4 49.5t35.5 27q103 5 117 63q-20 -4 -35 -4q-55 0 -91 31.5t-36 83.5q0 53 35.5 82.5t91.5 29.5z" />
    <glyph glyph-name="uni021A" unicode="&#x21a;" horiz-adv-x="1392" 
d="M176 1434h1043q72 0 101.5 -59t0 -117t-101.5 -54l-408 21v-1110q0 -54 -35.5 -84.5t-78 -30.5t-78 30.5t-35.5 84.5v1110l-408 -21q-73 -4 -103 54t0 117t103 59zM705 -113q37 0 67 -16t45 -45q29 -43 32.5 -99t-16 -106.5t-73.5 -85.5t-131 -35q-25 0 -37.5 24.5
t-4 49.5t35.5 27q102 5 116 63q-20 -4 -34 -4q-55 0 -91 31.5t-36 83.5q0 53 35.5 82.5t91.5 29.5z" />
    <glyph glyph-name="uni021B" unicode="&#x21b;" horiz-adv-x="1116" 
d="M786 266q22 33 55.5 44t63 0t53 -33.5t26 -56.5t-18.5 -68q-48 -73 -134.5 -117.5t-187.5 -44.5q-152 0 -240 84t-88 235v510l-149 -6q-65 -3 -93 50t-1 107t94 54h149v410q0 49 33 76.5t72.5 27.5t72.5 -27.5t33 -76.5v-410h293q40 0 66.5 -22t33 -53.5t0 -62.5
t-33.5 -52.5t-66 -20.5l-293 10v-452q0 -168 127 -168q94 0 133 63zM561 -113q37 0 67.5 -16t45.5 -45q29 -43 32.5 -99t-16.5 -106.5t-74 -85.5t-131 -35q-25 0 -37.5 24.5t-4 49.5t35.5 27q103 5 117 63q-20 -4 -35 -4q-55 0 -91 31.5t-36 83.5q0 53 35.5 82.5t91.5 29.5z
" />
    <glyph glyph-name="uni0237" unicode="&#x237;" horiz-adv-x="528" 
d="M-287 -287q-17 26 -20 53t7 47.5t27 38t40.5 25t47 7.5t47 -12.5t40.5 -37.5q32 -55 98.5 -66t120 21.5t53.5 87.5v1038q0 41 23 69t55 34.5t64.5 0t55.5 -34.5t23 -69v-1038q0 -83 -37.5 -151t-97 -109.5t-135.5 -60t-150.5 -9t-145 52t-116.5 113.5z" />
    <glyph glyph-name="circumflex" unicode="&#x2c6;" 
d="M385 1661l-115 -76q-48 -33 -96 -5.5t-49 76t51 85.5q119 66 170 82q38 11 72 0q59 -20 172 -82q54 -30 51 -85t-46 -77.5t-95 6.5z" />
    <glyph glyph-name="caron" unicode="&#x2c7;" 
d="M270 1772l115 -76l115 76q49 35 95 6.5t46 -77.5t-51 -85q-113 -62 -172 -82q-34 -11 -72 0q-51 16 -170 82q-56 31 -51.5 85.5t49 76t96.5 -5.5z" />
    <glyph glyph-name="breve" unicode="&#x2d8;" 
d="M393 1536q-96 0 -170 58.5t-98 148.5q-13 41 30.5 68.5t100.5 18.5t76 -58q19 -47 61 -47t62 47q25 59 96 63q59 3 94 -32q28 -26 17 -60q-23 -90 -98 -148.5t-171 -58.5z" />
    <glyph glyph-name="dotaccent" unicode="&#x2d9;" 
d="M287 1663q-58 0 -96.5 33.5t-38.5 87.5q0 55 38 87t97 32q57 0 96 -32t39 -87q0 -54 -39.5 -87.5t-95.5 -33.5z" />
    <glyph glyph-name="ring" unicode="&#x2da;" 
d="M379 1475q-107 0 -181.5 75.5t-74.5 182.5q0 105 74.5 179.5t181.5 74.5q106 0 181 -75t75 -179q0 -107 -75 -182.5t-181 -75.5zM379 1653q34 0 56 23t22 57q0 32 -22 53.5t-56 21.5t-56 -21.5t-22 -53.5q0 -34 22 -57t56 -23z" />
    <glyph glyph-name="ogonek" unicode="&#x2db;" 
d="M522 -317q-39 -49 -106.5 -61t-135 15t-106.5 82q-53 79 -51 163t51 145q32 41 77 53t79.5 -2.5t44.5 -44.5q7 -21 -1.5 -43t-24.5 -39.5t-30 -39t-17 -41.5t15 -48q24 -32 51 -40t54 17q25 26 63 11t50.5 -51t-13.5 -76z" />
    <glyph glyph-name="tilde" unicode="&#x2dc;" 
d="M635 1573q-47 0 -89 22.5t-81 45t-78 22.5q-61 0 -82 -41q-21 -36 -57.5 -47t-67 1t-47.5 43.5t-4 70.5q26 72 85 113.5t138 41.5q38 0 72.5 -14.5t56.5 -31.5t51.5 -31.5t57.5 -14.5q44 0 65 41q20 38 55 48t65 -2.5t47.5 -43t6.5 -65.5q-22 -73 -72.5 -115.5
t-121.5 -42.5z" />
    <glyph glyph-name="hungarumlaut" unicode="&#x2dd;" 
d="M348 1735l-65 -142q-12 -25 -36 -38t-48 -10t-45 17t-27.5 42.5t4.5 66.5l49 148q20 60 75 71q51 9 85 -28q44 -48 8 -127zM635 1735l-66 -142q-12 -25 -35.5 -38t-47.5 -10t-45 17t-27.5 42.5t4.5 66.5l49 148q20 60 75 71q51 9 85 -28q44 -48 8 -127z" />
    <glyph glyph-name="gravecomb" unicode="&#x300;" horiz-adv-x="0" 
d="M-283 1593l-65 142q-37 80 9 128q35 36 85 26q55 -11 74 -70l49 -148q11 -38 4.5 -66.5t-27.5 -42.5t-45 -17t-48 10t-36 38z" />
    <glyph glyph-name="acutecomb" unicode="&#x301;" horiz-adv-x="0" 
d="M-139 1735l-66 -142q-12 -25 -35.5 -38t-47.5 -10t-45 17t-27.5 42.5t4.5 66.5l49 148q20 60 75 71q51 9 85 -28q44 -48 8 -127z" />
    <glyph glyph-name="uni0302" unicode="&#x302;" horiz-adv-x="0" 
d="M-381 1661l-115 -76q-48 -33 -96 -5.5t-49 76t51 85.5q119 66 170 82q38 11 72 0q59 -20 172 -82q54 -30 51 -85t-46 -77.5t-95 6.5z" />
    <glyph glyph-name="tildecomb" unicode="&#x303;" horiz-adv-x="0" 
d="M-322 1573q-47 0 -89 22.5t-80.5 45t-77.5 22.5q-61 0 -82 -41q-21 -36 -57.5 -47t-67 1t-47.5 43.5t-4 70.5q26 72 85 113.5t138 41.5q48 0 89 -23t77 -46t71 -23q45 0 66 41q20 38 55 48t65 -2.5t47.5 -43t6.5 -65.5q-22 -73 -73 -115.5t-122 -42.5z" />
    <glyph glyph-name="uni0304" unicode="&#x304;" horiz-adv-x="0" 
d="M-221 1597h-354q-46 0 -72 31t-26.5 68.5t26 68.5t72.5 31h354q46 0 72.5 -31t26 -68.5t-26.5 -68.5t-72 -31z" />
    <glyph glyph-name="uni0306" unicode="&#x306;" horiz-adv-x="0" 
d="M-393 1536q-96 0 -171 58.5t-98 148.5q-13 41 30.5 68.5t100.5 18.5t76 -58q19 -47 61 -47t62 47q25 59 96 63q59 3 94 -32q28 -26 17 -60q-24 -90 -98 -148.5t-170 -58.5z" />
    <glyph glyph-name="uni0307" unicode="&#x307;" horiz-adv-x="0" 
d="M-717 1663q-58 0 -96.5 33.5t-38.5 87.5q0 55 38 87t97 32q57 0 96 -32t39 -87q0 -54 -39.5 -87.5t-95.5 -33.5z" />
    <glyph glyph-name="uni0308" unicode="&#x308;" horiz-adv-x="0" 
d="M-653 1583q-45 0 -75 26t-30 68q0 44 29.5 69.5t75.5 25.5q45 0 75.5 -25.5t30.5 -69.5q0 -42 -31 -68t-75 -26zM-346 1583q-45 0 -76 26t-31 68q0 44 30.5 69.5t76.5 25.5q45 0 74.5 -25.5t29.5 -69.5q0 -42 -30 -68t-74 -26z" />
    <glyph glyph-name="uni030A" unicode="&#x30a;" horiz-adv-x="0" 
d="M-379 1475q-107 0 -181.5 75.5t-74.5 182.5q0 105 74.5 179.5t181.5 74.5q106 0 181 -75t75 -179q0 -107 -75 -182.5t-181 -75.5zM-379 1653q34 0 56 23t22 57q0 32 -22 53.5t-56 21.5t-56 -21.5t-22 -53.5q0 -34 22 -57t56 -23z" />
    <glyph glyph-name="uni030B" unicode="&#x30b;" horiz-adv-x="0" 
d="M-426 1735l-66 -142q-12 -25 -35.5 -38t-47.5 -10t-45 17t-27.5 42.5t4.5 66.5l49 148q20 60 75 71q51 9 85 -28q44 -48 8 -127zM-139 1735l-66 -142q-12 -25 -35.5 -38t-47.5 -10t-45 17t-27.5 42.5t4.5 66.5l49 148q20 60 75 71q51 9 85 -28q44 -48 8 -127z" />
    <glyph glyph-name="uni030C" unicode="&#x30c;" horiz-adv-x="0" 
d="M-502 1772l115 -76l115 76q49 35 95 6.5t46 -77.5t-51 -85q-113 -62 -172 -82q-34 -11 -72 0q-51 16 -170 82q-56 31 -51.5 85.5t49 76t96.5 -5.5z" />
    <glyph glyph-name="uni0312" unicode="&#x312;" horiz-adv-x="0" 
d="M-272 1853q64 0 105.5 -37t41.5 -98q0 -62 -41 -97.5t-106 -35.5q-44 0 -80 18.5t-54 51.5q-34 51 -38.5 117t19 126t87 101t154.5 41q29 0 44 -28.5t5.5 -57.5t-41.5 -31q-119 -8 -137 -74q24 4 41 4z" />
    <glyph glyph-name="uni0326" unicode="&#x326;" horiz-adv-x="0" 
d="M-166 -174q29 -43 32.5 -99t-16 -106.5t-73.5 -85.5t-131 -35q-25 0 -37.5 24.5t-4 49.5t35.5 27q102 5 116 63q-20 -4 -35 -4q-55 0 -91 31.5t-36 83.5q0 53 35.5 82.5t91.5 29.5q37 0 67.5 -16t45.5 -45z" />
    <glyph glyph-name="uni0327" unicode="&#x327;" horiz-adv-x="0" 
d="M-522 -317q-29 35 -13 76t50.5 51.5t62.5 -11.5q27 -25 54 -17t51 40q18 28 15 48t-17 41.5t-30 39t-24.5 39.5t-1.5 43q10 30 44.5 44.5t79.5 2.5t77 -53q49 -61 51 -145t-51 -163q-39 -55 -106.5 -82t-135 -15t-106.5 61z" />
    <glyph glyph-name="uni0328" unicode="&#x328;" horiz-adv-x="0" 
d="M-141 -317q-39 -49 -106.5 -61t-135 15t-106.5 82q-53 79 -51 163t51 145q32 41 76.5 53t79 -2.5t44.5 -44.5q9 -25 -6 -53t-35 -48.5t-29 -50.5t13 -59q24 -32 50.5 -40t53.5 17q25 26 63 11t51 -51t-13 -76z" />
    <glyph glyph-name="uni0335" unicode="&#x335;" horiz-adv-x="0" 
d="M-219 440h-725q-45 0 -71 31t-26 67.5t25.5 67.5t71.5 31h725q46 0 71.5 -31t25.5 -67.5t-26 -67.5t-71 -31z" />
    <glyph glyph-name="uni0336" unicode="&#x336;" horiz-adv-x="0" 
d="M-219 440h-967q-45 0 -71 31t-26 67.5t25.5 67.5t71.5 31h967q46 0 71.5 -31t25.5 -67.5t-26 -67.5t-71 -31z" />
    <glyph glyph-name="uni0337" unicode="&#x337;" horiz-adv-x="0" 
d="M-152 977l-780 -967q-39 -49 -94 -41q-43 7 -55 43q-11 34 20 74l776 971q45 59 102 52q44 -5 56 -42q14 -41 -25 -90z" />
    <glyph glyph-name="uni0338" unicode="&#x338;" horiz-adv-x="0" 
d="M-143 1364l-1094 -1354q-53 -66 -113 -51q-39 10 -52 46q-11 31 11 58l1121 1389q30 38 77.5 33t63.5 -39.5t-14 -81.5z" />
    <glyph glyph-name="Wgrave" unicode="&#x1e80;" horiz-adv-x="1798" 
d="M799 1593l-66 142q-37 80 9 128q35 36 85 26q55 -11 74 -70l49 -148q11 -38 4.5 -66.5t-27.5 -42.5t-45 -17t-47.5 10t-35.5 38zM1233 442l235 920q11 41 41.5 65t65.5 24t66.5 -13.5t46.5 -49t2 -81.5l-347 -1235q-10 -35 -39.5 -54.5t-62.5 -19.5t-64 19.5t-44 54.5
l-234 667l-231 -667q-13 -35 -44 -54.5t-64 -19.5t-63 19.5t-40 54.5l-351 1245q-18 67 30.5 106t112.5 22.5t81 -83.5l235 -920l228 674q13 38 44 57.5t64 18t63.5 -21.5t41.5 -54z" />
    <glyph glyph-name="wgrave" unicode="&#x1e81;" horiz-adv-x="1519" 
d="M657 1184l-65 141q-37 80 9 128q35 36 85 26q55 -11 74 -70l49 -147q11 -38 4.5 -66.5t-27.5 -42.5t-45 -17t-48 10t-36 38zM760 598l-248 -535q-19 -41 -63 -54.5t-86 6.5t-54 67l-203 811q-10 38 5 70t44 46t61.5 15.5t60 -20t36.5 -60.5l129 -588l217 467
q28 61 98.5 60.5t98.5 -60.5l221 -467l129 588q9 39 36.5 60.5t60 19.5t61.5 -16t44 -46t5 -71l-203 -809q-13 -48 -55 -67t-85.5 -4.5t-61.5 52.5z" />
    <glyph glyph-name="Wacute" unicode="&#x1e82;" horiz-adv-x="1798" 
d="M1061 1735l-66 -142q-12 -25 -35.5 -38t-47.5 -10t-45 17t-27.5 42.5t4.5 66.5l49 148q20 60 75 71q51 9 85 -28q44 -48 8 -127zM1233 442l235 920q11 41 41.5 65t65.5 24t66.5 -13.5t46.5 -49t2 -81.5l-347 -1235q-10 -35 -39.5 -54.5t-62.5 -19.5t-64 19.5t-44 54.5
l-234 667l-231 -667q-13 -35 -44 -54.5t-64 -19.5t-63 19.5t-40 54.5l-351 1245q-18 67 30.5 106t112.5 22.5t81 -83.5l235 -920l228 674q13 38 44 57.5t64 18t63.5 -21.5t41.5 -54z" />
    <glyph glyph-name="wacute" unicode="&#x1e83;" horiz-adv-x="1519" 
d="M920 1325l-66 -141q-12 -25 -36 -38t-48 -10t-45 17t-27.5 42.5t4.5 66.5l50 147q20 60 75 71q51 9 85 -28q44 -48 8 -127zM760 598l-248 -535q-19 -41 -63 -54.5t-86 6.5t-54 67l-203 811q-10 38 5 70t44 46t61.5 15.5t60 -20t36.5 -60.5l129 -588l217 467
q28 61 98.5 60.5t98.5 -60.5l221 -467l129 588q9 39 36.5 60.5t60 19.5t61.5 -16t44 -46t5 -71l-203 -809q-13 -48 -55 -67t-85.5 -4.5t-61.5 52.5z" />
    <glyph glyph-name="Wdieresis" unicode="&#x1e84;" horiz-adv-x="1798" 
d="M750 1583q-45 0 -75 26t-30 68q0 44 29.5 69.5t75.5 25.5q45 0 75.5 -25.5t30.5 -69.5q0 -42 -31 -68t-75 -26zM1057 1583q-45 0 -76 26t-31 68q0 44 30.5 69.5t76.5 25.5q45 0 74.5 -25.5t29.5 -69.5q0 -42 -30 -68t-74 -26zM1233 442l235 920q11 41 41.5 65t65.5 24
t66.5 -13.5t46.5 -49t2 -81.5l-347 -1235q-10 -35 -39.5 -54.5t-62.5 -19.5t-64 19.5t-44 54.5l-234 667l-231 -667q-13 -35 -44 -54.5t-64 -19.5t-63 19.5t-40 54.5l-351 1245q-18 67 30.5 106t112.5 22.5t81 -83.5l235 -920l228 674q13 38 44 57.5t64 18t63.5 -21.5
t41.5 -54z" />
    <glyph glyph-name="wdieresis" unicode="&#x1e85;" horiz-adv-x="1519" 
d="M608 1174q-45 0 -74.5 26t-29.5 68q0 44 29 69t75 25q45 0 76 -25t31 -69q0 -42 -31.5 -68t-75.5 -26zM915 1174q-45 0 -75.5 26t-30.5 68q0 44 30 69t76 25q45 0 75 -25t30 -69q0 -42 -30.5 -68t-74.5 -26zM760 598l-248 -535q-19 -41 -63 -54.5t-86 6.5t-54 67
l-203 811q-10 38 5 70t44 46t61.5 15.5t60 -20t36.5 -60.5l129 -588l217 467q28 61 98.5 60.5t98.5 -60.5l221 -467l129 588q9 39 36.5 60.5t60 19.5t61.5 -16t44 -46t5 -71l-203 -809q-13 -48 -55 -67t-85.5 -4.5t-61.5 52.5z" />
    <glyph glyph-name="uni1E9E" unicode="&#x1e9e;" horiz-adv-x="1290" 
d="M748 0h-113q-55 0 -85.5 36t-30.5 78.5t31 78.5t85 36h113q49 0 87.5 20.5t59.5 53.5t31.5 72.5t1.5 79.5t-28.5 73t-59.5 53.5t-92 20.5h-113q-55 0 -85.5 36t-30.5 78.5t31 78.5t85 36h35q49 0 88 20.5t60.5 53.5t32 73t2 79.5t-28.5 72.5t-60.5 53.5t-93.5 20.5h-127
q-77 0 -129 -52t-52 -128v-909q0 -55 -36 -85.5t-78.5 -30.5t-78.5 31t-36 85v909q0 178 115.5 294t294.5 116h127q87 0 163 -32.5t128.5 -85.5t85 -124t38.5 -145t-18 -151.5t-78 -141.5q76 -66 118.5 -150t48 -166.5t-20.5 -162.5t-77.5 -140.5t-132.5 -97.5t-177 -37z
" />
    <glyph glyph-name="Ygrave" unicode="&#x1ef2;" horiz-adv-x="1298" 
d="M547 1593l-66 142q-37 80 9 128q35 36 85 26q55 -11 74 -70l49 -148q11 -38 4.5 -66.5t-27.5 -42.5t-45 -17t-47.5 10t-35.5 38zM537 115l-2 563l-418 569q-25 37 -25 75t23.5 64.5t53.5 41t66.5 5.5t61.5 -42l352 -469l352 469q43 57 107 43.5t87 -69t-13 -118.5
l-420 -569l2 -563q0 -54 -35.5 -84.5t-78 -30.5t-78 30.5t-35.5 84.5z" />
    <glyph glyph-name="ygrave" unicode="&#x1ef3;" horiz-adv-x="1265" 
d="M496 1184l-66 141q-37 80 9 128q35 36 85 26q55 -11 74 -70l49 -147q11 -38 4.5 -66.5t-27.5 -42.5t-45 -17t-47.5 10t-35.5 38zM598 240l320 721q28 63 91 65t102 -48t9 -114l-522 -1130q-47 -88 -135 -133t-180.5 -41.5t-182 49t-141.5 125.5q-22 37 -20 72.5
t26.5 59.5t55 36t66 1t58.5 -46q42 -61 128.5 -72t125.5 51l88 176l-411 850q-16 39 -8.5 74t36 56t60.5 29t65 -8.5t50 -54.5z" />
    <glyph glyph-name="endash" unicode="&#x2013;" 
d="M1065 571h-698q-51 0 -79.5 34t-28.5 74.5t28.5 74.5t79.5 34h698q51 0 79.5 -34t28.5 -74.5t-28.5 -74.5t-79.5 -34z" />
    <glyph glyph-name="emdash" unicode="&#x2014;" 
d="M1188 571h-944q-51 0 -79.5 34t-28.5 74.5t28.5 74.5t79.5 34h944q51 0 79.5 -34t28.5 -74.5t-28.5 -74.5t-79.5 -34z" />
    <glyph glyph-name="quoteleft" unicode="&#x2018;" 
d="M1114 1225q64 0 106 -37t42 -98q0 -62 -41.5 -98t-106.5 -36q-43 0 -79 18.5t-54 51.5q-27 40 -36.5 91.5t2 102.5t40.5 94t85 70t130 27q29 0 44 -28.5t5.5 -57.5t-41.5 -31q-119 -8 -137 -73q24 4 41 4z" />
    <glyph glyph-name="quoteright" unicode="&#x2019;" horiz-adv-x="567" 
d="M403 1415q27 -40 36.5 -91.5t-2 -102.5t-40.5 -94t-85 -70t-130 -27q-29 0 -44 28.5t-5.5 57.5t41.5 31q119 8 137 74q-24 -4 -41 -4q-64 0 -105.5 37t-41.5 98q0 62 41 97.5t106 35.5q43 0 79 -18.5t54 -51.5z" />
    <glyph glyph-name="quotesinglbase" unicode="&#x201a;" horiz-adv-x="587" 
d="M414 188q27 -40 36.5 -91.5t-2 -102.5t-40.5 -94t-85 -70t-130 -27q-29 0 -44.5 28.5t-6 57.5t41.5 31q120 8 138 74q-24 -4 -41 -4q-64 0 -106 37t-42 98q0 62 41.5 97.5t106.5 35.5q43 0 79 -18.5t54 -51.5z" />
    <glyph glyph-name="quotedblleft" unicode="&#x201c;" horiz-adv-x="1019" 
d="M297 1245q64 0 105.5 -37t41.5 -98q0 -62 -41 -97.5t-106 -35.5q-43 0 -79 18.5t-54 51.5q-27 40 -36.5 91.5t2 102.5t40.5 94t85 70t130 27q29 0 44 -28.5t5.5 -57.5t-41.5 -31q-119 -8 -137 -74q24 4 41 4zM750 1245q64 0 105.5 -37t41.5 -98q0 -62 -41 -97.5
t-106 -35.5q-44 0 -80 18.5t-54 51.5q-34 51 -38.5 117t19 126t87 101t154.5 41q29 0 44 -28.5t5.5 -57.5t-41.5 -31q-119 -8 -137 -74q24 4 41 4z" />
    <glyph glyph-name="quotedblright" unicode="&#x201d;" horiz-adv-x="976" 
d="M270 1444q43 0 79 -18.5t54 -51.5q27 -40 36.5 -91.5t-2 -102.5t-40.5 -94t-85 -70t-130 -27q-29 0 -44 28.5t-5.5 57.5t41.5 31q119 8 137 74q-24 -4 -41 -4q-64 0 -105.5 37t-41.5 98q0 62 41 97.5t106 35.5zM813 1374q27 -40 36.5 -91.5t-2 -102.5t-40.5 -94t-85 -70
t-130 -27q-29 0 -44 28.5t-5.5 57.5t41.5 31q119 8 137 74q-24 -4 -41 -4q-64 0 -106 37t-42 98q0 62 41.5 97.5t106.5 35.5q43 0 79 -18.5t54 -51.5z" />
    <glyph glyph-name="quotedblbase" unicode="&#x201e;" horiz-adv-x="587" 
d="M414 188q27 -40 36.5 -91.5t-2 -102.5t-40.5 -94t-85 -70t-130 -27q-29 0 -44.5 28.5t-6 57.5t41.5 31q120 8 138 74q-24 -4 -41 -4q-64 0 -106 37t-42 98q0 62 41.5 97.5t106.5 35.5q43 0 79 -18.5t54 -51.5z" />
    <glyph glyph-name="dagger" unicode="&#x2020;" 
d="M612 834v264h-82q-47 0 -74 32t-27.5 70.5t26.5 70.5t75 32h82v77q0 47 32.5 74.5t71 28t71 -27t32.5 -75.5v-77h82q48 0 75 -32t27 -70.5t-27 -70.5t-75 -32h-82v-264q0 -48 -32.5 -75t-71 -26.5t-71 27.5t-32.5 74z" />
    <glyph glyph-name="daggerdbl" unicode="&#x2021;" 
d="M901 1098h-82v-70h58q44 0 69.5 -31.5t26 -69t-25 -69t-70.5 -31.5h-58v-75q0 -48 -32.5 -75t-71 -26.5t-71 27.5t-32.5 74v75h-55q-45 0 -70.5 31.5t-25.5 69t25.5 69t70.5 31.5h55v70h-82q-47 0 -74 32t-27.5 70.5t26.5 70.5t75 32h82v77q0 47 32.5 74.5t71 28t71 -27
t32.5 -75.5v-77h82q48 0 75 -32t27 -70.5t-27 -70.5t-75 -32z" />
    <glyph glyph-name="bullet" unicode="&#x2022;" 
d="M-33 297q-128 0 -211.5 74.5t-83.5 195.5q0 123 83 195t212 72q125 0 210 -72.5t85 -194.5q0 -120 -86 -195t-209 -75z" />
    <glyph glyph-name="ellipsis" unicode="&#x2026;" horiz-adv-x="1605" 
d="M352 -10q-64 0 -105.5 37t-41.5 98q0 62 41 97.5t106 35.5q62 0 105 -36t43 -97q0 -60 -43 -97.5t-105 -37.5zM809 -10q-64 0 -105.5 37t-41.5 98q0 62 41 97.5t106 35.5q62 0 104.5 -36t42.5 -97q0 -60 -42.5 -97.5t-104.5 -37.5zM1253 -10q-64 0 -105.5 37t-41.5 98
q0 62 41 97.5t106 35.5q62 0 105 -36t43 -97q0 -60 -43 -97.5t-105 -37.5z" />
    <glyph glyph-name="perthousand" unicode="&#x2030;" horiz-adv-x="2068" 
d="M1225 1280l-863 -1241q-17 -24 -40.5 -34t-46.5 -6t-43 17.5t-31.5 33.5t-11 46t17.5 51l862 1242q21 29 51.5 37.5t56 -3t46 -32.5t21 -51.5t-18.5 -59.5zM344 909q-119 0 -190.5 74.5t-71.5 187.5q0 116 73.5 189.5t188.5 73.5q117 0 188.5 -73t71.5 -190
q0 -116 -72.5 -189t-187.5 -73zM344 1077q92 0 92 94q0 51 -23 72t-69 21q-48 0 -71 -22t-23 -71q0 -94 94 -94zM1092 0q-119 0 -191 74.5t-72 187.5q0 115 73.5 188.5t189.5 73.5q117 0 188.5 -72.5t71.5 -189.5q0 -116 -72.5 -189t-187.5 -73zM1726 0q-119 0 -190.5 74.5
t-71.5 187.5q0 116 73 189t189 73q117 0 189 -72.5t72 -189.5q0 -116 -73 -189t-188 -73zM1092 168q92 0 92 94q0 51 -23 71.5t-69 20.5q-48 0 -71.5 -21.5t-23.5 -70.5q0 -94 95 -94zM1726 168q93 0 93 94q0 51 -23.5 71.5t-69.5 20.5q-48 0 -71 -21.5t-23 -70.5
q0 -94 94 -94z" />
    <glyph glyph-name="guilsinglleft" unicode="&#x2039;" 
d="M788 121l-303 346q-53 67 0 141l303 346q19 21 43 30t46 5.5t42.5 -14.5t34 -30t19.5 -40t0 -45t-25 -45l-243 -278l243 -277q27 -30 28.5 -64.5t-18.5 -59.5t-48.5 -40.5t-62.5 -9.5t-59 35z" />
    <glyph glyph-name="guilsinglright" unicode="&#x203a;" 
d="M950 467l-303 -346q-25 -29 -59 -35t-62.5 9.5t-48.5 40.5t-18.5 59.5t28.5 64.5l244 277l-244 278q-19 21 -25 45t0 45t19.5 40t34 30t42.5 14.5t46 -5.5t43 -30l303 -346q52 -74 0 -141z" />
    <glyph glyph-name="fraction" unicode="&#x2044;" horiz-adv-x="1363" 
d="M1303 1364l-1094 -1354q-53 -66 -113 -51q-39 10 -52 46q-11 31 11 58l1121 1389q30 38 77.5 33t63.5 -39.5t-14 -81.5z" />
    <glyph glyph-name="Euro" unicode="&#x20ac;" 
d="M1044 342q42 55 106 43.5t87 -64t-14 -112.5q-78 -105 -194.5 -162t-250.5 -57q-215 0 -359 124.5t-202 336.5h-164q-45 0 -71 30.5t-26 67.5t25.5 67.5t71.5 30.5h133q-2 23 -2 70q0 41 2 61h-133q-45 0 -71 31t-26 67.5t25.5 67.5t71.5 31h164q56 215 202 342t359 127
q135 0 249.5 -55t193.5 -160q24 -36 24 -71.5t-23.5 -61t-53 -39t-65 -4.5t-59.5 41q-100 127 -266 127q-122 0 -204.5 -65.5t-124.5 -180.5h329q46 0 71.5 -31t25.5 -67.5t-26 -67.5t-71 -31h-368q-2 -20 -2 -61q0 -47 2 -70h368q46 0 71.5 -30.5t25.5 -67.5t-26 -67.5
t-71 -30.5h-327q41 -112 123 -175t204 -63q172 0 266 129z" />
    <glyph glyph-name="trademark" unicode="&#x2122;" 
d="M1061 729l178 266q13 20 35.5 22.5t39.5 -11t17 -37.5v-529q0 -32 -25 -45.5t-50 0t-25 45.5v371l-127 -199q-15 -24 -41 -24t-43 24l-127 197v-369q0 -32 -25 -45.5t-50 0t-25 45.5v529q0 37 35 47.5t57 -21.5zM182 1018h457q32 0 45.5 -26t0 -51t-45.5 -23l-178 10
v-488q0 -32 -25 -45.5t-50.5 0t-25.5 45.5v488l-178 -10q-32 -2 -45.5 23t0 51t45.5 26z" />
    <glyph glyph-name="arrowleft" unicode="&#x2190;" 
d="M608 279l-303 344q-63 69 0 141l303 346q26 30 60.5 36.5t62 -9t46.5 -40.5t18 -59.5t-27 -64.5l-152 -172h433q49 0 77.5 -33.5t28.5 -73t-28 -73t-78 -33.5h-433l152 -172q27 -30 28 -64.5t-19 -59.5t-48 -40t-62 -9t-59 36z" />
    <glyph glyph-name="arrowup" unicode="&#x2191;" 
d="M285 795l344 303q69 63 141 0l346 -303q30 -26 36.5 -60.5t-9 -62t-40.5 -46.5t-59.5 -18t-64.5 27l-172 151v-432q0 -49 -33.5 -77.5t-73 -28.5t-73 28t-33.5 78v432l-172 -151q-30 -27 -64.5 -28t-59.5 19t-40 48t-9 62t36 59z" />
    <glyph glyph-name="arrowright" unicode="&#x2192;" 
d="M1122 623l-303 -344q-25 -30 -59 -36t-62 9t-48 40t-19 59.5t28 64.5l152 172h-432q-50 0 -78 33.5t-28 73t28.5 73t77.5 33.5h432l-152 172q-26 30 -27 64.5t18 59.5t46.5 40.5t62 9t60.5 -36.5l303 -346q63 -72 0 -141z" />
    <glyph glyph-name="arrowdown" unicode="&#x2193;" 
d="M629 281l-344 303q-21 18 -30.5 41t-6.5 44.5t13.5 42.5t29 35t39.5 20.5t45.5 0.5t46.5 -25l172 -151v432q0 50 33.5 78t73 28t73 -28.5t33.5 -77.5v-432l172 151q30 26 64.5 27t59.5 -18t40.5 -46.5t9 -61.5t-36.5 -60l-346 -303q-72 -63 -141 0z" />
    <glyph glyph-name="arrowboth" unicode="&#x2194;" 
d="M330 330l-258 293q-63 69 0 141l258 295q26 30 60.5 36.5t62 -9t46.5 -40.5t17.5 -59.5t-27.5 -64.5l-106 -121h668l-99 112q-26 30 -27 64.5t18 59.5t46.5 41t62 9.5t60.5 -36.5l250 -287q62 -70 0 -141l-252 -293q-21 -24 -48.5 -32.5t-52.5 -2t-45.5 24t-31.5 40.5
t-7 52t25 55l101 121h-668l106 -121q27 -30 28.5 -64.5t-18 -59t-47.5 -39.5t-62 -9t-60 35z" />
    <glyph glyph-name="arrowupdn" unicode="&#x2195;" 
d="M330 1104l293 258q69 63 141 0l295 -258q22 -19 31.5 -42.5t6 -45.5t-14 -42.5t-29.5 -34t-40 -20t-45.5 -0.5t-45.5 25l-121 107v-668l112 98q21 19 45.5 24.5t45.5 -0.5t40 -19.5t30 -34t14.5 -42t-6 -45t-31.5 -42.5l-287 -250q-70 -62 -141 0l-293 252
q-29 25 -35.5 59t8.5 61.5t39.5 47t59 18.5t65.5 -27l121 -100v668l-121 -107q-22 -19 -46.5 -25.5t-45 0t-39 20.5t-29 35t-13.5 42.5t6 45t30 42.5z" />
    <glyph glyph-name="uni2196" unicode="&#x2196;" 
d="M868 467l-274 276v-196q0 -36 -20.5 -61t-50 -31.5t-59.5 -1.5t-50.5 30.5t-20.5 63.5l2 434q0 43 29.5 72.5t71.5 29.5h434q37 0 62.5 -20.5t31.5 -50t0 -59t-31.5 -50t-62.5 -20.5h-195l275 -275q26 -25 30.5 -56.5t-10.5 -57t-39.5 -42.5t-58.5 -14t-64 29z" />
    <glyph glyph-name="uni2197" unicode="&#x2197;" 
d="M840 743l-275 -276q-30 -26 -64 -29t-58 14t-39.5 42.5t-10.5 57t31 56.5l274 275h-194q-37 0 -62.5 20.5t-31.5 50t0 59t31.5 50t62.5 20.5h434q41 0 70.5 -29.5t29.5 -72.5l2 -434q0 -48 -31 -74t-69 -24.5t-69 28t-31 70.5v196z" />
    <glyph glyph-name="uni2198" unicode="&#x2198;" 
d="M565 1051l275 -277v197q0 44 31 70.5t69 28t69 -24.5t31 -74l-2 -434q0 -43 -29.5 -73t-70.5 -30h-434q-37 0 -62.5 20.5t-31.5 50t0 59.5t31.5 50.5t62.5 20.5h194l-274 274q-44 41 -28 95.5t65 69.5t104 -23z" />
    <glyph glyph-name="uni2199" unicode="&#x2199;" 
d="M592 774l274 277q30 26 64 29t58.5 -14.5t39.5 -43t10.5 -57t-30.5 -56.5l-275 -274h195q37 0 62.5 -20.5t31.5 -50.5t0 -59.5t-31.5 -50t-62.5 -20.5h-434q-41 0 -71 30t-30 73l-2 434q0 38 20.5 63.5t50.5 30.5t59.5 -1.5t50 -31.5t20.5 -61v-197z" />
    <glyph glyph-name="partialdiff" unicode="&#x2202;" 
 />
    <glyph glyph-name="emptyset" unicode="&#x2205;" 
d="M1149 950l-49 -59q160 -147 160 -379q0 -231 -157.5 -376.5t-406.5 -145.5q-153 0 -276 57l-51 -63q-39 -49 -94 -41q-43 6 -55 42q-12 34 20 74l55 70q-162 146 -162 383q0 232 157 377t406 145q154 0 277 -57l43 53q45 59 102 52q44 -5 56 -42q14 -41 -25 -90zM348 512
q0 -136 82 -215l404 504q-62 18 -138 18q-164 0 -256 -83t-92 -224zM696 205q164 0 256 83.5t92 223.5q0 133 -77 213l-406 -502q61 -18 135 -18z" />
    <glyph glyph-name="product" unicode="&#x220f;" 
d="M410 -213v1432h-101q-50 0 -78 33.5t-28 74t28.5 74t77.5 33.5h811q49 0 77.5 -33.5t29 -74t-27.5 -74t-79 -33.5h-102v-1432q0 -50 -33.5 -78.5t-74 -28.5t-74 28.5t-33.5 78.5v1432h-178v-1432q0 -50 -33.5 -78.5t-74 -28.5t-74 28.5t-33.5 78.5z" />
    <glyph glyph-name="summation" unicode="&#x2211;" 
 />
    <glyph glyph-name="minus" unicode="&#x2212;" 
d="M1034 575h-633q-50 0 -78 32.5t-28 72t28.5 72t77.5 32.5h633q49 0 77 -32.5t27.5 -72t-28 -72t-76.5 -32.5z" />
    <glyph glyph-name="radical" unicode="&#x221a;" 
d="M469 76l-279 839q-9 29 -6 55t18.5 44t36.5 30.5t45.5 15t47 -3t41.5 -24t28 -47.5l150 -450l176 811q7 38 38 63t71 25h299q43 0 72 -23t36 -56t0 -66t-36 -56t-72 -23h-209l-242 -1122q-9 -41 -40 -64t-65.5 -24t-66.5 19t-43 57z" />
    <glyph glyph-name="infinity" unicode="&#x221e;" 
d="M360 365q-74 0 -133.5 27t-96.5 71.5t-56.5 101t-19.5 115.5t19.5 115.5t56.5 101t96.5 71.5t133.5 27q200 0 355 -151q72 70 156 110.5t200 40.5q74 0 134.5 -27t97.5 -71.5t57 -101t20 -115.5t-20 -115.5t-57 -101t-97.5 -71.5t-134.5 -27q-116 0 -200 40.5t-156 110.5
q-155 -151 -355 -151zM360 586q65 0 111.5 23t93.5 71q-47 48 -93.5 71t-111.5 23q-41 0 -64.5 -29.5t-24 -64.5t23 -64.5t65.5 -29.5zM1071 586q56 0 79.5 47t0.5 94t-80 47q-66 0 -113 -22.5t-94 -71.5q47 -49 94 -71.5t113 -22.5z" />
    <glyph glyph-name="integral" unicode="&#x222b;" 
d="M309 -319q-30 30 -33.5 67.5t15.5 66t48 47t66 14t66 -35.5q30 -23 59 -21.5t50.5 23.5t21.5 52v1343q0 78 35.5 144t93.5 103.5t125.5 51.5t139.5 -8t128 -78q24 -26 30.5 -57t-3 -57.5t-30 -47t-46.5 -30t-57 -2t-57 33.5q-26 21 -54.5 22t-52 -20.5t-23.5 -54.5v-1343
q0 -66 -26 -123.5t-67.5 -96.5t-97 -61.5t-112.5 -24t-115 22t-104 70.5z" />
    <glyph glyph-name="approxequal" unicode="&#x2248;" 
d="M662 680q-47 0 -89 22.5t-81 45t-78 22.5q-61 0 -82 -41q-21 -36 -57.5 -47t-67 1t-47.5 43.5t-4 70.5q26 72 85 113.5t138 41.5q48 0 89 -23t77 -46t71 -23q45 0 66 41q20 38 55 48t65 -2.5t47.5 -43t6.5 -65.5q-22 -73 -72.5 -115.5t-121.5 -42.5zM662 266
q-47 0 -89 22.5t-81 45t-78 22.5q-61 0 -82 -41q-21 -36 -57.5 -47t-67 1t-47.5 43.5t-4 70.5q26 73 85 114.5t138 41.5q38 0 72.5 -14.5t56 -32t51 -32t57.5 -14.5q45 0 66 41q20 38 55 48t65 -2.5t47.5 -43t6.5 -65.5q-22 -73 -72.5 -115.5t-121.5 -42.5z" />
    <glyph glyph-name="notequal" unicode="&#x2260;" 
d="M823 842l197 245q45 58 102 52q43 -5 56 -41q13 -41 -25 -90l-133 -166q44 -1 68.5 -32t24 -68t-26.5 -67t-70 -30h-156l-160 -199h316q46 0 71.5 -30.5t25.5 -67.5t-26 -67.5t-71 -30.5h-475l-168 -209q-39 -49 -94 -41q-43 7 -55 43q-11 34 20 74l106 133h-59
q-45 0 -71 30.5t-26 67.5t25.5 67.5t71.5 30.5h217l158 199h-375q-45 0 -71 31t-26 67.5t25.5 67.5t71.5 31h532z" />
    <glyph glyph-name="lessequal" unicode="&#x2264;" 
d="M989 479l-629 307q-37 18 -50 56.5t1 77t49 55.5l629 307q26 12 50.5 11.5t43 -12t33 -29t19.5 -39.5t3 -43.5t-17 -42t-40 -33.5l-440 -213l440 -215q28 -14 43 -38.5t14.5 -50t-10.5 -50.5t-31.5 -40.5t-47.5 -19.5t-60 12zM1040 88h-632q-50 0 -78 32.5t-28 72
t28.5 72t77.5 32.5h632q49 0 77 -32.5t27.5 -72t-28 -72t-76.5 -32.5z" />
    <glyph glyph-name="greaterequal" unicode="&#x2265;" 
d="M1079 786l-628 -307q-38 -16 -71 -10t-52 32t-26 56t7.5 61t48.5 48l441 215l-441 213q-29 15 -44 40t-13.5 50t12 50t32.5 39.5t48 19t58 -10.5l628 -307q35 -17 49 -55.5t1 -77t-50 -56.5zM1032 88h-633q-49 0 -76.5 32.5t-28 72t27.5 72t77 32.5h633q49 0 77.5 -32.5
t28.5 -72t-28 -72t-78 -32.5z" />
    <glyph glyph-name="lozenge" unicode="&#x25ca;" 
d="M614 51l-282 582q-19 25 -19 60t19 63l282 579q34 63 101.5 63t101.5 -63l283 -579q19 -28 19 -63t-19 -60l-283 -582q-32 -61 -101.5 -61t-101.5 61zM549 694l166 -342l168 342l-168 340z" />
    <glyph glyph-name="W.001" horiz-adv-x="1863" 
d="M930 858l-350 -782q-21 -47 -67 -65.5t-89 4t-55 81.5l-234 1211q-8 41 9 72.5t47 43t63 10t60.5 -26t35.5 -65.5l170 -860l307 668q34 71 101.5 72.5t103.5 -72.5l311 -668l170 862q8 40 36 64t61 25.5t63.5 -10t47 -43t8.5 -72.5l-234 -1211q-12 -60 -55 -82t-89 -3
t-67 65z" />
    <glyph glyph-name="W.002" horiz-adv-x="1863" 
d="M1169 424l334 938q24 68 87 74.5t106.5 -42.5t19.5 -116l-440 -1206q-17 -47 -61 -65t-88 0t-62 65l-152 411l-149 -411q-17 -47 -61 -65t-88 0t-62 65l-442 1206q-24 66 19.5 114.5t106.5 42.5t87 -73l333 -938l138 385l-172 469q-24 66 19.5 114.5t106.5 42.5t87 -73
l77 -219l78 219q24 68 87 74.5t106.5 -42.5t19.5 -116l-172 -469z" />
    <glyph glyph-name="i.loclTRK" horiz-adv-x="1032" 
d="M305 1663q-58 0 -96.5 33.5t-38.5 87.5q0 55 38 87t97 32q57 0 96 -32t39 -87q0 -54 -39.5 -87.5t-95.5 -33.5zM174 109v806q0 41 22 69t53 34.5t62.5 0t53.5 -34.5t22 -69l2 -806q0 -51 -33.5 -80t-74 -29t-74 29t-33.5 80z" />
    <glyph glyph-name="uni0237.002" horiz-adv-x="497" 
d="M-317 -328q-22 37 -20 72.5t27 59t56 35t66.5 0t58.5 -45.5q32 -55 98.5 -66t120 21.5t53.5 87.5v1079q0 51 34.5 80t76.5 29t76.5 -29t34.5 -80v-1079q0 -71 -27.5 -132t-74 -101.5t-105.5 -67t-125 -29.5t-129.5 11t-121.5 54t-99 101z" />
    <glyph glyph-name="dollar.001" 
d="M1247 414q0 -166 -117 -273.5t-301 -138.5v-131q0 -49 -31.5 -81t-78.5 -32q-49 0 -81 32t-32 81v123q-287 24 -405 233q-30 56 6 102t99.5 43.5t101.5 -63.5q31 -52 109.5 -74t170.5 -22q61 0 118.5 11.5t107.5 34.5t80 63t30 92q0 60 -12.5 94.5t-51.5 57t-94 32
t-157 16.5q-100 7 -172.5 21t-138.5 42t-106.5 71t-64.5 109.5t-24 156.5q0 171 110.5 283t292.5 139v123q0 49 32.5 80.5t80.5 31.5t79 -31.5t31 -80.5v-123q130 -19 232.5 -75t144.5 -149q10 -23 10 -46.5t-11.5 -43t-27.5 -35.5t-39 -22.5t-45.5 -5t-46 16.5t-42.5 42
q-37 54 -120.5 78.5t-168.5 24.5q-60 0 -110.5 -11t-91.5 -34.5t-64 -64.5t-23 -97q0 -44 11 -73.5t30 -48t59.5 -29t82 -15.5t116.5 -10q103 -9 177 -24t143 -44.5t110.5 -74.5t66.5 -115.5t25 -165.5z" />
    <glyph glyph-name="at.001" 
d="M809 -4q-146 -19 -275.5 16.5t-223 114.5t-147.5 202t-54 271q0 270 168 439t442 169q271 0 439.5 -168t168.5 -440q0 -358 -227 -358q-52 0 -100.5 27.5t-84.5 68.5q-32 -32 -90 -50t-112 -18q-131 0 -201 56t-70 133q0 88 79.5 138t193.5 50q73 0 137 -22q0 49 -5 70
t-26 40q-34 29 -82.5 31.5t-101.5 -29.5q-33 -32 -63.5 -28.5t-51.5 22t-20 52.5t30 63q53 53 155 63.5t185 -22.5q30 -13 51.5 -26.5t37 -30t24.5 -36.5t15 -45t7.5 -56t2.5 -69.5t0 -84.5v-54q0 -34 17.5 -65t51.5 -31q32 0 49 81.5t17 150.5q0 181 -120.5 295t-305.5 114
q-186 0 -309 -125t-123 -305q0 -221 140 -342.5t361 -85.5q67 12 100.5 -29.5t10.5 -90.5t-90 -56zM713 399q40 0 88.5 17t48.5 43q0 23 -49.5 41t-87.5 18q-46 0 -85.5 -16t-39.5 -43q0 -25 40.5 -42.5t84.5 -17.5z" />
    <glyph glyph-name="_q_tail" 
d="M799 -88l-344 344q-27 27 -34.5 60.5t2.5 61.5t33 51t51 33t61.5 2.5t60.5 -34.5l344 -344q62 -62 30 -131q-24 -52 -81 -71q-71 -24 -123 28z" />
    </font>
</defs>
</svg>
